<?xml version="1.0" encoding="utf-8"?>
<!-- Generator: Adobe Illustrator 17.1.0, SVG Export Plug-In . SVG Version: 6.00 Build 0)  -->
<!DOCTYPE svg PUBLIC "-//W3C//DTD SVG 1.1//EN" "http://www.w3.org/Graphics/SVG/1.1/DTD/svg11.dtd">
<svg version="1.1" id="Layer_1" xmlns="http://www.w3.org/2000/svg" xmlns:xlink="http://www.w3.org/1999/xlink" x="0px" y="0px"
	 viewBox="0 0 60 60" enable-background="new 0 0 60 60" xml:space="preserve">
<path fill="#FFFFFF" d="M45.7,29.5c0,8.5-6.9,15.4-15.4,15.4c-8.5,0-15.4-6.9-15.4-15.4c0-1,0.1-2,0.3-3H4.8V47c0,4.4,3.6,8,8,8
	h35.1c4.4,0,8-3.6,8-8V26.5H45.4C45.6,27.5,45.7,28.5,45.7,29.5z M47.8,4H12.8c-4.4,0-8,3.6-8,8v8.6h12.9c2.8-3.9,7.4-6.5,12.6-6.5
	c5.2,0,9.8,2.6,12.6,6.5h12.9v-8.6C55.8,7.5,52.2,4,47.8,4z M51.7,13.8c0,0.8-0.6,1.4-1.4,1.4H46c-0.8,0-1.4-0.6-1.4-1.4V9.5
	c0-0.8,0.6-1.4,1.4-1.4h4.3c0.8,0,1.4,0.6,1.4,1.4V13.8z M39.8,29.5c0-5.2-4.2-9.5-9.5-9.5c-5.2,0-9.5,4.2-9.5,9.5s4.2,9.5,9.5,9.5
	C35.5,39,39.8,34.7,39.8,29.5z"/>
</svg>
