<?xml version="1.0" encoding="utf-8"?>
<!-- Generator: Adobe Illustrator 17.1.0, SVG Export Plug-In . SVG Version: 6.00 Build 0)  -->
<!DOCTYPE svg PUBLIC "-//W3C//DTD SVG 1.1//EN" "http://www.w3.org/Graphics/SVG/1.1/DTD/svg11.dtd">
<svg version="1.1" id="Logo" xmlns="http://www.w3.org/2000/svg" xmlns:xlink="http://www.w3.org/1999/xlink" x="0px" y="0px"
	 viewBox="0 0 660 255" enable-background="new 0 0 660 255" xml:space="preserve">
<path id="Wordmark" fill="#FFFFFF" d="M430.8,131.1c0.4,1.5,0.8,2.9,1.5,4.1c-1.7,1.6-11.8,10.4-22.8,11c-7.1,0.4-7.6-6.9-6.7-11.5
	c0.8-4.6,12.8-73.4,12.8-73.6c-6.6,4.6-13.9,3.6-19.4,5.2c-2.2,0.6-1.9-1.3-1.1-2.7c0.7-1.4,3.9-4.3,8.2-5.6
	c10.9-3.4,14.9-11.3,14.9-11.3l17.9-1.3l0,0l0,0c0,0-13.4,77.1-14.5,83.4C420.7,133.4,424.3,135.4,430.8,131.1z M239.8,144.6
	c-2.3,2.1-5,3.3-4.2-1.4c1.1-6.2,4.7-27,4.7-27c1.8-10.2-4.9-11.7-8.2-11.5c-3.3,0.2-5.6,2.2-9,5c-3.2,2.6-5.7,3.6-8.5,4.4
	c-0.3-6.7-5.6-7.8-8.4-7.6c-3.3,0.2-5.6,2.2-9,5c-3.1,2.5-5.6,3.6-8.3,4.3l1.5-8.8l-17.9,1.3c0,0-6.4,9-15.5,11.6l-1.5,8.6
	c3.9-0.3,10.9-1.3,14.4-4.9l-6.8,39.2l17.9-1.3l6.5-37.4c1.6-0.4,5.4-1.5,8.8-3.5l-7,40.3l17.8-1.1c0,0,4.3-24.6,6.5-37.3
	c1.7-0.5,5.3-1.6,8.6-3.5c0,0-4.3,25.2-5.1,29.9c-0.8,4.6,0.4,11.4,7.4,11c4.7-0.3,10.1-1.9,16.3-9.8
	C240.4,147.7,240.2,146.5,239.8,144.6z M50.5,59.7c-1.6-1.6-4.3-3.6-3.6,4.6s10.4,25.9,26.6,25.9c15.7,0,30.2-5.7,31.1-6.1
	c1.2-7,2.4-13.5,3.3-18.9C65.3,76.3,52.1,61.3,50.5,59.7z M461.9,87.3c-7.7,0.7-25.2,2.7-29.3,30.2c-3.7,25.3,13.6,26.1,20.1,25.5
	c4-0.4,11.8-1.6,18.1-8.7c0.1-1.5,0.1-2.9-0.2-4c-0.9-3.3-3.6-4.8-8.2-4.8c-0.5,0-1.1,0-1.7,0.1c-2.4,6.4-5,8.3-7.2,8.5
	c-3.6,0.3-6.4-3.4-4.3-17.6c2.2-14.7,6.3-21.8,10.2-23c4.1-1.3,6.9,4.3,5.5,13.8c-0.4,2.5-0.8,4.8-1.2,6.8c0.9-0.1,1.9-0.2,2.8-0.2
	c4.7,0,8.8,1.6,11.9,4.6c0.4-1.5,0.7-3.2,0.9-4.9C482.7,90.5,469.6,86.6,461.9,87.3z M503.8,111c0,0-2.8-3.1-3.6-4.1
	c-0.7-0.9-1.9-2.7-1.9-2.7s-14.9,3.2-13.6,19.3c1,11.9,8.8,18.8,28.2,15.1c22.5-4.3,19.9-21.1,12.7-28.8c-7.2-7.7-6.8-7.3-9.3-9.9
	c-10-10.7-1.3-14.7,1.9-13.3c-1.7,5.5,3.2,9.3,12.8,7.5c5.7-11.3-3.8-15.5-20.1-12.3c-14.8,2.8-16.8,16.3-6.7,26.6
	c4.6,4.7,2.9,3.1,9.1,9.7c9,9.6-0.2,16.8-7,14.4c-3.3-1.1-6.5-2.9-7.9-9.6C496.6,113.9,503.8,111,503.8,111z M144.1,7.6
	c-13.4,8-27.9,24.1-33.5,55.5c-5.1,28.8-17.1,97.7-19.1,108.9c3.4-0.1,6.9-0.2,10.5-0.2c2.4,0,4.9,0,7.4,0.1
	c2-11.4,12.9-74,16.9-96.7c4.4-25,8.2-49.2,21-60.6c12.8-11.4,19.2-2,13.1,14.3c-6.1,16.3-28.6,28.1-28.6,28.1
	c-1.7,8.8-1.6,8.6-3.1,16.6c25.8-15.9,39.1-34.9,40-52.4C169.6,3.6,157.5-0.5,144.1,7.6z M148.5,90.5c-3.4,0.1-7.2,1.5-8.1,7.5
	c-0.5,3.6,2.8,8.3,17.2,6.4C163.3,94.8,157.4,90.1,148.5,90.5z M149.8,148.9c1.1-6.2,6.7-38.7,6.7-38.7l-17.9,1.3
	c0,0-7.8,11.1-18.5,12.2c-0.5,3.1-1.4,8.1-1.4,8.1s12.2,0.1,17.3-5c-1.3,7.5-4,22.9-4.8,27.5c-0.8,4.6,0.5,11.4,7.5,10.9
	c4.7-0.3,10.1-1.9,16.3-9.8c-0.4-2-0.6-3.2-1-5.1C151.7,152.4,148.9,153.6,149.8,148.9z M450.8,121c0,0-0.4,2.3-0.2,4.4
	c34.1-11,23.6,24.1,3.7,36c-27,16.1-49.4,24-151.9,24.6c-102.5,0.6-161.8-15.3-218.7-11.5c-52.8,3.5-68,25.2-74.5,41.6
	c-6.1,15.5-1.3,36.3,32,35.2c35.5-1.2,58.8-25.1,64.8-60.9c0-0.3,0.3-1.6,0.5-2.7c0,0-2.9-0.3-8.6-0.6c-5.7-0.3-9.1-0.3-9.1-0.3
	s-1.5,8.4-2.3,13.2c-0.8,4.8-4.7,25.1-27.4,36.6c-32,16.3-56.6-0.3-35.7-28.7c24.7-33.4,83.5-23.7,143.8-15.1
	c60.9,8.7,150.3,17.3,207.4,12.3c57.2-5,96.7-33.6,104.9-57.3C488,123.6,473.8,107.5,450.8,121z M34.9,131.4
	c-5.6,0.4-6.9,4.9-1.5,4.5c5.4-0.4,60.9-2.5,62.6-2.6c0.5-2.6,0.9-5.3,1.4-8.1C96.4,125.3,40.5,131,34.9,131.4z M97.5,125.2
	C97.5,125.2,97.5,125.2,97.5,125.2c-0.5,2.8-1,5.5-1.4,8.1c0,0,0,0,0,0L97.5,125.2z M19.5,136.8c4.5-0.3,5.8-4.1,1.2-3.8
	C2.9,134.3,5.3,137.6,19.5,136.8z M626.2,95.2c5.6-0.4,6.9-4.9,1.5-4.5c-5.4,0.4-62.1,4.2-62.1,4.2l-1,5.6
	C564.6,100.4,620.6,95.6,626.2,95.2z M640.4,93.6c-4.5,0.3-3.2-3.5,1.2-3.8C655.8,89,658.2,92.3,640.4,93.6z M523.9,104.7
	c0,0,8.2-1.9,18.3-2.9c0.6-3.4,0.8-4.5,1.1-5.9c-14.5,0.9-24.7,3.2-24.7,3.2L523.9,104.7z M272.7,102.9l-1,5.9
	c1.2-0.3,2.6-0.4,3.8,0.1c2.8,1.2,5.2,5.4,3,18.2c-4.1,24.4-17.9,27.4-15.8,15.7c1.1-6.2,14.9-85.7,14.9-85.7l-17.9,1.3
	c0,0-4,7.9-14.9,11.3c-4.3,1.3-7.4,4.2-8.2,5.6c-0.7,1.4-1,3.3,1.1,2.7c5.5-1.5,12.9-0.6,19.5-5.2c-1.3,7.5-6.1,35-9.6,55.3
	c-3.5,20.3,3.6,29.3,18.5,28.3c14.9-1,25.7-10.2,28.9-28.5C299.2,103.5,284,94.8,272.7,102.9z M596.2,51.9
	c-6.7,2.9-15.7,2.8-25.7,1.7c0.9-5.2,1.5-8.7,1.7-9.6c0.8-4.4-1.2-7.8-8.1-7.3c-3.3,0.2-8.4,0.6-8.4,0.6s-1,5.6-2.4,14
	c-20.2-2.8-36.9-4.1-45.6-0.7c-12.1,4.8-16.2,14-16.8,18.3c-0.6,4.6,0.4,4.1,3.1,1.5c5.7-5.5,17.6-10.5,41.2-9.8
	c3.5,0.1,9.4,0.6,16.2,1.2c-4.4,25-10.6,60.6-11.1,63.6c-0.8,4.6,0.5,11.4,7.5,10.9c4.7-0.3,10.1-1.9,16.3-9.8c-0.4-2-0.6-3.2-1-5.1
	c-2.3,2.1-5,3.3-4.2-1.4c0.7-4.2,6.2-35.7,9.9-56.9c9.9,0.6,18.9,0.7,23.1-0.6c4.9-1.6,6.6-5.9,7.3-9.6
	C599.9,49.2,598,51.1,596.2,51.9z M402.7,110.1c-8.1,1.5-14.9-1.1-13.9-8c-5.2-0.1-10.8,3.8-10.8,3.8l-7.2,42.1l-17.9,1.3l6.8-39.1
	c-2.9,3-8.2,4.2-12.1,4.7c0.8-3.3,1-6.1,0.4-8.7c8.5-3,14.4-11.3,14.4-11.3l17.9-1.3l-0.9,5.3c0,0,7.4-6.1,15.8-5.6
	C404.1,93.8,407.8,101.6,402.7,110.1z M332,116.8c4-14-6.5-24.8-13,8.3c-3,15.3,0.6,22.2,14.6,12.4c0.5,2.3,1.4,6,1.4,6
	s-4.2,7.8-18.2,9.3c0,0-19.8,3.8-15.8-24.9c4-28.8,21.9-30.3,29.3-30.4c7.4-0.1,18.9,2.8,15.2,16.9c-3.7,14.1-16.9,16.8-24.3,17.9
	c-0.1-3.2,0.7-5.1,0.7-5.1S329.7,124.9,332,116.8z"/>
<path id="Lining" display="none" d="M196.1,107.6c0-1.4,0.5-2.5,1-3.2c0.5-0.7,0.9-1,1-1c0.1,0.1-0.2,0.5-0.5,1.2
	c-0.3,0.7-0.7,1.8-0.7,3c0,1.2,0.4,2.2,0.7,3c0.3,0.7,0.6,1.1,0.6,1.2c-0.1,0.1-0.5-0.2-1-1C196.6,110.1,196.1,108.9,196.1,107.6z
	 M192.5,134.3c-0.2,0-1.5,6-2.9,13.4c-0.3,1.9-0.7,3.6-0.9,5.3c-0.3,1.7-0.1,3.2,0.2,4.4c0.7,2.5,1.7,3.7,1.7,3.6
	c0.1-0.1-0.7-1.4-1.2-3.8c-0.2-1.2-0.4-2.6-0.1-4.2l1-5.2C191.7,140.4,192.7,134.3,192.5,134.3z M219.6,132.3c-0.2,0-1.5,6-2.8,13.4
	c-1.3,7.4-2.3,13.5-2.1,13.5c0.2,0,1.5-6,2.8-13.4C218.9,138.4,219.8,132.4,219.6,132.3z M168.8,99.1c-0.2,0-1.5,6-2.8,13.4
	c-1.3,7.4-2.3,13.5-2.1,13.5c0.2,0,1.5-6,2.8-13.4C168.1,105.2,169,99.1,168.8,99.1z M161.8,138.8c-0.2,0-1.5,6-2.8,13.4
	c-1.3,7.4-2.3,13.5-2.1,13.5c0.2,0,1.5-6,2.8-13.4C161.1,144.8,162,138.8,161.8,138.8z M241.2,129.1c-0.2,0-1.5,6.4-3,14.3
	c-1.4,7.9-2.5,14.4-2.2,14.4c0.2,0,1.5-6.4,3-14.3C240.4,135.6,241.4,129.1,241.2,129.1z M262.2,127.5c-0.2,0-1.6,6.5-3.2,14.6
	c-0.4,2-0.7,4-1,5.7c-0.4,1.8-0.2,3.5,0.1,4.8c0.7,2.7,1.9,4,2,3.9c0.1-0.1-0.9-1.5-1.5-4.1c-0.3-1.3-0.3-2.9,0-4.6l1.1-5.7
	C261.3,134.2,262.4,127.6,262.2,127.5z M410,122.1c-0.2,0-1.3,5.3-2.5,12l-0.4,2.4c-0.1,0.8-0.3,1.5-0.3,2.3
	c-0.1,1.5,0.2,2.9,0.6,3.9c0.7,2.2,1.7,3.2,1.8,3.2c0.1-0.1-0.7-1.2-1.3-3.3c-0.3-1-0.5-2.3-0.4-3.7c0-0.7,0.2-1.4,0.4-2.2l0.4-2.4
	C409.5,127.5,410.2,122.1,410,122.1z M290.5,90.5c-0.2,0-2.8,13.5-5.8,30.1l-2.1,11.8c-0.8,3.6-0.9,7-0.5,9.8c0.4,2.8,1.2,4.9,2,6.3
	c0.7,1.4,1.3,2,1.4,2c0,0-0.5-0.7-1.1-2.1c-0.6-1.4-1.4-3.5-1.7-6.3c-0.3-2.7-0.2-6,0.7-9.6c0.7-3.6,1.4-7.6,2.2-11.7
	C288.4,104.1,290.7,90.5,290.5,90.5z M309,121.2c-0.3-1.4-0.8-2.5-1.3-3.2c-0.5-0.7-1-0.9-1-0.8c0,0,0.3,0.3,0.7,1
	c0.4,0.7,0.8,1.7,1,3.1c0.4,2.8-0.1,6.7-1.2,10.9c-1.1,4.2-2.2,8-3.5,10.5c-1.3,2.5-2.8,3.6-2.7,3.7c0,0,0.4-0.2,1-0.8
	c0.6-0.5,1.4-1.4,2.1-2.7c1.5-2.5,2.7-6.3,3.8-10.6C309.1,128.1,309.5,124,309,121.2z M329.3,120.5c1-2.7,2.3-5,3.6-6.7
	c2.5-3.6,4.8-5.1,4.7-5.2c0-0.1-2.5,1.3-5.2,4.9c-1.3,1.8-2.7,4.1-3.8,6.8c-1.1,2.7-1.9,5.9-2.3,9.2c-0.5,3.3-0.7,6.5-0.6,9.5
	c0.1,2.9,0.7,5.6,1.7,7.6c1,2,2.3,3.3,3.3,4.1c1,0.8,1.5,1.1,1.6,1.1c0,0-0.5-0.5-1.4-1.3c-0.9-0.8-2.1-2.2-3-4.1
	c-0.9-2-1.4-4.5-1.5-7.4c-0.1-2.9,0.2-6.1,0.7-9.4C327.4,126.2,328.2,123.1,329.3,120.5z M351.8,115.6c-0.3-1.4-0.6-2.2-0.7-2.2
	c-0.1,0,0.1,0.9,0.2,2.2c0.1,1.4,0.1,3.3-0.4,5.3c-0.5,2-1.4,3.6-2.2,4.7c-0.8,1.1-1.4,1.7-1.3,1.8c0.1,0.1,0.8-0.4,1.8-1.5
	c0.9-1,2-2.8,2.6-4.9C352.2,119,352,117,351.8,115.6z M396.8,113.2c-0.1,0-0.2,0.3-0.1,0.8c0.1,0.5,0.3,1.2,0.8,1.8
	c0.5,0.6,1.2,0.9,1.7,1.1c0.5,0.1,0.8,0.1,0.8,0c0.1-0.2-1.1-0.6-1.9-1.6C397.1,114.3,397,113.2,396.8,113.2z M372.8,120.2
	c-0.2,0-1.5,6.4-3,14.3c-1.4,7.9-2.5,14.4-2.2,14.4c0.2,0,1.5-6.4,3-14.3C372,126.7,373,120.3,372.8,120.2z M417.3,82
	c-0.2,0-1.3,4.8-2.3,10.8c-1.1,6-1.8,10.9-1.6,10.9c0.2,0,1.3-4.8,2.3-10.8C416.8,86.9,417.5,82,417.3,82z M431,125.5
	c-0.2,3.3,0.1,5.4,0.2,5.4c0.1,0,0-2,0.4-5.3c0.3-3.3,1.1-7.8,2.9-12.4c1.8-4.7,4.5-8.4,6.9-10.6c2.4-2.3,4.2-3.3,4.1-3.4
	c0-0.1-1.9,0.8-4.4,3c-2.5,2.2-5.4,6-7.2,10.7C431.8,117.6,431.2,122.2,431,125.5z M457.7,107.5c-0.3-1.4-0.8-2.1-0.8-2.1
	c-0.1,0,0.2,0.8,0.3,2.2c0.2,1.3,0.2,3.2,0,5.2c-0.4,4.1-1.3,7.3-1,7.4c0.2,0.1,1.4-3.1,1.8-7.3C458.1,110.8,458,108.8,457.7,107.5z
	 M453.6,130.4c-0.2-0.1-0.7,0.7-1.3,1.7c-0.6,1-1.2,1.7-1,1.9c0.1,0.1,1-0.5,1.6-1.5C453.5,131.5,453.8,130.5,453.6,130.4z
	 M477.9,83.4c-0.2,2.5,0.2,4.1,0.3,4.1c0.1,0-0.2-1.6,0.2-4c0.3-2.4,1.5-5.7,4-8.6c2.4-2.9,5.4-4.7,7.5-5.9c2.2-1.2,3.6-1.8,3.6-1.9
	c0-0.1-1.5,0.3-3.8,1.4c-2.2,1.1-5.3,2.9-7.8,5.9C479.3,77.4,478.1,80.9,477.9,83.4z M530.5,58.6c-0.2,0-0.7,1.9-1.1,4.2
	c-0.4,2.4-0.6,4.3-0.4,4.4c0.2,0,0.7-1.9,1.1-4.2C530.5,60.6,530.7,58.6,530.5,58.6z M526.6,79.8c-0.2,0-1.3,4.9-2.4,11.1
	c-1.1,6.2-1.8,11.2-1.6,11.3c0.2,0,1.3-4.9,2.4-11.1C526.1,84.9,526.8,79.9,526.6,79.8z M520.6,113.8c-0.2,0-1.3,5.3-2.5,12
	l-0.4,2.4c-0.1,0.8-0.3,1.5-0.3,2.3c-0.1,1.5,0.2,2.9,0.6,3.9c0.7,2.2,1.7,3.2,1.8,3.2c0.1-0.1-0.7-1.2-1.3-3.3
	c-0.3-1-0.5-2.3-0.4-3.7c0-0.7,0.2-1.4,0.4-2.2l0.4-2.4C520,119.3,520.8,113.8,520.6,113.8z M487.2,97.1c0.9-1.1,1.6-1.7,1.6-1.8
	c-0.1-0.1-0.9,0.3-1.9,1.4c-1,1-2.3,2.8-2.8,5.1c-0.5,2.3,0,4.4,0.5,5.8c0.5,1.4,1.1,2.1,1.2,2.1c0.1-0.1-0.3-0.9-0.7-2.3
	c-0.4-1.4-0.7-3.4-0.3-5.5C485.2,99.9,486.3,98.2,487.2,97.1z M499.1,130.3c-0.1,1.3-0.8,1.9-0.7,1.9c0,0,0.2-0.1,0.5-0.4
	c0.3-0.3,0.6-0.8,0.7-1.5c0.2-1.5-0.6-3.4-1.9-5.1c-2.6-3.3-5.5-5.2-5.6-5.1c-0.2,0.2,2.5,2.3,5,5.5
	C498.4,127.3,499.2,129,499.1,130.3z M478.4,114.5c-0.1-0.2-2.3,1.3-3.7,4.3c-0.7,1.4-1,2.9-1,3.9c-0.1,1,0.1,1.7,0.1,1.7
	c0.2,0,0.3-2.5,1.5-5.2C476.7,116.3,478.6,114.7,478.4,114.5z M458.1,149.8c2.8-3,3.7-5.4,3.5-5.5c-0.1,0-1.1,2.3-3.9,5.1
	c-2.8,2.9-7.2,6.2-12.6,9.2c-5.3,3-10.4,5.2-14.2,6.7c-3.7,1.5-6.1,2.3-6,2.5c0,0.1,2.4-0.6,6.2-2c3.8-1.4,9-3.5,14.3-6.5
	C450.9,156.3,455.4,152.8,458.1,149.8z M121.4,78.2c-0.1-3.3,0.4-5.3,0.3-5.3c-0.1,0-0.7,2-0.8,5.3c-0.1,3.3,0.6,8,3.1,12.5
	c2.5,4.5,6.1,7.5,8.9,9.3c2.8,1.8,4.7,2.5,4.7,2.4c0.1-0.1-1.8-1-4.5-2.9c-2.6-1.9-6.1-4.9-8.5-9.2C122.2,86,121.5,81.5,121.4,78.2z
	 M213.6,48.4c0.6-2,0.8-3.9,0.7-5.5c-0.1-1.6-0.5-2.8-0.9-3.6c-0.4-0.8-0.8-1.1-0.8-1.1c-0.1,0,1.1,1.7,1.2,4.8
	c0.1,1.5-0.2,3.3-0.8,5.3c-0.6,1.9-1.6,3.9-2.8,5.9c-2.5,4-5.5,7.1-7.7,9.3c-2.2,2.2-3.6,3.5-3.6,3.6c0.1,0.1,1.6-1.1,3.9-3.2
	c2.3-2.1,5.4-5.2,7.9-9.2C212,52.5,213,50.4,213.6,48.4z M172.4,77.3c0.2,0,1.4-8.3,5.3-17.7c1.9-4.7,4.2-8.8,6-11.6
	c1.8-2.8,3.1-4.4,3-4.5c-0.1-0.1-1.5,1.5-3.5,4.2c-1.9,2.8-4.3,6.8-6.3,11.6C173.1,68.9,172.2,77.3,172.4,77.3z M153.6,186
	c0.7-3.7,0.7-6.1,0.6-6.1c-0.1,0-0.3,2.3-1.1,6c-0.8,3.6-2.2,8.7-4.8,13.7c-2.6,5.1-6,9-8.8,11.5c-2.8,2.5-4.9,3.6-4.8,3.7
	c0,0.1,2.2-0.9,5.1-3.3c2.9-2.4,6.5-6.4,9.1-11.5C151.5,194.8,152.9,189.7,153.6,186z M92.4,198.1c1.6-3.2,3.4-6,5-8.2
	c3.2-4.5,5.6-6.9,5.5-7c-0.1-0.1-2.6,2.2-6,6.7c-1.7,2.2-3.5,5-5.2,8.2c-1.6,3.3-3.1,7.1-3.6,11.4c-0.2,2.1-0.1,4.2,0.3,6.2
	c0.4,2,1,3.8,1.7,5.5c1.5,3.4,3.8,6,6,7.7c2.2,1.7,4.3,2.7,5.7,3.2c1.5,0.5,2.3,0.6,2.3,0.6c0-0.1-0.8-0.3-2.2-0.8
	c-1.4-0.6-3.4-1.6-5.5-3.3c-2.1-1.7-4.3-4.2-5.7-7.5c-1.4-3.3-2.3-7.3-1.9-11.4C89.4,205.2,90.8,201.4,92.4,198.1z"/>
</svg>
