<?xml version="1.0" encoding="utf-8"?>
<!-- Generator: Adobe Illustrator 17.1.0, SVG Export Plug-In . SVG Version: 6.00 Build 0)  -->
<!DOCTYPE svg PUBLIC "-//W3C//DTD SVG 1.1//EN" "http://www.w3.org/Graphics/SVG/1.1/DTD/svg11.dtd">
<svg version="1.1" id="Logo" xmlns="http://www.w3.org/2000/svg" xmlns:xlink="http://www.w3.org/1999/xlink" x="0px" y="0px"
	 viewBox="0 0 660 255" enable-background="new 0 0 660 255" xml:space="preserve">
<path id="Wordmark" fill="#3D4042" d="M428.2,131c0.4,1.4,0.8,2.8,1.4,4c-1.7,1.5-11.5,10.1-22.2,10.7c-6.9,0.4-7.4-6.7-6.6-11.2
	c0.8-4.5,12.5-71.6,12.5-71.7c-6.4,4.5-13.6,3.6-19,5c-2.1,0.6-1.8-1.3-1.1-2.6c0.7-1.4,3.8-4.2,8-5.5c10.7-3.3,14.5-11.1,14.5-11.1
	l17.4-1.2l0,0l0,0c0,0-13,75.2-14.1,81.2C418.4,133.2,422,135.2,428.2,131z M242.1,144.2c-2.2,2.1-4.9,3.2-4.1-1.4
	c1.1-6.1,4.6-26.3,4.6-26.3c1.7-9.9-4.8-11.4-8-11.2c-3.2,0.2-5.4,2.1-8.8,4.8c-3.1,2.5-5.6,3.5-8.3,4.3c-0.3-6.6-5.5-7.6-8.2-7.4
	c-3.2,0.2-5.4,2.1-8.8,4.8c-3,2.5-5.5,3.5-8.1,4.2l1.5-8.6l-17.4,1.2c0,0-6.2,8.8-15.1,11.3l-1.5,8.3c3.8-0.3,10.6-1.3,14-4.8
	l-6.7,38.2l17.4-1.2l6.3-36.4c1.6-0.4,5.3-1.5,8.6-3.5l-6.8,39.2l17.4-1.1c0,0,4.2-24,6.4-36.4c1.7-0.4,5.2-1.5,8.4-3.4
	c0,0-4.2,24.6-5,29.1c-0.8,4.5,0.4,11.2,7.2,10.7c4.6-0.3,9.8-1.9,15.9-9.5C242.7,147.2,242.5,146,242.1,144.2z M57.6,61.4
	c-1.6-1.6-4.2-3.5-3.5,4.5s10.1,25.3,26,25.3c15.4,0,29.4-5.6,30.3-5.9c1.2-6.9,2.3-13.2,3.2-18.4C72,77.6,59.2,63,57.6,61.4z
	 M458.6,88.3c-7.5,0.7-24.6,2.6-28.5,29.4c-3.6,24.6,13.3,25.4,19.6,24.9c3.9-0.3,11.5-1.6,17.6-8.5c0.1-1.5,0.1-2.8-0.2-3.9
	c-0.9-3.2-3.5-4.7-8-4.7c-0.5,0-1.1,0-1.7,0.1c-2.3,6.2-4.8,8.1-7,8.3c-3.5,0.3-6.3-3.3-4.2-17.1c2.1-14.3,6.1-21.2,9.9-22.4
	c4-1.2,6.7,4.2,5.4,13.4c-0.4,2.4-0.7,4.6-1.1,6.7c0.9-0.1,1.8-0.2,2.7-0.2c4.6,0,8.6,1.6,11.6,4.5c0.4-1.5,0.7-3.1,0.9-4.8
	C478.8,91.5,466.1,87.6,458.6,88.3z M499.4,111.4c0,0-2.7-3-3.5-4c-0.7-0.8-1.9-2.7-1.9-2.7s-14.6,3.1-13.2,18.8
	c1,11.6,8.6,18.3,27.5,14.7c21.9-4.2,19.4-20.5,12.4-28c-7-7.5-6.6-7.1-9-9.7c-9.8-10.5-1.3-14.3,1.9-12.9c-1.6,5.4,3.2,9,12.5,7.3
	c5.5-11-3.7-15.1-19.6-12c-14.4,2.8-16.4,15.9-6.5,25.9c4.5,4.6,2.8,3,8.8,9.5c8.8,9.3-0.2,16.4-6.9,14c-3.2-1.1-6.3-2.8-7.7-9.3
	C492.4,114.3,499.4,111.4,499.4,111.4z M148.8,10.6c-13.1,7.8-27.2,23.5-32.6,54.1c-4.9,28.1-16.7,95.2-18.6,106.2
	c3.3-0.1,6.7-0.2,10.3-0.2c2.4,0,4.8,0,7.2,0.1c1.9-11.1,12.6-72.2,16.5-94.3c4.3-24.3,8-47.9,20.5-59.1
	c12.5-11.2,18.7-1.9,12.8,13.9c-5.9,15.9-27.9,27.4-27.9,27.4c-1.6,8.6-1.5,8.4-3.1,16.2c25.1-15.5,38.1-34,39-51.1
	C173.7,6.8,161.8,2.8,148.8,10.6z M153.1,91.4c-3.3,0.1-7.1,1.5-7.9,7.3c-0.5,3.5,2.7,8.1,16.7,6.2C167.5,95.6,161.7,91,153.1,91.4z
	 M154.3,148.3c1.1-6.1,6.5-37.7,6.5-37.7l-17.4,1.2c0,0-7.6,10.8-18.1,11.9c-0.5,3-1.4,7.9-1.4,7.9s11.9,0.1,16.9-4.9
	c-1.3,7.3-3.9,22.3-4.7,26.8c-0.8,4.5,0.5,11.2,7.3,10.7c4.6-0.3,9.8-1.9,15.9-9.5c-0.4-2-0.6-3.2-1-5
	C156.2,151.8,153.5,152.9,154.3,148.3z M447.8,121.2c0,0-0.4,2.3-0.2,4.3c33.2-10.8,23,23.5,3.6,35.1c-26.3,15.7-48.1,23.4-148.1,24
	c-99.9,0.6-157.7-14.9-213.2-11.2c-51.5,3.4-66.3,24.6-72.6,40.6c-6,15.1-1.3,35.4,31.2,34.3c34.6-1.2,57.3-24.5,63.1-59.4
	c0-0.2,0.3-1.6,0.5-2.7c0,0-2.8-0.3-8.4-0.5s-8.9-0.3-8.9-0.3s-1.5,8.2-2.3,12.9c-0.8,4.6-4.6,24.5-26.7,35.7
	c-31.1,15.9-55.2-0.3-34.8-28c24.1-32.5,81.4-23.1,140.2-14.7c59.3,8.5,146.5,16.8,202.2,12c55.7-4.8,94.2-32.7,102.2-55.9
	C484,123.7,470.2,108,447.8,121.2z M42.4,131.3c-5.4,0.4-6.8,4.8-1.5,4.4c5.2-0.4,59.4-2.5,61-2.5c0.5-2.6,0.9-5.2,1.4-7.9
	C102.3,125.4,47.8,130.9,42.4,131.3z M103.4,125.3C103.4,125.3,103.4,125.3,103.4,125.3c-0.5,2.7-1,5.3-1.4,7.9c0,0,0,0,0,0
	L103.4,125.3z M27.3,136.5c4.4-0.3,5.6-4,1.2-3.7C11.2,134.2,13.5,137.4,27.3,136.5z M618.7,96c5.4-0.4,6.8-4.8,1.5-4.4
	s-60.5,4.1-60.5,4.1l-1,5.4C558.7,101.1,613.2,96.4,618.7,96z M632.5,94.5c-4.4,0.3-3.2-3.4,1.2-3.7C647.6,90,649.9,93.2,632.5,94.5
	z M519,105.2c0,0,7.9-1.8,17.8-2.8c0.6-3.3,0.8-4.4,1-5.8c-14.1,0.9-24.1,3.1-24.1,3.1L519,105.2z M274.2,103.5l-1,5.8
	c1.2-0.3,2.5-0.4,3.7,0.1c2.7,1.1,5.1,5.3,3,17.8c-4,23.8-17.4,26.7-15.4,15.3c1-6.1,14.6-83.6,14.6-83.6L261.6,60
	c0,0-3.9,7.7-14.5,11.1c-4.2,1.3-7.3,4.1-8,5.5c-0.7,1.4-1,3.2,1.1,2.6c5.4-1.5,12.5-0.6,19-5c-1.3,7.3-5.9,34.1-9.4,53.9
	c-3.5,19.8,3.5,28.6,18,27.5c14.5-1,25.1-10,28.2-27.8C300,104.1,285.2,95.6,274.2,103.5z M589.4,53.8c-6.5,2.8-15.3,2.7-25,1.7
	c0.9-5,1.5-8.5,1.6-9.3c0.7-4.3-1.2-7.6-7.9-7.1c-3.2,0.2-8.2,0.6-8.2,0.6s-1,5.5-2.4,13.6c-19.7-2.7-35.9-4-44.4-0.6
	c-11.7,4.7-15.8,13.6-16.4,17.8c-0.6,4.5,0.4,4,3.1,1.4c5.5-5.4,17.1-10.3,40.1-9.6c3.4,0.1,9.2,0.6,15.8,1.2
	c-4.3,24.4-10.3,59.1-10.8,62c-0.8,4.5,0.5,11.2,7.3,10.7c4.6-0.3,9.8-1.9,15.9-9.5c-0.4-2-0.6-3.2-1-5c-2.2,2.1-4.9,3.2-4.1-1.4
	c0.7-4.1,6.1-34.8,9.7-55.4c9.6,0.6,18.5,0.7,22.5-0.6c4.8-1.5,6.4-5.8,7.1-9.3C593,51.2,591.2,53,589.4,53.8z M400.9,110.5
	c-7.9,1.4-14.5-1.1-13.5-7.8c-5-0.1-10.5,3.7-10.5,3.7l-7,41l-17.4,1.2l6.6-38.1c-2.9,2.9-8,4.1-11.8,4.6c0.8-3.2,1-6,0.4-8.5
	c8.3-2.9,14-11,14-11l17.4-1.2l-0.9,5.1c0,0,7.2-6,15.4-5.5C402.2,94.7,405.9,102.3,400.9,110.5z M331.9,117.1
	c3.9-13.7-6.3-24.2-12.6,8.1c-2.9,14.9,0.5,21.6,14.3,12.1c0.5,2.3,1.3,5.8,1.3,5.8s-4.1,7.6-17.7,9.1c0,0-19.3,3.7-15.4-24.3
	c3.9-28,21.4-29.5,28.6-29.6c7.2-0.1,18.4,2.8,14.8,16.5c-3.6,13.7-16.5,16.4-23.7,17.4c-0.1-3.1,0.7-4.9,0.7-4.9
	S329.7,125,331.9,117.1z"/>
<path id="Lining" display="none" d="M196.1,107.6c0-1.4,0.5-2.5,1-3.2c0.5-0.7,0.9-1,1-1c0.1,0.1-0.2,0.5-0.5,1.2
	c-0.3,0.7-0.7,1.8-0.7,3c0,1.2,0.4,2.2,0.7,3c0.3,0.7,0.6,1.1,0.6,1.2c-0.1,0.1-0.5-0.2-1-1C196.6,110.1,196.1,108.9,196.1,107.6z
	 M192.5,134.3c-0.2,0-1.5,6-2.9,13.4c-0.3,1.9-0.7,3.6-0.9,5.3c-0.3,1.7-0.1,3.2,0.2,4.4c0.7,2.5,1.7,3.7,1.7,3.6
	c0.1-0.1-0.7-1.4-1.2-3.8c-0.2-1.2-0.4-2.6-0.1-4.2l1-5.2C191.7,140.4,192.7,134.3,192.5,134.3z M219.6,132.3c-0.2,0-1.5,6-2.8,13.4
	c-1.3,7.4-2.3,13.5-2.1,13.5c0.2,0,1.5-6,2.8-13.4C218.9,138.4,219.8,132.4,219.6,132.3z M168.8,99.1c-0.2,0-1.5,6-2.8,13.4
	c-1.3,7.4-2.3,13.5-2.1,13.5c0.2,0,1.5-6,2.8-13.4C168.1,105.2,169,99.1,168.8,99.1z M161.8,138.8c-0.2,0-1.5,6-2.8,13.4
	c-1.3,7.4-2.3,13.5-2.1,13.5c0.2,0,1.5-6,2.8-13.4C161.1,144.8,162,138.8,161.8,138.8z M241.2,129.1c-0.2,0-1.5,6.4-3,14.3
	c-1.4,7.9-2.5,14.4-2.2,14.4c0.2,0,1.5-6.4,3-14.3C240.4,135.6,241.4,129.1,241.2,129.1z M262.2,127.5c-0.2,0-1.6,6.5-3.2,14.6
	c-0.4,2-0.7,4-1,5.7c-0.4,1.8-0.2,3.5,0.1,4.8c0.7,2.7,1.9,4,2,3.9c0.1-0.1-0.9-1.5-1.5-4.1c-0.3-1.3-0.3-2.9,0-4.6l1.1-5.7
	C261.3,134.2,262.4,127.6,262.2,127.5z M410,122.1c-0.2,0-1.3,5.3-2.5,12l-0.4,2.4c-0.1,0.8-0.3,1.5-0.3,2.3
	c-0.1,1.5,0.2,2.9,0.6,3.9c0.7,2.2,1.7,3.2,1.8,3.2c0.1-0.1-0.7-1.2-1.3-3.3c-0.3-1-0.5-2.3-0.4-3.7c0-0.7,0.2-1.4,0.4-2.2l0.4-2.4
	C409.5,127.5,410.2,122.1,410,122.1z M290.5,90.5c-0.2,0-2.8,13.5-5.8,30.1l-2.1,11.8c-0.8,3.6-0.9,7-0.5,9.8c0.4,2.8,1.2,4.9,2,6.3
	c0.7,1.4,1.3,2,1.4,2c0,0-0.5-0.7-1.1-2.1c-0.6-1.4-1.4-3.5-1.7-6.3c-0.3-2.7-0.2-6,0.7-9.6c0.7-3.6,1.4-7.6,2.2-11.7
	C288.4,104.1,290.7,90.5,290.5,90.5z M309,121.2c-0.3-1.4-0.8-2.5-1.3-3.2c-0.5-0.7-1-0.9-1-0.8c0,0,0.3,0.3,0.7,1
	c0.4,0.7,0.8,1.7,1,3.1c0.4,2.8-0.1,6.7-1.2,10.9c-1.1,4.2-2.2,8-3.5,10.5c-1.3,2.5-2.8,3.6-2.7,3.7c0,0,0.4-0.2,1-0.8
	c0.6-0.5,1.4-1.4,2.1-2.7c1.5-2.5,2.7-6.3,3.8-10.6C309.1,128.1,309.5,124,309,121.2z M329.3,120.5c1-2.7,2.3-5,3.6-6.7
	c2.5-3.6,4.8-5.1,4.7-5.2c0-0.1-2.5,1.3-5.2,4.9c-1.3,1.8-2.7,4.1-3.8,6.8c-1.1,2.7-1.9,5.9-2.3,9.2c-0.5,3.3-0.7,6.5-0.6,9.5
	c0.1,2.9,0.7,5.6,1.7,7.6c1,2,2.3,3.3,3.3,4.1c1,0.8,1.5,1.1,1.6,1.1c0,0-0.5-0.5-1.4-1.3c-0.9-0.8-2.1-2.2-3-4.1
	c-0.9-2-1.4-4.5-1.5-7.4c-0.1-2.9,0.2-6.1,0.7-9.4C327.4,126.2,328.2,123.1,329.3,120.5z M351.8,115.6c-0.3-1.4-0.6-2.2-0.7-2.2
	c-0.1,0,0.1,0.9,0.2,2.2c0.1,1.4,0.1,3.3-0.4,5.3c-0.5,2-1.4,3.6-2.2,4.7c-0.8,1.1-1.4,1.7-1.3,1.8c0.1,0.1,0.8-0.4,1.8-1.5
	c0.9-1,2-2.8,2.6-4.9C352.2,119,352,117,351.8,115.6z M396.8,113.2c-0.1,0-0.2,0.3-0.1,0.8c0.1,0.5,0.3,1.2,0.8,1.8
	c0.5,0.6,1.2,0.9,1.7,1.1c0.5,0.1,0.8,0.1,0.8,0c0.1-0.2-1.1-0.6-1.9-1.6C397.1,114.3,397,113.2,396.8,113.2z M372.8,120.2
	c-0.2,0-1.5,6.4-3,14.3c-1.4,7.9-2.5,14.4-2.2,14.4c0.2,0,1.5-6.4,3-14.3C372,126.7,373,120.3,372.8,120.2z M417.3,82
	c-0.2,0-1.3,4.8-2.3,10.8c-1.1,6-1.8,10.9-1.6,10.9c0.2,0,1.3-4.8,2.3-10.8C416.8,86.9,417.5,82,417.3,82z M431,125.5
	c-0.2,3.3,0.1,5.4,0.2,5.4c0.1,0,0-2,0.4-5.3c0.3-3.3,1.1-7.8,2.9-12.4c1.8-4.7,4.5-8.4,6.9-10.6c2.4-2.3,4.2-3.3,4.1-3.4
	c0-0.1-1.9,0.8-4.4,3c-2.5,2.2-5.4,6-7.2,10.7C431.8,117.6,431.2,122.2,431,125.5z M457.7,107.5c-0.3-1.4-0.8-2.1-0.8-2.1
	c-0.1,0,0.2,0.8,0.3,2.2c0.2,1.3,0.2,3.2,0,5.2c-0.4,4.1-1.3,7.3-1,7.4c0.2,0.1,1.4-3.1,1.8-7.3C458.1,110.8,458,108.8,457.7,107.5z
	 M453.6,130.4c-0.2-0.1-0.7,0.7-1.3,1.7c-0.6,1-1.2,1.7-1,1.9c0.1,0.1,1-0.5,1.6-1.5C453.5,131.5,453.8,130.5,453.6,130.4z
	 M477.9,83.4c-0.2,2.5,0.2,4.1,0.3,4.1c0.1,0-0.2-1.6,0.2-4c0.3-2.4,1.5-5.7,4-8.6c2.4-2.9,5.4-4.7,7.5-5.9c2.2-1.2,3.6-1.8,3.6-1.9
	c0-0.1-1.5,0.3-3.8,1.4c-2.2,1.1-5.3,2.9-7.8,5.9C479.3,77.4,478.1,80.9,477.9,83.4z M530.5,58.6c-0.2,0-0.7,1.9-1.1,4.2
	c-0.4,2.4-0.6,4.3-0.4,4.4c0.2,0,0.7-1.9,1.1-4.2C530.5,60.6,530.7,58.6,530.5,58.6z M526.6,79.8c-0.2,0-1.3,4.9-2.4,11.1
	c-1.1,6.2-1.8,11.2-1.6,11.3c0.2,0,1.3-4.9,2.4-11.1C526.1,84.9,526.8,79.9,526.6,79.8z M520.6,113.8c-0.2,0-1.3,5.3-2.5,12
	l-0.4,2.4c-0.1,0.8-0.3,1.5-0.3,2.3c-0.1,1.5,0.2,2.9,0.6,3.9c0.7,2.2,1.7,3.2,1.8,3.2c0.1-0.1-0.7-1.2-1.3-3.3
	c-0.3-1-0.5-2.3-0.4-3.7c0-0.7,0.2-1.4,0.4-2.2l0.4-2.4C520,119.3,520.8,113.8,520.6,113.8z M487.2,97.1c0.9-1.1,1.6-1.7,1.6-1.8
	c-0.1-0.1-0.9,0.3-1.9,1.4c-1,1-2.3,2.8-2.8,5.1c-0.5,2.3,0,4.4,0.5,5.8c0.5,1.4,1.1,2.1,1.2,2.1c0.1-0.1-0.3-0.9-0.7-2.3
	c-0.4-1.4-0.7-3.4-0.3-5.5C485.2,99.9,486.3,98.2,487.2,97.1z M499.1,130.3c-0.1,1.3-0.8,1.9-0.7,1.9c0,0,0.2-0.1,0.5-0.4
	c0.3-0.3,0.6-0.8,0.7-1.5c0.2-1.5-0.6-3.4-1.9-5.1c-2.6-3.3-5.5-5.2-5.6-5.1c-0.2,0.2,2.5,2.3,5,5.5
	C498.4,127.3,499.2,129,499.1,130.3z M478.4,114.5c-0.1-0.2-2.3,1.3-3.7,4.3c-0.7,1.4-1,2.9-1,3.9c-0.1,1,0.1,1.7,0.1,1.7
	c0.2,0,0.3-2.5,1.5-5.2C476.7,116.3,478.6,114.7,478.4,114.5z M458.1,149.8c2.8-3,3.7-5.4,3.5-5.5c-0.1,0-1.1,2.3-3.9,5.1
	c-2.8,2.9-7.2,6.2-12.6,9.2c-5.3,3-10.4,5.2-14.2,6.7c-3.7,1.5-6.1,2.3-6,2.5c0,0.1,2.4-0.6,6.2-2c3.8-1.4,9-3.5,14.3-6.5
	C450.9,156.3,455.4,152.8,458.1,149.8z M121.4,78.2c-0.1-3.3,0.4-5.3,0.3-5.3c-0.1,0-0.7,2-0.8,5.3c-0.1,3.3,0.6,8,3.1,12.5
	c2.5,4.5,6.1,7.5,8.9,9.3c2.8,1.8,4.7,2.5,4.7,2.4c0.1-0.1-1.8-1-4.5-2.9c-2.6-1.9-6.1-4.9-8.5-9.2C122.2,86,121.5,81.5,121.4,78.2z
	 M213.6,48.4c0.6-2,0.8-3.9,0.7-5.5c-0.1-1.6-0.5-2.8-0.9-3.6c-0.4-0.8-0.8-1.1-0.8-1.1c-0.1,0,1.1,1.7,1.2,4.8
	c0.1,1.5-0.2,3.3-0.8,5.3c-0.6,1.9-1.6,3.9-2.8,5.9c-2.5,4-5.5,7.1-7.7,9.3c-2.2,2.2-3.6,3.5-3.6,3.6c0.1,0.1,1.6-1.1,3.9-3.2
	c2.3-2.1,5.4-5.2,7.9-9.2C212,52.5,213,50.4,213.6,48.4z M172.4,77.3c0.2,0,1.4-8.3,5.3-17.7c1.9-4.7,4.2-8.8,6-11.6
	c1.8-2.8,3.1-4.4,3-4.5c-0.1-0.1-1.5,1.5-3.5,4.2c-1.9,2.8-4.3,6.8-6.3,11.6C173.1,68.9,172.2,77.3,172.4,77.3z M153.6,186
	c0.7-3.7,0.7-6.1,0.6-6.1c-0.1,0-0.3,2.3-1.1,6c-0.8,3.6-2.2,8.7-4.8,13.7c-2.6,5.1-6,9-8.8,11.5c-2.8,2.5-4.9,3.6-4.8,3.7
	c0,0.1,2.2-0.9,5.1-3.3c2.9-2.4,6.5-6.4,9.1-11.5C151.5,194.8,152.9,189.7,153.6,186z M92.4,198.1c1.6-3.2,3.4-6,5-8.2
	c3.2-4.5,5.6-6.9,5.5-7c-0.1-0.1-2.6,2.2-6,6.7c-1.7,2.2-3.5,5-5.2,8.2c-1.6,3.3-3.1,7.1-3.6,11.4c-0.2,2.1-0.1,4.2,0.3,6.2
	c0.4,2,1,3.8,1.7,5.5c1.5,3.4,3.8,6,6,7.7c2.2,1.7,4.3,2.7,5.7,3.2c1.5,0.5,2.3,0.6,2.3,0.6c0-0.1-0.8-0.3-2.2-0.8
	c-1.4-0.6-3.4-1.6-5.5-3.3c-2.1-1.7-4.3-4.2-5.7-7.5c-1.4-3.3-2.3-7.3-1.9-11.4C89.4,205.2,90.8,201.4,92.4,198.1z"/>
</svg>
