<?xml version="1.0" encoding="utf-8"?>
<!-- Generator: Adobe Illustrator 17.1.0, SVG Export Plug-In . SVG Version: 6.00 Build 0)  -->
<!DOCTYPE svg PUBLIC "-//W3C//DTD SVG 1.1//EN" "http://www.w3.org/Graphics/SVG/1.1/DTD/svg11.dtd">
<svg version="1.1" id="Layer_1" xmlns="http://www.w3.org/2000/svg" xmlns:xlink="http://www.w3.org/1999/xlink" x="0px" y="0px"
	 viewBox="0 0 400 400" enable-background="new 0 0 400 400" xml:space="preserve">
<path fill="#3D4042" d="M225.7,103.6c1.1-0.9,2.1-1.9,3-2.7c0.4-0.4,1.7-1.3,2.3-1.2c0.7,0.1-0.2,0.6-0.4,0.9
	c-0.1,0.2-0.2,0.7-0.4,1.2c-0.4,0.7-1,2-1.4,3c-0.1,0.4-0.2,0.7-0.3,1.1c-0.1,0.4-0.2,0.8-0.3,1c-0.1,0.3-0.4,0.4-0.5,0.6
	c-0.1,0.2-0.1,0.8-0.2,0.9c-0.5,0.9-2,1.7-2.7,2.2c-0.3,0.2-0.6,0.7-1,1c-0.7,0.5-1.5,0.7-2.2,1.2c-1,0.7-1.9,1.5-3.1,2.3
	c-0.9,0.5-1.9,1.3-2.6,1.1c-0.9-0.2-2.9-2.8-2.9-4.6c0-2.6,1.7-1.4,2.8-1.9c0.8-0.4,1.5-1,2.3-1.3c0.2-0.1,0.4,0,0.6-0.1
	c0.7-0.3,1.3-1,1.9-1.4c0.4-0.2,0.8-0.1,1.1-0.3c0.1-0.1,0.2-0.2,0.3-0.3c0.1-0.2,0.3-0.3,0.4-0.4
	C223.4,105.1,224.6,104.5,225.7,103.6z M228.4,114c-1.5,0.7-2.5,1.6-3.9,2.3c-0.7,0.4-1.5,1-2.2,1.3c-0.6,0.3-0.9,0.6-1.3,0.8
	c-0.6,0.3-1.1,0.5-1.6,0.8c1-0.1,1.9-0.1,2.9-0.1c1.5,0,2.9,0.1,4.2,0.3c0.2-0.3,0.3-0.5,0.5-0.8c0.4-0.5,0.9-0.8,1.3-1.3
	c0.5-0.5,0.7-1.2,1.1-1.7c0.1-0.1,0.5-0.3,0.7-0.5c0,0,0.2-0.6,0.4-0.8c0.2-0.3,1.3-0.8,0.6-1C230.6,113.1,229.2,113.6,228.4,114z
	 M223.6,78.3c-0.4,0-0.7,0.9-0.7,1c-0.9,0.9-2,1.8-3.2,2.7c-0.8,0.7-1.6,1.4-2.4,2c-0.8,0.6-1.3,1.1-2.1,1.6c-0.6,0.4-0.9,0.6-1.3,1
	c-0.1,0.1-0.2-0.1-0.3-0.1c0,0-1.8,1.3-1.7,1.1c-0.9,1.9,1.5,3.4,2.7,3.3c1.1,0,2.1-1.1,2.8-1.8c0.4-0.3,0.8-0.6,1.1-0.9
	c0.8-0.7,1.3-1.8,2-2.7c0.4-0.5,0.7-0.7,1-1.1c0.4-0.7,1-2.1,1.3-2.8c0,0,0.1-0.8,0.1-0.7C223.1,80.1,224.5,78.3,223.6,78.3z
	 M220,94.1c-0.6,0.5-1.2,0.7-1.8,1.1c-1.1,0.7-2.1,1.9-3.1,2.5c-0.8,0.5-1.8,0.3-2,1.2c0,0.3-0.1,0.5-0.1,0.7
	c-0.1,2.9,1.8,5.5,3.7,4.5c0.5-0.3,1.1-1.4,2-2.2c0.9-0.8,1.5-1.2,2.3-2.1c0.4-0.4,1-1,1.1-1.2c0.1-0.2,0.1-0.6,0.2-0.7
	c0.2-0.2,0.5-0.2,0.7-0.4c0.1-0.2,0.5-1,0.8-1.5c0.4-0.8,0.5-1.1,0.8-1.9c0.1-0.3,0.2-0.5,0.4-0.7c0.2-0.3,0.4-0.6,0.6-1
	c0,0,0-0.5,0.1-0.7c0.3-0.9,1.5-2.3,1-2.5c0,0-0.1,0-0.2,0c-0.7,0.2-1,0.7-1.6,1.1c-1.1,0.7-2.2,1.6-3.3,2.6
	C221.1,93.2,220.6,93.7,220,94.1z M199.9,78.5c-1.1-0.5-2-0.6-3.3-1.2c-1.1-0.4-2.2-1.2-3-1.3c-0.2,0-0.5,0.1-0.6,0.1
	c-0.3-0.1-0.5-0.5-0.7-0.6c-0.5-0.3-1.1-0.4-1.6-0.7c-1-0.6-2.6-1.7-3.6-1.8c-0.4,0-0.9,0-0.9,0.6c-0.1,0.7,1.6,1.7,1.9,2
	c1.5,1.2,3,2.1,4.5,2.9c1.8,0.9,3.1,1.6,4.4,2.2c1.1,0.5,3.5,1.8,4.1,1.1c0.2-0.2,0.6-1.5,0.4-2.2C201.6,79.4,200.5,78.7,199.9,78.5
	z M202.1,45.8c-0.1,0.7-0.5,1.8-0.8,2.2c-0.3,0.4-0.5,0.3-0.6,0.7c-0.5,1.8,0.9,1.5,1.5,0.9c0.6-0.6,0.6-1.6,0.9-2.5
	c0.2-0.6,0.7-1.1,0.8-1.5c0.2-1-0.5-1.7-0.8-1.7C202.4,43.9,202.3,44.9,202.1,45.8z M211.9,68.3c-0.3,0.3-0.5,0.7-0.9,0.9
	c-0.2,0.1-0.4,0-0.6,0.1c-0.2,0.1-0.3,0.4-0.5,0.6c-0.6,0.4-1.5,0.3-1.8,0.9c-0.5,1.1,0.5,1.7,1.1,2.2c0.3,0.2,0.5,0.7,0.8,0.8
	c0.9,0.6,1.4,0.1,2,0.1c1-0.1,1.1-0.3,2.1-1c1-0.7,1.7-1.3,2.6-2.1c0.4-0.3,0.8-0.5,1.1-0.8c0.1-0.1,0.2-0.5,0.3-0.7
	c0.2-0.3,0.6-0.4,0.8-0.6c0.2-0.2,0.3-0.7,0.5-1c0.3-0.4,0.7-0.6,0.8-0.8c0.4-0.7,0.6-1.9,1-3c0.2-0.5,0.6-0.9,0.8-1.3
	c0.1-0.4,0.2-0.8,0.3-1.2c0.1-0.3,0.5-0.6,0.6-0.9c0.1-0.2,0.1-0.8,0.2-1.1c0.2-0.4,1.1-1.3,0.5-1.5c-0.1,0-0.1,0.1-0.2,0.2
	c-0.7,0.5-1.4,1.1-2.1,1.7c-0.3,0.2-0.5,0.5-0.8,0.8c-1.3,1.4-2.8,2.9-4,4.1c-0.9,0.8-1.7,1.5-2.6,2.3
	C213.1,67.6,212.4,67.9,211.9,68.3z M197.1,32.3C197.1,32.3,197.1,32.3,197.1,32.3C197.1,32.4,197.1,32.4,197.1,32.3z M202.1,87
	c-0.4-0.8-1.6-1.3-2.4-1.8c-0.2-0.1-0.3-0.4-0.5-0.6c-1-0.7-2.4-0.9-3.6-1.5c-1.8-0.9-3.5-2.7-5.3-2.4c-0.3,0-0.2,0.4-0.5,0.5
	c-0.1,0-0.4-0.2-0.6-0.2c-0.2,0-0.6,0.4-1,0.5c-0.7,0.1-1.2-0.1-1.3,0.5c0,0.3,0.6,0.9,0.8,1.2c1,1.2,2.2,1.8,3.4,2.7
	c0.7,0.5,1.4,1.4,2,1.8c1.2,0.8,2.6,1.6,3.8,2.3c0.4,0.2,0.9,0.2,1.3,0.5c0.4,0.3,0.7,0.7,1.1,0.9c0.2,0.1,0.4,0,0.7,0.1
	c0.6,0.3,1.2,1,1.5,1c0.6,0,1.4-1.5,1.3-2.9c0-0.7-0.4-1.5-0.5-2C202.3,87.4,202.2,87.1,202.1,87z M221.2,69.2
	c-1.4,1.5-2.9,2.9-4.4,4.2c-0.7,0.6-1.3,1-2,1.6c-1.3,1-2.6,2.5-4,3.2c-0.2,0.1-0.8,0-1,0.2c-0.3,0.7,0.5,2,0.8,2.2
	c0.2,0.2,0.5,0,0.7,0.1c0.2,0.1,0.4,0.6,0.5,0.7c0.6,0.6,0.5,0.8,1.1,0.8c1.7,0.1,2.4-1.4,4-2.6c1.4-1.1,2.9-2.2,3.4-3
	c0.8-1.1,1.2-2.8,1.7-4.4c0.2-0.6,0.8-1.7,1.2-2.6c0.3-0.9,1.2-3,0.5-3c-0.1,0-0.1,0.1-0.2,0.2C223.1,67.8,222.1,68.4,221.2,69.2z
	 M202.5,238.8c5.7,1,11.4,2,17.1,3c0,0,0.1,0,0.1,0c0.4-0.2,2.6-2.6,2.5-3.1c-0.1-0.6-1.6-0.8-2.2-0.8c-3.6-0.2-7.5-0.8-11.1-1.2
	c-0.9-0.1-1.7,0.3-2.5,0.4c-1.3,0.1-4.3-1.9-4.5,0.8c0,0.3,0.1,0.5,0.2,0.8C202.2,238.7,202.4,238.7,202.5,238.8z M215.6,179
	c0.4-0.1,0.8-0.5,1.1-0.6c0.3-0.1,0.6,0.1,0.9,0.1c1.4-0.2,3.4-1.1,4.7-1.6c0.4-0.2,0.9-0.2,1.1-0.3c0.2-0.2,0.3-0.6,0.5-0.7
	c0.2-0.2,0.5-0.1,0.8-0.3c0.4-0.3,0.9-1.1,1.3-1.5c0.2-0.2,0.4-0.5,0.5-0.8c-0.2,0-0.4,0-0.7,0c-2.5,0-7.4,0.6-14.6,4.5
	c0.5,0.7,0.9,1.4,1.7,1.4C213.8,179.2,214.9,179.1,215.6,179z M208.6,183.8c-0.1,1.1,0.8,2.4,1.3,3.8c0.1,0.2,0.1,0.4,0.2,0.6l0,0
	c0,0.2,0.1,0.4,0.1,0.6c0,0,0,0,0,0.1c0,0.1,0.1,0.2,0.1,0.3c1,1.9,2,0.5,3.2,0.2c0.7-0.1,1.6-0.2,2.3-0.2c0.4,0,0.7,0.3,1.1,0.2
	c0.5-0.1,1.1-0.5,1.6-0.6c1.1-0.1,2.3,0.1,3.4-0.2c0.3-0.1,0.5-0.4,0.8-0.5c1.1-0.3,2.2-0.1,3.2-0.4c0.6-0.2,1.3-0.6,1.9-0.8
	c0.4-0.2,0.7-0.5,1.1-0.7c0.1-0.1,0.4,0.1,0.5,0c0.3-0.2,0.5-0.7,0.8-0.8c0.3-0.2,0.6-0.1,0.9-0.3c0,0,0.1-0.1,0.1-0.1
	c0,0,0,0,0.1-0.1c0,0,0.1-0.1,0.1-0.1c0,0,0-0.1,0.1-0.1c0-0.1,0.1-0.1,0.2-0.2c0,0,0,0,0,0c0.3-0.4,0.6-0.8,1-1.2c0,0,0,0,0,0
	c0.1-0.1,0.2-0.2,0.3-0.3c0.6-0.6,1.5-1,2-1.7c0,0,0.2-0.8,0.2-0.8c0.2-0.4,0.5-0.1,0.4-0.5c-0.1-0.4-0.4-0.2-0.7-0.3
	c-0.4-0.1-0.8-0.1-1.2,0l0,0c0,0,0,0,0,0c-0.1,0-0.3,0.1-0.4,0.1c0,0-0.1,0-0.1,0c-0.2,0-0.3,0.1-0.5,0.1c0,0,0,0,0,0
	c-0.8,0.3-1.6,0.6-2.3,0.9c0,0-0.1,0-0.1,0c-0.2,0.1-0.4,0.2-0.6,0.2c-1.1,0.4-2.3,0.2-3.4,0.5c-0.3,0.1-0.5,0.4-0.7,0.4
	c-0.6,0.1-1.1-0.2-1.6-0.1c-0.2,0-0.5,0.3-0.7,0.3c-1.3,0.2-2.7,0.1-4,0c-0.8,0-1.7,0.3-2.4,0.2c-0.5-0.1-0.7,0.1-1.2,0.1
	c-0.3,0-0.5-0.2-0.7-0.3c-0.1,0-0.2,0-0.4,0c0,0-0.1,0-0.1,0c-0.1,0-0.2,0-0.3,0c-0.1,0-0.1,0-0.2,0c-0.1,0-0.2,0-0.3,0
	c-0.1,0-0.1,0-0.2,0c-0.1,0-0.2,0-0.3,0c0,0,0,0-0.1,0l0,0c-0.6,0.1-1.2,0.2-1.8,0.2C209.9,182.7,208.8,182.1,208.6,183.8z
	 M186.5,233.5c-0.8-0.3-1.4-0.9-2.2-1.4c-0.6-0.4-1.3-0.5-1.8-1c-0.3-0.2-0.5-0.8-0.8-1c-1.3-1-3.2-1.6-4.4-1.8
	c-0.6-0.1-2.8-0.4-3,0.5c-0.1,0.6,1.3,2.2,1.8,2.7c0.9,1,2.5,2.2,4,3.3c3.3,0.5,6.6,1.1,9.8,1.7c0,0,0,0,0-0.1
	c-0.3-1-0.5-1.4-1.1-2.1C188.1,233.8,187.4,233.8,186.5,233.5z M209.6,194.3c-0.1,0-0.2,0.1-0.4,0.2c0,0,0,0,0,0
	c-1,0.6-2.3,1.8-0.5,2.4c1,0.4,2.7,0.5,3.8,0.9c0.6,0.3,1.7,0.8,2.1,0.9c0.7,0.1,1.9-0.3,2.7-0.2c0.3,0,0.5,0.3,0.7,0.3
	c0.2,0,0.6-0.4,0.9-0.5c0.8-0.2,1.8-0.1,2.4-0.4c0.2-0.1,0.4-0.6,0.6-0.8c0.2-0.1,0.5,0,0.6-0.1c0.2-0.1,0.3-0.7,0.6-0.9
	c0.1-0.1,0.3,0,0.5-0.1c0.4-0.2,1.1-0.6,1.3-0.8c0.3-0.3,0.4-0.8,0.7-1c0.3-0.2,0.7-0.1,1-0.4c0.2-0.2,0.4-1,0.8-1.3
	c0.4-0.4,1-0.2,0.5-0.6c-0.2-0.1-0.7-0.1-0.9-0.1c-1.9,0.2-3.6,1-5.6,1.4c-1.4,0.3-2.9,0.4-4.3,0.6c-1.2,0.1-2.5,0.1-3.8,0.2
	c-0.8,0-2-0.1-3.3,0.2C209.9,194.2,209.8,194.2,209.6,194.3C209.7,194.3,209.6,194.3,209.6,194.3z M191.3,230
	c0.6,0.1,1.5-1.3,1.4-2.9c0-0.3-0.4-1.2-0.7-1.9c0,0,0-0.1,0-0.1c-0.1-0.1-0.1-0.2-0.2-0.3c0,0,0-0.1-0.1-0.1
	c-0.1-0.1-0.1-0.2-0.2-0.3c-0.6-0.7-1.7-1.5-2.6-2.3c-1.3-1.2-2.8-2.2-4.1-3c-1-0.7-2.5-1.6-3.3-1.7c-0.1,0-0.2,0.1-0.2,0.1
	c-0.9-0.1-3.4-0.9-4.5-0.9c-1.4,0.1-0.8,1.4-0.2,2.1c1.1,1.3,1.7,1.5,2.9,2.6c0.6,0.5,1.1,1.1,1.7,1.5c0.3,0.2,0.8,0.2,1.1,0.5
	c0.1,0.1,0.2,0.2,0.4,0.3c0,0,0.1,0.1,0.1,0.1c0.1,0.1,0.2,0.2,0.3,0.2c0,0,0.1,0.1,0.1,0.1c0.4,0.4,0.9,0.8,1.4,1.2c0,0,0,0,0,0
	c0.1,0.1,0.2,0.2,0.4,0.3c0,0,0,0,0,0c0.2,0.2,0.5,0.3,0.7,0.4c0.3,0.2,0.7,0,1,0.2c0.4,0.2,1.1,1.1,1.9,1.6c0.8,0.5,1.5,1,2,1.5
	C190.9,229.5,191,229.9,191.3,230z M198,121.8c0.1,0.1,0.2,0.3,0.3,0.4c0.6,0.5,1.8,1.1,2.8,1.7c0.8-0.3,1.7-0.7,2.5-1
	c0,0,0.1,0,0.1,0c-0.1-1.1-0.9-2.1-1.3-2.7c-0.4-0.7-0.7-1.5-1.1-1.9c-0.3-0.3-0.9-0.7-1.4-1c-0.3-0.2-0.6-0.4-1-0.6
	c-0.3-0.2-0.6-0.4-1-0.6c-0.5-0.3-0.9-0.5-1.4-0.5c-0.3,0-0.5,0.1-0.7,0.1c-0.5-0.2-1-0.9-1.7-1.2c-0.1,0-0.2-0.1-0.3-0.1
	c-1.8-0.6-4-1.1-5.5-1.7c-0.1,0-0.1,0.1-0.2,0.1c-0.1,0-0.8,0.2-0.8,0.1c-0.1,0.2,0.3,0.8,0.3,0.9c0.2,0.3,0.5,0.4,0.6,0.5
	c0.6,0.6,0.3,0.6,1,1.2c0.2,0.1,0.4,0.1,0.6,0.2c0.3,0.2,0.5,0.9,0.8,1.1c0.7,0.5,1.1,1,1.6,1.4c0.2,0.1,0.5,0.2,0.7,0.3
	c0.1,0,0.2,0.1,0.3,0.2c0.2,0.1,0.4,0.3,0.5,0.5c0.2,0.2,0.5,0.5,0.7,0.7c0,0,0.1,0.1,0.1,0.1c0.9,0.7,2,1.1,2.8,1.8
	C197.8,121.6,197.9,121.7,198,121.8z M193.7,123.1c-0.7-0.6-2.3-1.3-2.7-1.4c-0.7-0.1-1.2,0.3-1.8,0.5c-0.4,0.1-1.7,0.4-2.2,0.3
	c-0.8-0.1,0.4,1.3,0.6,1.5c0.6,0.7,0.3,0.7,1,1.4c0.7,0.7,1.4,0.7,2.2,1.4c0.4,0.4,0.8,1,1.3,1.5c1.6-0.9,3.3-1.8,4.9-2.5
	c-0.3-0.1-0.5-0.2-0.8-0.4C195.2,124.9,194.6,123.8,193.7,123.1z M203.2,107.2c-0.3-0.8-1.4-1.6-2-1.8c-0.2-0.1-0.4,0.1-0.6,0.1
	c-0.8-0.2-1.4-0.3-2.3-0.6c-0.1,0-0.2-0.1-0.3-0.1c-0.9-0.3-1.9-0.6-2.9-0.8c-0.9-0.2-1.4-0.8-2-1.1c-0.5-0.2-1.2-0.3-1.4-0.3
	c-0.8-0.1-1.2,0-2,0.3c-0.5,0.2-1.1,0-1.5,0.1c-0.2,0.1-0.8,0.7-0.8,0.7c0,0.2,1.2,1.6,1.2,1.6c0.5,0.6,1.3,1,2.1,1.6
	c0.2,0.1,0.3,0.3,0.5,0.4c0.6,0.4,1.2,0.8,1.7,1.1c0.3,0.2,0.6,0.7,0.8,0.9c0.1,0.1,0.4,0,0.7,0.1c0.2,0.1,0.4,0.5,0.6,0.6
	c0.2,0.1,0.4,0.2,0.6,0.2c0.3,0.1,0.7,0.2,1.1,0.4c1.1,0.6,3.2,1.3,4.5,2c0.4,0.2,0.7,0.7,0.9,0.7c0.4,0,1-1.1,1.1-1.2
	C204.1,110.1,203.7,108.3,203.2,107.2z M211.1,166.1c3.9-0.9,7.6-1.4,11.1-1.4c2.1,0,4,0.2,5.8,0.5c0,0,0-0.1,0.1-0.1
	c0.1-0.2,0.4-0.1,0.6-0.3c0.5-0.5,0.9-1.5,1.3-2.2c0.3-0.4,0.6-0.7,0.8-1.1c0.2-0.3,0.2-0.9,0.5-1.3c0.2-0.3,0.3-0.2,0.4-0.5
	c0.1-0.2,0.1-0.6,0.2-0.7c0.2-0.4,1-0.5,0.5-0.8c-0.2-0.1-0.8,0-1,0c-0.7,0.2-1.6,0.9-2.1,1.3c-1.1,0.8-2.3,1.2-3.6,1.7
	c-0.2,0.1-0.5,0.2-0.7,0.2c0,0,0,0,0,0c-1,0.3-2.1,0.5-3.3,0.8c-0.9,0.3-1.8,0.8-2.7,1c-0.7,0.1-1.4,0.5-1.8,0.5
	c-0.3,0-0.4-0.2-0.6-0.1c-0.9,0.2-2.5,1.1-3.6,1.1C212,164.8,211.2,164.4,211.1,166.1z M202.7,98c-0.1-0.5-0.1-0.9-0.2-1.2
	c-0.4-1-1.4-1.9-2.2-2.2c-0.3-0.1-0.8,0-1.1-0.1c-0.3-0.1-0.5-0.4-0.9-0.5c-0.7-0.3-1.6-0.3-2.3-0.6c-0.8-0.3-1.7-0.8-2.1-0.9
	c-0.3-0.1-0.8,0.1-1.2,0c-0.8-0.2-0.6-0.1-1.3,0.2c-0.4,0.1-0.9,0.2-1.2,0.3c-0.3,0.1-0.8,0.2-1,0.2c-1.8,0.2-1.1,1.1-0.2,1.9
	c1.3,1,2.7,1.6,3.9,2.2c0.9,0.4,2.2,1.5,3.2,2c0.2,0.1,0.6,0,0.8,0.2c0.3,0.1,0.5,0.5,0.8,0.7c0.6,0.4,1.5,0.4,2.2,0.8
	c0.2,0.1,0.3,0.4,0.5,0.6c0.5,0.3,1.4,0.7,1.8,0.6c0.7-0.2,1.1-2,1-3C203.2,98.8,202.9,98.5,202.7,98z M194.5,144.6
	c-1.2,1.1-2.4,2.2-3.6,3.4c0.4,0.3,0.8,0.5,1.2,0.7c0.2,0.1,0.3,0.2,0.5,0.3c0.7,0.5,1.6,1.1,2.4,1.5c1.1,0.6,2.2,1.5,3.2,1.9
	c0.4,0.2,0.9,0.3,1.3,0.5c0.6,0.4,2.4,1.7,2.9,1.5c1.1-0.4,0.8-2.7,0.4-4.2c-0.1-0.3-0.2-0.6-0.4-0.8l0,0h0
	c-0.4-0.7-1.1-1.1-1.9-1.4c0,0,0,0,0,0c-0.3-0.1-0.5-0.2-0.8-0.4c-1.2-0.5-2.5-1.2-3.9-2.1C195.4,145.4,195,145,194.5,144.6z
	 M208.4,51.6c-0.5,0.9-0.8,1.2-1.3,1.9c-0.2,0.3-0.4,0.9-0.7,1.2c-0.2,0.2-1.1,0.9-1.6,1.5c-0.4,0.4-1.2,0-1.5,1.2
	c-0.1,0.4,0.2,1.6,0.2,1.6c0.4,0.6,2.4,0.7,2.9,0.4c0.6-0.3,1.1-1.6,1.5-2.2c0.6-0.9,1.7-1.6,2.3-2.5c0.4-0.5,1.5-1.8,1.5-2.6
	c0-0.9-1-1.7-1.5-1.7c-0.2,0-0.5,0.5-0.8,0.5c-0.1,0-0.3-0.5-0.5-0.3C208.8,50.6,208.5,51.6,208.4,51.6z M196.9,340.1
	c-1.1-0.1-2.1-0.4-3-0.5c-1.3-0.2-2.4,0-3.3-0.2c-1.1-0.2-3-0.3-3.7-1.2c-0.3-0.3-0.6-1.9-1.5-1.5c-0.3,0.1-1.1,1.9-1.1,2.4
	c-0.1,0.4,0.3,1.1,0.2,1.6c-0.1,0.4-0.4,0.6-0.4,0.7c0-0.2,0.4,1.5,0.4,1.6c0.5,2.1,1.6,2.6,3.6,2.7c1.8,0.1,3.9,0,5.5-0.3
	c1.1-0.2,2.4-0.1,3.3-0.4c0.6-0.2,1.8-0.9,2.1-1.3c0.2-0.3,0.2-0.7,0.3-0.8c0.1-0.1,0.5-0.1,0.6-0.2c0.1-0.1,1.7-1.7,1.6-2.3
	c0,0-0.2-0.3-0.2-0.3C200.2,339.6,198,340.2,196.9,340.1z M206.2,316.5c-1.2-0.1-2.7,1-4.3,1.2c-1.2,0.2-2.4-0.1-3.6-0.1
	c-1.5,0-3.3,0-4.8-0.1c-1.1-0.1-2.2-0.8-3.4-1c-0.3-0.1-0.6,0.1-1,0c-1-0.4-1.1-1.7-2.2-1.6c-1,0.1-0.7,2.9-0.5,3.6
	c0.1,0.5,1.1,2.3,1.3,2.7c1.2,1.8,4.1,2.1,6.1,2.5c0.4,0.1,0.8,0.3,1,0.3c0.2,0,0.5-0.3,0.7-0.3c0.6,0,0.6,0.1,1.1,0
	c0.4-0.1,0.7-0.2,1.1-0.2c1-0.1,2.2,0.3,3.2,0.1c0.7-0.1,1.8-0.9,2.4-1.3c0.3-0.2,0.8-0.2,0.9-0.4c0.3-0.3,0.5-1.1,0.8-1.6
	c0.2-0.4,0.7-0.9,1-1.6C206.7,317.6,207.4,316.7,206.2,316.5z M201.4,328.8c-0.9-0.2-1.9,0.2-2.4-0.1c-0.3-0.2-0.4-0.9-0.7-1.1
	c-0.3-0.1-0.8,0-1.1-0.1c-0.8-0.2-1.6-0.4-2.1-0.5c-1.6-0.2-3.3-0.5-5-0.6c-1.3-0.1-2.4,0-3.5-0.4c-0.4-0.2-1.4-1-1.9-0.6
	c-0.4,0.2-0.7,1.5-0.9,2.1c-0.2,0.9,0.1,2.3,0.5,2.7c0.1,0.2,0.6,0.2,0.8,0.4c0.7,0.7,1,1.9,1.4,2.1c0.5,0.3,1.5,0.4,2,0.4
	c0.9,0,1.8-0.8,2.7-0.9c1.6-0.2,3.3,0.9,4.6,0.9c0.2,0,0.7-0.2,1.1-0.3c1.3-0.3,1.9-1,3-1.5C200.3,331,203.6,329.2,201.4,328.8z
	 M176.1,324c-0.1-0.7-0.7-1.7-1.5-1.8c-0.3-0.1-0.7,0.2-0.9,0.1c-0.8-0.1-1.4-0.6-2.1-0.7c-0.2,0-0.6,0-0.8-0.1
	c-0.7-0.1-1.7-0.6-2.2-0.5c-0.2,0.1-0.4,0.5-0.6,0.5c-0.2,0-0.7-0.3-1.1-0.2c-0.2,0-0.7,0.7-1.3,0.9c-0.5,0.2-1.1-0.1-1.5,0
	c-2.1,0.7,0.9,2.5,1.5,2.8c2.2,1.2,4.3,2.7,6.4,3.3c1,0.3,1.9,1.8,3,1.8c0.5,0,1.1-0.7,1.3-1.2c0.5-1.4-0.2-3.1-0.2-4
	C176,324.6,176.1,324.3,176.1,324z M165.9,310.9c1.1,1,2.1,2.1,3.3,2.9c0.3,0.2,0.6,0.1,1,0.3c0.4,0.3,0.9,1,1.6,1.4
	c0.8,0.4,1.8,1.2,2.5,1.7c0.5,0.3,2.2,1.4,2.6,1.4c0.4,0,1.2-0.9,1.3-1.1c0.4-1,0.1-1.9,0.1-2.5c-0.2-2.4-0.5-3.8-2.3-4.4
	c-1.1-0.3-2.7-0.8-3.9-1c-0.5-0.1-0.9,0.1-1.3,0.1c-0.7-0.1-1.5-0.6-2.1-0.5c-0.2,0.1-0.4,0.3-0.6,0.3c-0.7,0-1.4-0.5-2.2-0.5
	c-0.3,0,0,0.3-0.4,0.4c-0.5,0.1-0.4-0.6-0.7-0.1c-0.3,0.5,0.6,1.2,0.4,1C165.6,310.8,165.4,310.4,165.9,310.9z M175.9,336.5
	c-0.1-0.6-1.7-2.6-2-2.6c-0.2,0-0.5,0.5-0.7,0.5c-0.1,0.1-0.3-0.1-0.5-0.1c-0.7,0.2-1.5,0.5-2.3,0.4c-0.7-0.1-1.1,0-1.5,0
	c-0.8,0-1.8-0.2-2.4-0.1c-0.2,0.1-0.6,0.6-0.9,0.8c-0.5,0.4-1.2,0.7-1.9,1.1c-0.4,0.2-2.1,1.2-2.1,1.8c0,0.4,1.2,0.9,1.4,1
	c2.2,0.8,3.4,0.8,5.2,1.4c0.9,0.3,1.7,1,2.2,1.2c0.2,0.1,0.5-0.1,0.8,0.1c0.2,0.1,0.3,0.3,0.5,0.4c0.3,0.2,0.8,0.2,1,0.3
	c0.4,0.3,0.7,1.4,1.6,1.2c0.6-0.1,1.4-2.9,1.5-3.9c0-0.2-0.1-0.5-0.1-0.8C175.9,338.5,176,337.1,175.9,336.5z M210.8,275
	c-3.2-0.4-6.6,0.9-9.9,0.7c-1-0.1-1.6,0.1-2.4,0c-0.9,0-2-0.1-2.8-0.4c-0.4-0.1-1,0.1-1.8-0.2c-0.3-0.1-0.9-0.7-1.2-0.6
	c-0.2,0.1-0.8,0.9-0.9,1.6c0,0.6,0.9,3.3,1.1,3.5c1.2,2,3.8,1.4,5.6,1.4c0.9,0,2.1-0.6,2.8-0.5c0.2,0,0.4,0.3,0.6,0.2
	c0.4,0,0.7-0.3,1.1-0.4c1.1-0.3,2.3-0.7,3.2-1c0.3-0.1,0.7-0.1,1-0.2c0.3-0.2,0.6-0.7,0.9-0.9c0.5-0.5,1.3-1,1.8-1.2
	c0.3-0.1,0.6,0,0.9-0.2c0.2-0.1,0.4-0.8,0.7-1.1c0.1-0.1,0.8-0.1,0.7-0.5C212.1,275.1,211,275,210.8,275z M214.7,264.9
	c-2.2-0.7-4.6,0.7-7.1,0.6c-0.6,0-1.2-0.3-1.8-0.3c-0.6,0-1.2,0.2-1.8,0.2c-2-0.1-3.9-0.8-5.9-0.8c-0.7,0-1.6-0.2-2.3-0.6
	c-0.2-0.1-0.5-0.6-0.8-0.6c-0.7-0.1-1,1.2-0.9,2.3c0.2,1.9,2.5,3.6,4.5,3.9c0.8,0.1,1.7-0.1,2.5,0.1c1.1,0.3,1.7-0.1,3.1,0.4
	c0.4,0.1,0.8,0.5,1.4,0.5c2.1,0.2,3.6,0,5-1c0.6-0.4,1-1.2,1.5-1.7c0.6-0.6,1.2-0.8,1.7-1.2c0.2-0.2,0.4-0.8,0.7-1
	C214.9,265.3,215.7,265.2,214.7,264.9z M210.8,285.9c-1.6-0.4-2.9,0.6-4.3,0.6c-0.8,0-1.2,0.3-1.8,0.3c-0.2,0-0.3-0.2-0.5-0.2
	c-1-0.1-2.1,0.4-3.1,0.4c-0.3,0-0.5-0.2-0.8-0.2c-0.6-0.1-1.4,0.2-2.1,0.1c-0.2,0-0.4-0.2-0.6-0.2c-0.3,0-0.6,0.3-1,0.2
	c-0.1,0-0.3-0.3-0.4-0.3c-1-0.2-2.2,0.1-3.1-0.3c-0.7-0.3-1-1.3-1.6-1.4c-0.3,0-0.8,0.5-0.9,0.7c-0.4,0.9,0.1,2,0.1,2.8
	c0,0.3,0,0.7,0,0.8c0.1,0.4,0.8,1.6,1.3,2.1c2.1,2.1,6.4,1.3,8.7,1c0.8-0.1,1.4,0.1,2.1,0.1c1.4,0,2.4-0.6,3.5-0.9
	c0.4-0.1,0.7,0,0.9-0.1c0.8-0.4,2.8-2.3,3.6-3.6c0.3-0.5,0.5-1.3,0.5-1.5C211.2,285.7,211.1,285.9,210.8,285.9z M188.6,310
	c0.4,0.4,1.4,0.7,2,1.3c0.5,0.5,1.7,1.8,2.4,2c0.2,0,0.6-0.2,0.8-0.2c0.9,0,2.3,0.4,3.2,0.2c0.4,0,0.7-0.3,1-0.3
	c0.4,0,1,0.4,1.7,0.4c2.1,0,3.3-1.8,4.5-3.1c0.9-0.9,2.5-2.2,0.6-2.4c-0.9-0.1-1.9,0.4-3,0.4c-2.5,0-5.4-0.7-7.7-0.9
	c-0.6,0-1.2-0.5-1.7-0.5c-0.2,0-0.4,0.3-0.6,0.2c-0.2-0.1-0.3-0.4-0.7-0.5c-0.3-0.1-0.6,0.2-1,0.1c-1.1-0.1-2.8-1.3-3.1,0.3
	c-0.3,1.3,0.6,1.6,1,1.9C188.3,309.3,188.4,309.8,188.6,310z M207.9,297.1c-1.9,0.2-4,0.5-5.7,0.5c-3.8-0.1-7.6-1.1-11-1.7
	c-0.8-0.2-2.3-0.6-3.2-0.8c-0.3-0.1-0.6,0.1-0.7,0c-0.4-0.6,0-2.6,0.2-3.4c0.5-2.3,0.6-4.6,1.1-6.6c0.1-0.2,0.3-0.4,0.3-0.6
	c0.3-1.8,0.2-4,0.6-5.7c0.1-0.6,0.4-1.1,0.6-1.7c0.4-1.8,0.6-3.7,0.9-5.1c0.1-0.5,0.4-0.9,0.5-1.4c0.1-0.3,0-0.6,0.1-0.9
	c0.1-0.3,0.4-0.5,0.4-0.8c0-0.3-0.1-0.8,0-1c0.1-0.8,0.2-1.7,0.3-2.4c0.2-1.1,0.6-2,0.9-3.1c0.3-1.1,0.4-2.5,0.6-3.8
	c-1.5-0.4-2.9-0.8-4.4-1.2c-0.2,0.9-0.3,1.8-0.5,2.7c-1,4.1-1.7,8.4-2.7,12.6c-0.3,1.3-0.7,2.4-0.9,3.7c-0.7,4.2-1.5,8.9-2.3,13
	c-0.8,4.3-1,8.8-1.6,13.3c-0.4,2.5-0.6,4.9-0.9,7.6c-0.5,5.5-1.4,10.3-2,15c-0.1,1.1-0.3,2.3-0.4,3.3c-0.2,2.1-0.7,4.2-0.8,6.2
	c0,0.8,0,1.6-0.1,2.4c-0.3,2.3-0.3,4.3-0.3,6.5c0,0.8,0,1.6,0,2.4c0,0.7-0.2,1.4-0.2,2.1c0,0.8,0.1,1.7,0.1,2.5
	c0,0.3-0.1,0.8-0.1,1.1c-0.1,3.7,0.2,7.4,0.2,11.1c0,0.6-0.2,1.3-0.1,1.9c0.1,2.3,0.6,4.9,0.5,7c0,1.3,0.2,1.5,0.3,2.3
	c0.1,0.9-0.1,1.9-0.1,2.9c0,0.6,0.2,1.1,0.2,1.6c0,0.7-0.2,1.4-0.2,2.1c0,0.8,0.3,1.5,0.2,2.2c-0.1,0.8-0.6,1.6-0.6,2.4
	c0,0.6,1,1.7,1.7,1.8c0.7,0.2,2-0.4,2.9-0.4c0.9,0,0.8-0.2,1.3-0.8c0.6-0.7,0.5-0.9,0.8-1.9c0.2-0.5,0.5-0.8,0.5-1
	c0-0.2-0.1-1.1-0.2-1.6c-0.1-0.6-0.2-1.1-0.3-1.7c-0.3-1.8-0.3-3.7-0.4-5.6c0-1.2-0.4-2.1-0.4-2.9c0-0.5,0.3-1.3,0.3-1.6
	c0-0.5-0.3-1-0.4-1.4c0-0.2,0.1-0.4,0.1-0.5c0-1.1-0.4-2.3-0.5-3.5c0-0.3,0.1-0.6,0-0.9c-0.1-1.2-0.6-2.5-0.6-3.3
	c0-0.3,0.3-0.6,0.3-1c0-0.1-0.2-0.5-0.3-1c-0.2-1-0.5-2.1-0.5-2.7c0-0.4,0.2-0.8,0.2-1.2c0-0.5-0.2-1.1-0.3-1.6
	c0-0.8,0.2-1.7,0.1-2.5c0-0.4-0.2-0.8-0.2-1.2c0-2,0.4-4.1,0.5-6.3c0.1-2.3,0.1-4.7,0.2-6.9c0-1.1,0.3-2,0.4-3
	c0-0.4-0.1-0.8-0.1-1.2c0.1-1.9,0.8-3.5,1.1-5.4c0.2-1.4-0.1-2.9,0.2-4.3c0.2-1.2,0.7-2.4,0.9-3.7c0.1-0.5-0.1-1,0-1.6
	c0.1-2,0.8-4.2,1-5.7c0.1-0.8-0.1-1.9-0.1-2.7c0.1-1.5,0.7-3.3,0.9-5.1c0.1-1.1,0-1.8,0-2.9c0.1-1.3,0.4-3,0.7-2.6
	c0.8,1.1,1.5,2.8,2.2,3.5c1.5,1.4,3.6,0.6,5.6,1.1c0.9,0.2,1.6,0.5,2.3,0.6c1.4,0.2,3.3,0.5,4.6,0.4c0.5,0,1.4-0.2,1.7-0.3
	c0.2-0.1,0.3-0.5,0.5-0.6c0.4-0.1,0.8,0.2,1.1,0.1c0.9-0.1,1.8-1.2,2.4-1.7c0.2-0.2,0.5-0.2,0.7-0.4c0.3-0.3,2.2-2.2,2.1-2.7
	C210.3,296.9,208.3,297,207.9,297.1z M168.7,253.1c0.8,0.5,1.7,0.3,2.4,1c0.2,0.2,0.3,0.7,0.5,0.9c1.5,1.8,3.9,2.7,6,4.1
	c0.4,0.3,0.7,0.7,1.1,0.9c1.3,0.8,2.7,1.5,4,2.2c0.5,0.3,1.1,1.1,1.4,1.1c1.8,0.2,1.5-6.1,1-7c-0.1-0.1-0.1-0.2-0.2-0.3
	c-6.1-1.7-12.3-3.3-18.7-4.8c0,0.1,0.1,0.1,0.1,0.1C166.7,251.8,168,252.7,168.7,253.1z M194.1,57.3c0.2,0.1,0.5,0.1,0.7,0.1
	c0.5,0.2,2.4,1.4,2.9,1.3c0.3-0.1,0.9-1.4,1-1.9c0.1-1-0.4-2.4-0.6-3c-0.1-0.4-0.1-0.9-0.2-1.1c-0.4-0.7-1.2-0.6-1.7-0.7
	c-0.9-0.1-2-0.8-2.8-0.8c-1.3,0-2.7,0.4-3.3,1.7c-0.6,1.3-0.3,1.8,0.4,2.2c0.9,0.6,1.6,0.6,2.4,1.1
	C193.3,56.5,193.5,57.1,194.1,57.3z M186.8,65.8c0.4,0.4,0.7,0.8,1.1,1.1c1.7,1.3,3.2,2.8,4.9,4c1.2,0.8,2.7,1.3,3.9,2.1
	c0.2,0.2,0.4,0.6,0.6,0.7c0.2,0.1,0.5,0,0.8,0.2c0.4,0.3,0.7,1.2,1.3,1.1c1.6-0.4,1.5-6.7,0.6-7.6c-0.8-0.8-3.4-1.2-4.3-1.5
	c-0.4-0.2-0.9-0.6-1.4-0.9c-0.4-0.2-0.9-0.4-1.4-0.6c-1.6-0.8-2.8-2.2-4.7-2.4c0,0-0.1,0-0.1,0c-0.6-0.1-1.3,0.2-2,0.3
	c-0.4,0-1.1-0.4-1.3,0.2c-0.2,0.5,0.7,2.1,0.9,2.4C185.9,65.1,186.4,65.3,186.8,65.8z M161.6,271.9c0.3,0.3,0.5,0.8,0.8,1.1
	c0.6,0.7,1.2,1.2,1.9,1.8c1,0.9,2.1,1.9,3.1,2.7c1,0.9,1.9,1.7,3,2.6c0.7,0.5,1.3,1.2,1.8,1.6c0.6,0.4,1.3,0.7,2,1.2
	c0.3,0.3,0.5,0.8,0.8,1c0.2,0.1,0.4,0,0.6,0.1c0.3,0.2,0.6,0.6,1,0.9c0.4,0.3,1,0.5,1.2,0.7c0.4,0.4,0.4,1.1,0.9,1.2
	c1.5,0.3,2-4.4,1.3-5.9c-0.4-0.8-1-1-1.5-1.2c-0.7-0.4-1.5-1.3-2.1-1.7c-1.2-0.9-2.1-0.9-3.5-2c-2.5-1.9-5-4.4-7.4-6
	c-1-0.6-1.8-1.9-2.2-2.1c-0.1,0-0.3,0.4-0.5,0.3c-0.6-0.1-1.3-1.4-2.2-1.6c-0.2,0-0.6,0.2-0.8,0.2c-1.1-0.1-1.7-1.4-2.4-1.4
	c-0.4,0-0.8,0.2-0.9,0.7c0,0.5,1.4,2,2.1,2.7c0.9,1,1.6,2,2.3,2.6C161.1,271.7,161.4,271.7,161.6,271.9z M194.4,62.8
	c0.6,0.2,1.2,0.4,2,0.7c0.8,0.2,2.2,0.4,2.4,0.2c0.2-0.3,0.1-1.7-0.2-2.1c-0.2-0.3-1-0.5-1.5-0.8c-0.8-0.5-2.5-1.4-2.9-1.4
	c-0.6-0.1-1.1,0.3-1.8,0.3c-0.3,0-0.8-0.5-1.2-0.3c-0.2,0.1-0.5,1.1-0.5,1.3C190.8,61.5,193.4,62.5,194.4,62.8z M162.6,300
	c1,0.8,2.6,1.7,3.5,2.2c0.8,0.5,1.5,0.7,2.4,1.2c0.6,0.3,0.8,0.8,1.3,1.1c1.8,1.1,3.1,1.7,4.7,2.5c0.8,0.4,1.8,1.7,2.9,1.5
	c0.7-0.1,1.4-1.4,1.5-2.7c0-0.4-0.1-1-0.3-1.8c-0.1-0.6-0.2-1.4-0.3-1.8c-0.4-1.5-1.5-1.5-2.7-1.8c-0.8-0.2-1.5-0.8-2.2-1
	c-0.7-0.3-1.5-0.2-2.2-0.6c-0.2-0.1-0.3-0.5-0.6-0.6c-0.6-0.3-1.4-0.3-2-0.6c-0.5-0.2-0.9-0.6-1.3-0.5c-0.2,0-0.3,0.3-0.6,0.3
	c-0.4,0.1-0.9-0.1-1.3-0.1c-0.6,0.1-1.7,0.9-2.3,0.9c-0.1,0-0.4-0.2-0.4-0.2c-0.3,0.1,0,0.4-0.4,0.6c-0.3,0.2-0.6-0.3-0.6,0.2
	C161.5,299.2,162.6,299.9,162.6,300z M165.5,259.9c-0.6-0.2-1.2-0.5-1.6-0.5c-0.2,0-0.8,0.3-0.8,0.5c-0.1,0.4,0.9,1.4,1.1,1.6
	c2.9,2.9,6.3,5.5,9.4,8.2c1.9,1.6,3.7,3.2,5.6,4.6c0.6,0.4,1.8,1.1,2.3,0.8c1-0.4,0.8-1.6,0.5-2.6c-0.6-2.2-1.7-3.8-3.1-5
	c-0.5-0.4-1.2-1.1-1.6-1.4c-0.3-0.2-0.6-0.1-0.8-0.3c-0.4-0.3-0.5-0.8-0.9-1.1c-0.4-0.3-1-0.5-1.4-0.9c-1-0.7-2.6-2.3-3.7-2.6
	c-0.3-0.1-0.6,0.1-0.9,0c-0.8-0.2-1.5-1-2.3-1.1c-0.3,0-0.7,0.2-0.9,0.1C166.1,260.4,165.8,260,165.5,259.9z M186.1,25.1
	c0-0.8,0.4-1.1,0.7-1.2c0.4-0.1,2.2,0.5,0.9-0.6c-0.2-0.2-0.6-0.4-0.6-0.5c0-0.2,0.5-1.2,0.9-1.5c0.3-0.3,1.9-1,2.4-0.3
	c0.2,0.3,0.4,1.7,0.4,2.2c0,1.4-0.3,1.5,0.5,2c0.3,0.2,0.8,0.5,0.9,0.4c0.2-0.1,0.1-1.2,0.4-1.5c0.2-0.2,0.8,0.6,0.8,0.6
	c0.1,0.2,0.2,1,0.2,1.7c0,0.5,0,1.7,0,1.8c0.3,0.5,0.9-0.4,1.3-0.1c0.1,0.1,0.3,1.1,0.5,1.7c0.2,0.4,0.4,1.7,0.5,1.7
	c0.4,0.3,0.6-0.5,0.9-0.3c0.1,0.1,0.3,0.7,0.3,0.9c0,0.1-0.1,1,0,1.1c0.4,0.3,0.8-2.4,0.8-2.8c0-0.9,0.8,0.2,0.9,1
	c0,0.4,0,1.1-0.1,1.3c-0.1,0.5-0.5,1.2-0.3,1.6c-0.1-0.3,0.6,0.3,0.8,0.3c0.2,0,0.4-0.5,0.7-0.5c0.6,0,1,0.8,0.9,1.7
	c0,0.6-0.6,1.3-0.6,1.6c-0.1,0.3-0.4,1.4-0.3,1.6c0.2,0.5,0.8-1.1,1.1-1.1c0.7,0,0.5,1.6,0.7,1.7c0,0,0.8-0.2,0.9-0.1
	c0.4,0.1,0.9,0.9,0.8,1.7c0,0.8-0.6,1.1-0.9,1.8c-0.1,0.2-0.1,0.9-0.3,1.2c-0.2,0.3-0.8,0.4-1.1,0.8c-0.3,0.4-0.3,1.1-0.5,1.2
	c-0.3,0.2-1-0.3-1.3,0.1c-0.5,0.5,1.2,3.4,1.3,3.9c0.1,0.2,0.3,1.9,0.7,2c0.2,0,1.2-2,1.4-2.3c0.4-0.5,1.4-1,1.6-1.4
	c0.8-1,0.8-1.4,1.1-2.7c0.2-0.9,0.8-2,1.3-1.9c0.7,0.2,0.2,1.3,0.6,1.6c0.3,0.2,0.9-0.3,1.3-0.2c0.4,0.2,0.7,1,0.7,1.5
	c-0.1,0.5-0.4,0.5-0.7,0.9c-0.3,0.4-0.5,1.1-0.9,1.6c-0.3,0.5-0.6,0.8-0.9,1.4c-0.7,1-1.6,1.7-2.1,2.5c-0.3,0.5-0.4,1.4-0.9,1.4
	c-0.2,0-1.1-0.5-1.5-0.8c-0.2-0.2-0.7-1.2-0.9-1.1c-0.3,0.2,0.3,1.4-0.1,0.6c0.1,0.3,0.6,0.8,0.7,1.1c0.1,0.4-0.1,0.4,0.1,0.9
	c0.1,0.3,0.4,0.3,0.6,0.5c0.3,0.5,0.3,1.5,0.4,2.5c0.1,0.6,0.3,1.7,0.3,2.6c0,0.6-0.2,1.1-0.2,1.6c0,0.6,0.3,1.2,0.5,2.1
	c0.1,0.5,0.1,2,0.6,1.9c0.3-0.1,0-0.4,0.3-0.9c0.2-0.5,1-0.5,1.3-0.8c0.1-0.1,0.3-0.8,0.4-0.9c0.1-0.1,0.4,0,0.6-0.2
	c0.3-0.2,0.7-0.9,1.2-1.3c1.2-1.1,2.3-2.2,3.5-3.6c0.7-0.8,1.2-1.6,1.9-2.3c0.7-0.7,1.2-1.3,1.9-2.1c0.7-0.7,0.8-0.1,0.3,0.9
	c-0.3,0.6-0.6,0.9-0.7,1.1c0,0.4,0.4,1.3,0.6,1.9c0.2,1,0.7,1.9,0.4,3.2c-0.2,1.2-1.4,1.8-1.8,2.3c-0.6,0.6-1,1.4-1.7,2
	c-0.7,0.7-0.9,0.9-1.8,1.2c-0.4,0.1-0.7,0.5-0.9,0.6c-1.3,0.3-2.3-0.9-3.2-0.8c-0.3,0-0.2,0.4-0.8,0.6c-0.2,0.1-0.8-0.2-0.9,0
	c-0.1,0.2,0.6,3.4,0.7,3.8c0.1,0.3,0.3,0.6,0.4,0.9c0.3,1.2,0.3,2.8,0.6,4c0.3,1.3,1,2.3,1.2,3.6c0.2,1.3,0.1,2.9,0.4,4.2
	c0.1,0.5,0.4,0.7,0.6,1.3c0.2,0.6,0.3,1.9,0.5,3c0.2,1,0.7,2.2,0.7,2.8c0,0.9-0.3,1.6-0.2,2.5c0,0.4,0.2,0.5,0.3,1.1
	c0.1,0.8,0,1.8,0.1,2.6c0.1,0.7,0.4,1.5,0.5,2.3c0,0.3,0,0.7,0,1c0,0.1,0,0.2,0,0.3c0.1,0.5,0,0.4-0.1,1.2c-0.1,0.9,0.2,2.2,0.1,3
	c-0.1,0.8-0.5,1-0.6,1.6c-0.1,0.7,0.2,1.5,0.1,2.2c0,0.2,0,0.3-0.1,0.5c-0.1,0.4-0.2,0.7-0.2,1.1c-0.1,0.6-0.1,1.3-0.1,1.9
	c0,0.6,0,1.3,0,1.9c0,1.2,0.4,2.3,0.5,3.5c0,1-0.2,2.3-0.2,3.5c-0.9,0.2-1.7,0.5-2.6,0.7c0.1-2.1,0.3-4,0-5.7
	c-0.1-0.4-0.3-0.7-0.3-1.1c0-0.3,0.1-0.6,0.1-0.9c0-0.4-0.1-0.8-0.1-1.2c0-0.2,0-0.3-0.1-0.5c0-0.4,0-0.8,0-1.2c0-1.4,0-2.8-0.2-4.3
	c-0.1-1.1-0.4-2.5-0.5-3.9c0-0.3,0-0.5,0-0.8c0-1.1,0.2-2.2,0.1-3.3c0-1.9-0.3-3.5-0.5-5.4c-0.1-0.9,0-1.8-0.1-2.6
	c0-0.5-0.3-0.9-0.3-1.3c-0.1-0.5,0-1.1,0-1.6c-0.1-0.9-0.3-1.8-0.3-3c-0.1-0.7-0.1-1.4-0.1-2.2c-0.1-1.2-0.5-2.4-0.7-3.7
	c-0.2-1.5-0.1-3.1-0.6-4.6c-0.2-0.7-0.5-1.3-0.6-2c-0.1-0.8,0.1-1.6-0.1-2.4c-0.1-0.5-0.4-0.8-0.6-1.3c-0.1-0.4-0.1-1.1-0.2-1.6
	c-0.1-0.5-0.3-1-0.3-1.4c0-0.2,0.1-0.5,0.1-0.7c-0.1-0.8-0.6-1.5-0.8-2.2c-0.2-1-0.4-2.1-0.6-3.2c-0.2-0.7-0.1-1.3-0.3-2.2
	c-0.1-0.6-0.5-0.9-0.7-1.5c-0.1-0.4-0.2-1.1-0.4-1.8c-0.3-1.1-0.2-2.4-0.6-3.6c-0.2-0.5-0.5-0.9-0.5-1.4c-0.1-0.5,0.1-1,0-1.4
	c-0.1-0.6-0.3-0.2-0.6-0.9c-0.3-0.9,0.1-2.1-0.7-0.8c-0.1,0.3-0.5,0.4-0.5,0.6c0,0.4,0.7,0.7,0.8,1c0.4,0.8,0.5,2.8-0.6,3.2
	c-0.7,0.3-1.7-0.3-2.3-0.5c-0.5-0.2-1.2-0.6-1.6-0.8c-0.3-0.2-2.2-1-1.6-2.3c0.1-0.2,0.7,0,1-0.2c0.3-0.2,1.1-0.9,1-1.4
	c0-0.3-0.8-0.8-1.1-1c-0.5-0.4-1.7-0.6-1.2-2c0.1-0.2,0.8-0.6,0.9-0.6c0.5,0,1.2,0.5,1.6,0.6c0.9,0.1,1.9-0.5,2.9,0.3
	c0.1,0,0.2,0,0.2,0.1c0,0,0,0.3,0,0.3c0.1-0.1-0.1-1.7-0.1-1.7c-0.1-0.5-0.3-1.4-0.5-1.4c-0.3,0.1-0.4,1.6-1,1.6
	c-0.3,0-1.4-0.9-2.3-1.4c-0.8-0.4-2.5-0.7-2.2-2.2c0.2-1.1,1.7-0.7,2.6-0.9c0.2,0,0.5-0.3,0.7-0.3c0.7,0,1,0.6,1.2,0.2
	c0.3-0.5-0.5-1.4-0.5-1.4c-0.4-0.2-0.7,0.3-1,0.4c-0.7,0.1-3.3,0-3.2-1.4c0.1-1.4,1.7-1.4,2.4-1.8c0.1,0,0.4,0,0.6-0.1
	c0.3-0.3,0.6-2,0.5-2c0,0-0.8,0.7-0.9,0.8c-0.9,1-0.8,0.8-2.2,0c-0.9-0.5-1.9-0.7-1.8-1.9c0.1-0.6,1-1.1,1-1.4
	c0-0.5-1.6-1.2-1.9-1.4C187,26.6,186.1,25.9,186.1,25.1z M197.4,42.7c0.1,0.8,0,1.4,0.4,1.3c0.3,0,0.1-0.3,0.3-0.8
	c0.4-1,1.5-2.1,0-2.2C196.8,41,197.2,41.7,197.4,42.7z M196.7,38.6c0.9,0,0.1-2.5-0.5-2.1C195.9,36.7,196.6,38.6,196.7,38.6z
	 M165.1,289.1c1.5,0.7,2.5,1.3,3.7,1.9c0.5,0.2,1,0.2,1.5,0.4c0.7,0.4,1.3,1,1.9,1.4c0.8,0.5,1.9,0.8,2.9,1.3c1,0.5,2.2,2,3,1.9
	c0.5-0.1,1.2-1.2,1.2-2.2c0-0.7-0.6-2.3-1.1-2.8c-0.2-0.2-0.5-0.2-0.7-0.4c-0.2-0.2-0.3-0.7-0.5-0.8c-0.2-0.1-0.4,0.1-0.6,0
	c-0.2-0.1-0.4-0.5-0.7-0.7c-0.7-0.5-1.3-0.9-2-1.2c-0.4-0.2-0.8-0.3-1.1-0.5c-0.3-0.2-0.5-0.8-0.8-1c-0.8-0.5-1.9-0.8-2.7-1.3
	c-0.7-0.4-1.3-0.8-2-0.8c-0.2,0-0.3,0.2-0.5,0.2c-0.6,0-1.1-0.5-1.7-0.5c-0.5,0-0.9,0.4-1.5,0.5c-0.9,0.1-1.8-0.6-2.7-0.4
	c-0.1,0-1.2,0.7-1.2,0.8c0,0.4,1,1.1,1.1,1.1c0.9,0.7,1.9,1.4,2.7,2C163.9,288.5,164.5,288.9,165.1,289.1z M183.1,203.8
	c-0.1-0.1-0.2-0.3-0.2-0.4c-0.1-0.1-0.2-0.2-0.4-0.3c-0.2-0.2-0.4-0.3-0.6-0.5l-1.3,1.4c-0.3,0.4-0.5,0.7-0.4,1
	c0.4-0.1,0.7-0.1,1.2-0.1c0.6,0,1.4,0,2,0.2c0.5,0.1,0.9,0.3,1.2,0.5c0.1,0,0.1,0,0.2,0c0,0,0,0,0,0c-0.1-0.1-0.1-0.2-0.2-0.3
	c-0.2-0.1-0.5-0.3-0.8-0.6C183.5,204.4,183.3,204.1,183.1,203.8z M207.1,199c0,0.2,0,0.5,0,0.7c0,0.1,0,0.3,0,0.4c0,0,0.1,0,0.1,0
	c0.9,0,1.6,0.4,2,0.8c0,0,0.1,0,0.1,0c0.4,0,0.9-0.1,1.5-0.2c0.5-0.1,0.9-0.2,1.4-0.3c-0.1,0-0.1-0.1-0.2-0.1
	c-0.2-0.1-0.3-0.2-0.5-0.2c-0.3-0.1-1-0.3-1.6-0.4c-0.7-0.1-1.4-0.3-2-0.5c-0.3-0.1-0.6-0.2-0.9-0.4
	C207.1,198.9,207.1,199,207.1,199z M239.2,177.9c-0.1-0.5-0.1-1-0.3-1.4c0,0,0,0,0,0c-0.1-0.5-0.3-0.9-0.4-1.3c0,0,0,0,0,0
	c-0.2-0.4-0.4-0.8-0.6-1.2c0,0,0,0,0,0c-0.2-0.4-0.5-0.8-0.8-1.2c0,0,0,0,0,0c-0.3-0.4-0.6-0.7-1-1.1l0,0c-1.1-1-2.4-1.9-3.9-2.6
	c0,0,0,0,0,0v0c-11.2-5-34.3-0.5-59.8,21.5c-0.1,0.1-0.2,0.2-0.3,0.3c-0.5,0.5-1.1,0.9-1.6,1.4c-0.2,0.2-0.4,0.3-0.5,0.5
	c-0.5,0.4-0.9,0.9-1.4,1.3c-0.2,0.2-0.4,0.4-0.6,0.6c-0.5,0.4-0.9,0.9-1.4,1.3c-0.2,0.2-0.4,0.4-0.6,0.6c-0.7,0.6-1.3,1.3-2,1.9
	c-12.3,12.3-20.6,21.3-27.8,29.6c-0.7,0.8-0.4,1.5,0.7,1.5c1.8,0,4.6,0.1,7.4,0.3c2.8,0.2,5.6,0.5,7.3,0.7c1.1,0.2,2.5-0.4,3.3-1.2
	c1.1-1.2,2.1-2.4,3.2-3.6c0.3-0.3,0.6-0.7,0.9-1c0.9-1,1.8-2.1,2.7-3.1c0.1-0.1,0.3-0.3,0.4-0.4c1-1.1,2-2.3,3-3.4
	c0.2-0.2,0.4-0.5,0.6-0.7c0.9-1,1.8-2.1,2.8-3.1c0.1-0.1,0.1-0.1,0.2-0.2c1-1.1,2-2.2,3-3.3c0.1-0.1,0.2-0.2,0.2-0.3
	c1-1.1,1.9-2.1,2.9-3.1c0,0,0,0,0,0c2-2.2,3.9-4.3,5.9-6.3l0,0c2.8-3,5.7-5.9,8.5-8.7c20-20,35-23.5,42.3-20.6
	c0.3,0.1,0.5,0.2,0.8,0.4c0.1,0,0.2,0.1,0.2,0.1c0.2,0.1,0.5,0.3,0.7,0.4c0.1,0,0.1,0.1,0.2,0.1c0.6,0.4,1,0.8,1.5,1.3
	c0,0,0,0.1,0.1,0.1c0.2,0.2,0.3,0.4,0.5,0.7c0,0,0,0.1,0.1,0.1c0.5,0.8,0.8,1.7,1,2.6c0.9,0.3,1.6,1.1,1.8,2.1
	c0.2,0.9-0.1,1.8-0.6,2.4c-0.1,0.4-0.3,0.7-0.3,0.7s0,0,0,0c-0.5,0.8-1.2,1.3-1.8,1.8c-0.2,0.1-0.3,0.2-0.5,0.4c-1,2-2.5,4-4.7,5.8
	c0.6,0.7,0.7,1.5,0.6,1.9c0,0.4-0.3,1.4-1.4,2c-0.2,0.4-0.4,0.8-0.8,1.3c-0.4,0.3-0.7,0.5-1,0.6c-0.1,0.2-0.3,0.4-0.4,0.6
	c-0.4,0.5-1,0.8-1.5,1.1c-0.1,0.1-0.2,0.1-0.3,0.2c0,0-0.1,0.1-0.1,0.1c-0.1,0.1-0.1,0.2-0.2,0.3c0.4-0.1,0.8-0.2,1.1-0.4
	c0.3-0.1,0.6-0.3,1-0.4c0.3-0.1,0.6-0.3,0.9-0.4C236,192,239.9,184.7,239.2,177.9z M202.1,157.1c0.3,0.5,0.7,1.1,0.9,1.7
	c0-0.6,0.1-1.2,0.1-1.8c-0.3,0.1-0.5,0.1-0.8,0.1C202.3,157.1,202.2,157.1,202.1,157.1z M183.9,154.9l-3.4,3.6
	c-0.7,0.8-0.5,1.5,0.6,1.6c0.9,0.1,1.7,0.1,2.6,0.2c0.7-1,1.8-2,3-2.3c0.2,0,0.4-0.1,0.6-0.1c0.1,0,0.1,0,0.2,0
	c-0.8-0.7-1.8-1.5-2.7-2.3C184.6,155.4,184.2,155.1,183.9,154.9z M189.1,149.8c-0.1,0.1-0.3,0.1-0.4,0.2c-0.2,0.2-0.3,0.4-0.5,0.6
	c-0.8,0.8-1.7,1.7-2.5,2.5c1.5,1.3,3.3,2.9,4.4,3.7c0.5,0.4,1.1,0.5,1.5,0.8c0.5,0.3,0.8,0.9,1.2,1.1c0.3,0.1,0.6,0.1,0.8,0.2
	c0.2,0.1,0.7,0.6,0.8,0.8c0.4,0.2,1.1,0.3,1.6,0.6c1,0.6,5.4,4.2,5.1,0.7c0-0.6-0.8-2.2-1.4-2.8c-0.7-0.7-1.5-1.1-2.1-1.7
	c-0.4-0.4-0.6-1.2-1-1.6c-1-0.9-1.8-1.2-2.7-2c-1.2-0.9-2.7-1.5-3.8-2.3C189.8,150.3,189.4,150.1,189.1,149.8z M185.3,164
	c0.1,0.7,1.5,1.7,2.3,2.3c0.9,0.7,2,1.2,2.7,1.8c0.2,0.1,0.4,0.6,0.5,0.7c0.6,0.4,1.2,0.6,1.7,0.9c0,0,0.1,0.1,0.2,0.1
	c0.5,0.3,0.6,0.7,0.8,0.9c0.5,0.3,1.2,0.5,1.8,1c0.1,0.1,0.2,0.2,0.4,0.2c1.7-0.8,3.4-1.6,5-2.3c-0.3-0.8-0.7-1.5-1.1-1.8
	c-0.2-0.1-0.4-0.2-0.6-0.2l0,0h0c-0.2,0-0.5,0-0.7,0c0,0-0.1,0-0.1,0c0,0-0.1,0-0.1,0c-0.1,0-0.2,0-0.3-0.1
	c-0.2-0.1-0.5-0.5-0.7-0.6c-0.4-0.3-0.8-0.4-1.2-0.7c-0.4-0.3-0.7-0.8-1-1c-0.4-0.3-0.8-0.5-1.2-0.8c-0.1,0-0.1-0.1-0.2-0.1
	c-0.6-0.4-1.2-0.7-1.8-1c-0.7-0.4-1.4-0.8-2.1-1.3c-0.8-0.6-1.6-1.5-2.5-1.3c-0.4,0.1-1.3,0.8-1.6,1.5c-0.1,0.3-0.3,1-0.4,1.5
	c0,0,0,0,0,0c0,0.1,0,0.1,0,0.2c0,0,0,0,0,0C185.3,163.8,185.3,163.9,185.3,164z M180.5,172.5c0.4,0.6,0.3,0.5,0.7,1
	c0.2,0.3,0.5,0.5,0.8,0.8c0.1,0.1,0.3,0.3,0.4,0.4c0,0,0.1,0.1,0.1,0.1c0,0,0,0,0,0c0.9,0.9,2,1.9,3.1,2.8c1.4-0.9,2.9-1.8,4.3-2.6
	c-0.6-0.3-1.2-0.5-1.7-0.8c-0.3-0.2-0.4-0.5-0.6-0.6c-0.2-0.1-0.4,0.1-0.6,0.1c-0.5-0.1-1-0.7-1.6-1.1c0,0,0,0-0.1,0
	c-0.1-0.1-0.2-0.1-0.3-0.2c-0.4-0.2-0.8-0.3-1.1-0.4c-1.1-0.3-2.1-0.6-3-0.7c-0.2,0-0.9-0.1-0.9,0
	C179.8,171.6,180.5,172.5,180.5,172.5z M200.9,144.3C200.9,144.3,200.9,144.3,200.9,144.3c0.1,0.1,0.3,0.2,0.4,0.2
	c0,0,0.1,0,0.1,0.1c0.1,0.1,0.2,0.1,0.3,0.1c0,0,0.1,0,0.1,0c0.1,0,0.2,0,0.3,0.1c0,0,0.1,0,0.1,0c0.1,0,0.2,0,0.3-0.1
	c0.7-0.4,0.9-2.5,0.7-3.5c-0.2-0.7-1-1.9-1.5-2.4c-0.1-0.1-0.2-0.1-0.2-0.2c-1.4,1.1-2.8,2.2-4.3,3.5c0.6,0.3,1.3,0.5,2.1,0.9
	c0.1,0.1,0.3,0.2,0.5,0.3l0,0C200.1,143.7,200.5,144,200.9,144.3z M193.2,221c1.2,0.5,1.8-1.3,1.9-2c0.4-1.7,0.4-3.3,0-4.1
	c-0.8-1.5-1.9-1.7-3.2-2.3c-0.5-0.2-1-0.4-1.4-0.6c-0.6-0.3-1.3-0.6-1.8-0.9c-0.2-0.1-0.3-0.5-0.5-0.7c-0.7-0.7-1.6-0.7-2.4-1.3
	c-0.1-0.1-0.2-0.2-0.3-0.3c-0.1-0.1-0.2-0.2-0.3-0.3c0,0,0,0,0,0l0,0c-0.1-0.1-0.3-0.3-0.4-0.3c-0.2-0.1-0.5,0.1-0.8,0.1
	c-0.4-0.1-0.9-0.5-1.3-0.6c-0.4-0.1-2.4-0.3-3.2,0.2l0,0l0,0c-0.1,0-0.1,0.1-0.1,0.1c0,0,0,0,0,0c0,0-0.1,0.1-0.1,0.2
	c-0.1,0.4,0.2,0.8,0.6,1.3c1.5,1.9,3.8,3.5,5.8,5.2c0.3,0.3,0.5,0.8,0.8,1c0.2,0.2,0.6,0.2,0.7,0.3c0.4,0.3,0.6,0.9,1,1.2
	c1.2,0.9,2.7,1.5,3.8,2.4C192.4,219.8,192.8,220.8,193.2,221z M187.2,197.5c-1,1.2-2.1,2.5-3.3,3.6c0.2,0.2,0.4,0.4,0.6,0.5
	c0.5,0.5,0.7,1.1,1.1,1.5c0.2,0.2,0.5,0.2,0.7,0.4c0.2,0.2,0.3,0.5,0.5,0.7c0.2,0.2,0.5,0.2,0.7,0.4c0.9,0.7,1.6,1.8,2.1,2.3
	c0.9,0.8,2,1.4,3.2,2.2c1.3,0.9,1.7,2,2.7,0.6c0.7-0.9,0.8-1,1-2.9c0.1-1.1-0.4-1.5-0.5-2.4c-0.2-1.5-0.5-1.7-1.7-2.2
	c-0.8-0.3-1.6-1-2.5-1.4c-1.1-0.6-2.1-1.5-2.9-2.2C188.3,198,187.8,197.7,187.2,197.5z M195.9,197.6c0.7,0.4,1.2,0.9,1.7,0.9
	c0.2,0,0.9-0.4,0.9-0.5c0.3-0.5,0.5-2.7,0.4-3.9c0,0,0,0,0-0.1c0-0.1,0-0.2,0-0.3c0,0,0-0.1,0-0.1c0-0.1,0-0.2,0-0.3c0,0,0,0,0,0
	c0,0,0,0,0,0c0,0,0,0,0-0.1c0,0,0,0,0,0c0,0,0-0.1,0-0.1c0,0,0,0,0-0.1l0,0c-0.1-0.3-0.4-0.9-0.4-1c-0.6-1-1.9-1.4-3.1-1.9
	c-0.1-0.1-0.2-0.1-0.4-0.2c0,0,0,0,0,0c-0.1,0-0.1-0.1-0.2-0.1c-0.8,0.8-1.7,1.6-2.6,2.4c-0.6,0.6-1.3,1.2-1.9,1.8
	c1.4,1.1,3.2,2.4,4.5,3C195,197.4,195.5,197.4,195.9,197.6z M212.9,143.9c0.1,0.5,1,1.1,1.4,1.4c0.5,0.4,1.1,1.2,1.5,1.4
	c0.3,0.1,0.7-0.2,1-0.2c0.7,0,1.3,0,2-0.1c0.5-0.1,1.1-0.4,1.8-0.5c1.5-0.3,3.1-0.5,4.5-1c0.7-0.3,1.3-1,1.9-1.3
	c0.5-0.2,1.1-0.2,1.4-0.5c0.1-0.1,0.2-0.5,0.5-0.8c0.2-0.2,0.5-0.2,0.7-0.4c0.3-0.3,0.6-1,0.9-1.5c0.5-0.8,2.1-3.6,1.3-4
	c-0.4-0.2-1.9,0.4-2.3,0.6c-1.5,0.7-3.3,1.9-5,2.1c-0.3,0-0.5-0.1-0.8-0.1c-0.3,0.1-0.5,0.3-0.7,0.4c-1.5,0.5-3.1,0.4-4.6,0.7
	c-0.9,0.2-1.9,0.8-2.9,1.1c-0.7,0.2-1.7,0-2.1,0.5C213,142,212.8,143.3,212.9,143.9z M212.6,153.8c0,0.4,0.8,1.7,0.9,1.9
	c0.4,0.6,0.9,1.5,1.1,1.7c1.2,1.2,2.1,0.3,3.3-0.1c0.9-0.3,1.8-0.3,2.8-0.5c1.3-0.3,3-1.3,3.9-1.8c0.4-0.2,0.7-0.1,1-0.2
	c0.3-0.2,0.4-0.6,0.6-0.8c0.2-0.1,0.4,0,0.6-0.1c0.2-0.1,0.2-0.5,0.4-0.8c0.2-0.3,0.4-0.3,0.5-0.6c0-0.1,0.2-0.9,0.6-1.5
	c0.6-1,0.6-0.8,1.2-2c0.5-1.1,0.7-1.4,0.2-1.5c-0.3-0.1-1,0-1.4,0.1c-0.4,0.1-0.8,0.4-1.3,0.6c-1,0.3-1.8,1-2.5,1.3
	c-0.6,0.2-1.2,0.1-1.9,0.3c-1.1,0.2-1.7,0.6-2.8,0.6c-0.7,0-1.5,0.4-2.3,0.6c-1.2,0.3-2.4,0.6-3.4,0.8c-0.3,0.1-0.8,0-0.9,0
	C212.8,152.2,212.6,153.2,212.6,153.8z M205.9,153.9c-0.4,3.6-0.4,6.1-0.6,8.9c-0.2,1.7-0.1,3.4-0.3,5.1c1.3-0.5,2.6-0.9,3.9-1.2
	c0-0.1,0-0.2,0-0.2c0.2-1.6,0.2-3.3,0.3-5c0,0,0,0,0,0c0-0.8,0.1-1.6,0.2-2.4c0.2-1.2,0.2-1.9,0.3-2.9c0.1-2.3,0.5-4.6,0.7-6.9l0,0
	c0,0,0,0,0,0c0-0.5,0.1-0.9,0.1-1.4c0-0.1,0-0.2,0-0.3c0-0.5,0.1-1,0.1-1.5c0-0.5-0.1-1.1-0.1-1.6c0-1,0.2-2,0.2-3
	c0-0.6-0.2-1.1-0.2-1.6c0-0.9,0.3-1.9,0.3-2.9c0-0.3,0-0.6,0-0.9c0,0,0,0,0,0c0.1-1.2,0.3-2.6,0.4-3.8c-1.4,0.8-2.9,1.6-4.4,2.7
	c-0.1,1-0.1,1.9-0.1,2.8c0,1.1-0.1,1.6-0.2,2.5c-0.2,1.4,0,3.1,0.1,4.8c0,0.7,0,1.4,0,2.1c0,0.1,0,0.2,0,0.3c0,0.7,0,1.4-0.1,2.1
	l0,0c0,0.7-0.1,1.4-0.2,2.1C206,152.4,206,153.2,205.9,153.9z M202.3,222.1c0-0.4-0.1-0.7-0.1-1.2c0-0.5,0.4-1,0.4-1.5
	c0.1-0.6-0.2-1.2-0.1-1.7c0.1-0.5,0.4-0.7,0.5-1.3c0.2-1,0.1-3.1,0.1-3.8c0-1.4,0.5-2.5,0.7-3.8c0-0.2,0-0.3,0-0.5c0,0,0,0,0-0.1
	c0-0.1,0-0.2,0-0.3c0,0,0,0,0,0l0,0c0-0.6-0.2-1-0.2-1.5c0-0.9,0.2-2.8,0.4-3.5c0.1-0.6,0.5-1.1,0.7-1.7c0.2-0.7,0-1.4,0-2.3
	c0.1-1.3,0.5-2.1,0.7-3c0-0.2,0-0.5,0-0.7l0,0c0-0.1,0-0.2,0-0.3c0.1-0.4,0.3-0.6,0.3-0.9c0.1-0.6-0.2-1.3-0.2-2c0-0.1,0-0.2,0-0.3
	c0,0,0-0.1,0-0.1c0-0.1,0-0.1,0.1-0.2l0,0c0.1-0.2,0.1-0.3,0.2-0.6c0.1-0.5,0-1.1,0.1-1.7c0.1-0.6,0.4-1.2,0.5-1.8
	c0.2-1.4,0-3.1,0.3-4.4c0.1-0.8,0.6-1.5,0.7-2.4c0-0.2,0-0.3,0-0.5c-1.5,0.9-3,2-4.6,3.2c-0.1,0.4-0.1,0.7-0.2,1.1
	c-0.1,0.7-0.2,1-0.3,1.5c-0.2,1.3,0,2.7-0.1,3.9c-0.1,1-0.5,2.1-0.7,3.1c-0.1,0.7-0.1,1.4-0.1,2.1c0,0,0,0,0,0c0,1-0.1,1.9-0.2,2.7
	c-0.1,0.3-0.3,0.6-0.3,0.8c-0.4,1.6-0.3,3.4-0.5,4.8c-0.3,1.9-1,3.8-1.3,5.9c-0.2,1.6-0.5,2.9-0.7,4.4c-0.3,2-0.2,4-0.5,5.9
	c-0.1,0.4-0.3,0.6-0.3,0.9c-0.3,1.3-0.2,2.7-0.5,4c-0.1,0.6-0.3,1.5-0.4,2.3l0,0c-0.2,1-0.4,2-0.6,2.7c-0.2,0.5-0.5,0.7-0.6,1.1
	c-0.2,1,0,1.9,0,3.1c0,1-0.5,2.3-0.9,3.6c1.6,0.3,3.1,0.6,4.7,0.8c0,0,0,0,0,0c0.2-1,0.2-2.2,0.4-3.2c0.3-1.7,1.4-3.1,1.4-5
	c0-0.6-0.4-1-0.4-1.6c0-0.2,0.1-0.3,0.2-0.5l0,0c0-0.1,0.1-0.2,0.2-0.3c0-0.1,0.1-0.2,0.1-0.3c0.2-0.5,0.2-1.2,0.4-1.7
	c0.1-0.2,0.4-0.5,0.5-0.7c0.1-0.2,0-0.7,0-1C202,223.1,202.3,222.5,202.3,222.1z M228.3,204.9c0.4-0.3,1.3-2,1.5-2.5
	c0.6-1.2,2.2-3.1,0.4-3.1c-0.1,0-0.3,0-0.4,0c-0.1,0-0.1,0-0.2,0c-0.1,0-0.1,0-0.2,0c-0.1,0-0.2,0-0.3,0.1c0,0-0.1,0-0.1,0
	c-0.1,0-0.2,0.1-0.3,0.1c0,0,0,0,0,0l0,0c-0.7,0.3-1.5,0.7-2.2,0.9c-2.2,0.8-4.8,1.3-7.2,1.7c-1.3,0.2-2.7,0.1-3.9,0.3
	c-0.3,0.1-0.6,0.3-0.9,0.4c-0.5,0.1-1.2-0.1-1.9-0.1c-1.2,0.1-3,0.9-4.6,0.4c-0.2-0.1-0.5-0.7-0.9-0.5c-0.9,0.3-0.6,3.4-0.3,4.3
	c0.1,0.4,0.6,1.2,1,1.8c0,0,0.1,0.1,0.1,0.1c0,0,0.1,0.1,0.1,0.1c0,0.1,0.1,0.1,0.1,0.1c0,0,0,0,0.1,0.1c0,0.1,0.1,0.1,0.1,0.1
	c1,0.9,1.9,0.1,2.8,0c0.6-0.1,1.2,0.2,1.7,0c0.4-0.1,0.6-0.4,0.9-0.5c1.1-0.2,2.3,0,3.6-0.1c1-0.1,1.9-0.5,2.7-0.7
	c0.6-0.1,1.3,0.1,1.6-0.1c0.2-0.1,0.5-0.5,0.7-0.6c0.9-0.4,1.9-0.2,2.7-0.6c0.2-0.1,0.4-0.4,0.7-0.5c0.7-0.4,1.1-0.8,1.7-1.1
	C227.7,205,228.1,205.1,228.3,204.9z M215.7,134.7c0.1,0.2,0.2,0.4,0.3,0.5c0.5,0.6,0.9,1.5,1.4,1.6c0.5,0.1,1.5-0.4,2.2-0.6
	c1.7-0.5,3.4-1.3,4.9-1.8c1-0.3,1.8-0.8,2.9-1.3c0.8-0.4,1.6-0.5,2-0.8c0.2-0.1,0.4-0.6,0.6-0.8c0.5-0.5,1.2-0.5,1.6-0.9
	c0.1-0.1,0.3-0.5,0.5-0.8c0,0,0-0.1,0.1-0.1c-1.3-1.2-3.4-1.9-6-2c-0.4,0.2-0.8,0.5-1.2,0.6c-0.3,0.1-0.6-0.1-0.8-0.1
	c-0.4,0.1-0.7,0.4-1.1,0.5c-2,0.6-4,1-6,1.4c-0.6,0.1-1.4,0.2-2,0.4c-0.2,0.1-1.8,0.9-1.8,1.4c0,0.7,1.2,1.1,1.5,1.3
	c0.1,0.1,0.3,0.4,0.5,0.7l0,0C215.4,134.3,215.5,134.5,215.7,134.7z M226.7,213.1c0.4-0.7,0.7-0.6-0.1-0.8c-1.4-0.3-2.4,0.2-3.5,0.5
	c-0.7,0.2-1.4,0.1-2.1,0.2c-0.7,0.1-1.3,0.4-2.1,0.5c-0.2,0-0.5,0.1-0.7,0.1c-0.8-0.1-1.6,0.3-2.3,0.2c-1.5-0.2-4.3,0.7-6,0.1
	c-1.2-0.4-2.8-2.3-3.3,0c-0.4,1.7,0.6,2.9,0.8,3.9c0.2,1,0.6,2.2,1.4,2.7c1.3,0.8,3.4,0.2,4.5,0.1c0.6-0.1,1.3,0.1,1.9,0
	c1.1-0.3,2.4-1,3.5-1.3c0.8-0.2,1.7-0.7,2.2-0.6c1,0,1-0.3,1.8-0.9c0.2-0.2,0.7-0.2,0.8-0.3c0,0,0.1-0.6,0.1-0.6
	c0.1-0.2,0.4-0.2,0.6-0.4c0.1-0.2,0.2-0.5,0.3-0.7c0.5-0.7,1.2-1.1,1.6-1.5C226.4,213.9,226.5,213.5,226.7,213.1z M224.4,228.8
	c0.7-0.1,1.3,0.3,0.8-0.4c-0.2-0.3-0.4-0.2-0.7-0.4c-1.2-0.5-1.7-0.8-2.6-1c-1.1-0.2-2.3-0.6-3.3-0.7c-0.2,0-0.4,0.2-0.6,0.2
	c-1.3-0.1-3-0.8-4.6-0.8c-1.3,0-2.5-0.2-3.7-0.2c-1-0.1-1.6,0.2-2.6,0c-0.6-0.1-2.7-1.4-3.3-1.3c-0.7,0.1-0.9,2.2-0.7,3.3
	c0.4,2,3.5,2.3,4.9,2.3c2.5,0.1,4.9-0.1,7-0.5c1.2-0.2,2.3,0.2,3.4,0.2c1,0,2.5-0.1,3.3-0.2c0.5-0.1,1,0.2,1.4,0.2
	C223.5,229.4,223.5,229,224.4,228.8z M238.5,129.6C238.5,129.6,238.5,129.6,238.5,129.6c-0.2-0.4-0.4-0.9-0.6-1.2h0
	c-5.4-9.5-26.6-10.5-52.4,6.6l0,0c0,0,0,0,0,0c-1.7,1.1-3.5,2.4-5.3,3.7c0,0,0,0,0,0c-0.9,0.6-1.7,1.3-2.6,2c0,0-0.1,0.1-0.1,0.1
	c-0.8,0.7-1.7,1.3-2.5,2c0,0-0.1,0.1-0.1,0.1c-0.8,0.7-1.7,1.4-2.5,2.1c-0.1,0.1-0.3,0.2-0.4,0.3c-0.8,0.7-1.6,1.4-2.4,2.1
	c-0.1,0.1-0.1,0.1-0.2,0.2c-0.8,0.7-1.6,1.5-2.5,2.3c-0.2,0.2-0.4,0.4-0.6,0.5c-0.8,0.8-1.7,1.6-2.5,2.4c-12.3,12.3-19.9,21-27,29.3
	c-0.7,0.8-0.4,1.5,0.7,1.5c1.8,0,4.6,0.1,7.4,0.3c2.8,0.2,5.6,0.4,7.4,0.6c1.1,0.1,2.6-0.5,3.3-1.3c0.7-0.9,1.5-1.7,2.2-2.5
	c0.2-0.2,0.4-0.4,0.6-0.6c0.5-0.6,1-1.1,1.5-1.7c0.3-0.4,0.7-0.8,1-1.2c0.3-0.4,0.6-0.7,1-1.1c0.4-0.5,0.8-0.9,1.2-1.4
	c0.2-0.2,0.3-0.4,0.5-0.5c1-1.1,2-2.3,2.9-3.4c0,0,0.1-0.1,0.1-0.1c0.5-0.6,1-1.1,1.5-1.7c0.1-0.1,0.2-0.2,0.3-0.4
	c0.5-0.6,1-1.1,1.5-1.7c0,0,0,0,0,0c4.3-4.9,8.3-9.3,12.4-13.6l0,0c2.2-2.3,4.4-4.5,6.6-6.8c15.2-15.2,27.6-20.9,35.9-21.4
	c0.4,0,0.8,0,1.2,0c4.9,0,8.2,1.8,9.6,4.5l0,0c0.2,0.5,0.4,1,0.6,1.5c0,0,0,0.1,0,0.1c0.1,0.2,0.1,0.4,0.1,0.7c0,0.3,0,0.6,0,0.8
	c0,3.8-1.8,8.4-6.3,12.1c0.2,0,0.4,0.1,0.5,0.1c1.1,0.4,1.6,1.1,1.8,1.6c0.2,0.5,0.3,1,0.2,1.5c5.1-4.8,7.4-10.4,6.8-15.8
	c-0.1-0.5-0.1-0.9-0.2-1.4c0,0,0,0,0,0C238.8,130.5,238.7,130.1,238.5,129.6z M53.2,267.4c12.8-2.5,25.9-10,39.4-20.5
	c0.9-0.7,0.7-1.2-0.4-1c-2.3,0.3-6.6,0.9-13.2,2.4c-7.1,1.6-12.3,3.3-14.9,4.3c-1,0.4-2.6,1.2-3.5,1.8c-6.5,4.3-11.5,6.7-16.7,7.9
	c-34.6,8.2-35.3-33.8,16.3-55.8c14-6,50.7-16,95.8-5.8c1.1,0.2,2.6-0.2,3.3-1c1.2-1.2,3-3,4.9-4.9c1.5-1.4,2.6-2.5,3.4-3.3
	c0.8-0.8,0.6-1.6-0.5-1.8c-30.6-7.3-83.3-5-116.1,13.5C-2.9,233.6,8.4,276.3,53.2,267.4z M156.7,154.9c1.1,0.2,2.5-0.3,3.3-1.1
	c1.2-1.3,2.9-3.1,4.1-4.3c1.4-1.4,2.8-2.6,3.9-3.5c0.8-0.7,0.6-1.6-0.4-1.9c-24.2-7.6-35.7-14.2-33.2-30.1c0.2-1.1-0.5-2-1.6-1.8
	C120.2,114.4,95.5,142.3,156.7,154.9z M374.2,218.3c-1-0.4-2.2,0.1-2.7,1.1c-0.4,0.8-0.7,1.5-1.1,2.3c-0.1,0.2-0.2,0.5-0.4,0.7
	c-0.3,0.5-0.6,1-0.8,1.5c-0.1,0.3-0.3,0.5-0.4,0.8c-0.3,0.5-0.6,1-0.9,1.4c-0.1,0.2-0.3,0.4-0.4,0.7c-0.4,0.6-0.9,1.2-1.3,1.8
	c0,0-0.1,0.1-0.1,0.1c-0.5,0.6-1,1.3-1.5,1.9c-0.2,0.2-0.3,0.4-0.5,0.6c-0.4,0.4-0.7,0.8-1.1,1.2c-0.2,0.2-0.4,0.4-0.6,0.6
	c-0.4,0.4-0.8,0.8-1.1,1.2c-0.2,0.2-0.4,0.4-0.6,0.5c-0.5,0.5-1,0.9-1.5,1.4c-0.1,0.1-0.1,0.1-0.2,0.2c-0.6,0.5-1.2,1-1.8,1.5
	c-0.2,0.1-0.4,0.3-0.6,0.4c-0.4,0.3-0.9,0.7-1.3,1c-0.2,0.2-0.5,0.3-0.7,0.5c-0.4,0.3-0.9,0.6-1.3,0.9c-0.2,0.1-0.4,0.3-0.7,0.4
	c-0.6,0.4-1.1,0.7-1.7,1c-0.1,0.1-0.2,0.1-0.4,0.2c-0.7,0.4-1.4,0.8-2.1,1.1c-0.2,0.1-0.4,0.2-0.6,0.3c-0.5,0.3-1,0.5-1.6,0.8
	c-0.3,0.1-0.5,0.2-0.8,0.4c-0.5,0.2-1,0.5-1.5,0.7c-0.3,0.1-0.5,0.2-0.8,0.3c-0.6,0.2-1.2,0.5-1.8,0.7c-0.2,0.1-0.3,0.1-0.5,0.2
	c-0.8,0.3-1.6,0.6-2.4,0.8c-0.2,0.1-0.5,0.1-0.7,0.2c-0.6,0.2-1.2,0.4-1.8,0.5c-0.3,0.1-0.6,0.2-0.9,0.3c-0.6,0.2-1.1,0.3-1.7,0.5
	c-0.3,0.1-0.6,0.2-0.9,0.2c-0.6,0.2-1.3,0.3-2,0.5c-0.2,0-0.4,0.1-0.6,0.1c-0.9,0.2-1.7,0.4-2.6,0.5c-0.3,0-0.5,0.1-0.8,0.1
	c-0.6,0.1-1.3,0.2-1.9,0.3c-0.3,0.1-0.7,0.1-1,0.2c-0.6,0.1-1.2,0.2-1.8,0.3c-0.3,0-0.7,0.1-1,0.1c-0.7,0.1-1.4,0.2-2,0.3
	c-0.3,0-0.5,0.1-0.8,0.1c-0.9,0.1-1.9,0.2-2.8,0.3c-0.3,0-0.6,0-0.8,0.1c-0.7,0.1-1.4,0.1-2.1,0.2c-0.4,0-0.7,0.1-1.1,0.1
	c-0.6,0-1.3,0.1-1.9,0.1c-0.4,0-0.8,0-1.1,0.1c-0.7,0-1.4,0.1-2.1,0.1c-0.3,0-0.6,0-0.9,0c-1,0-2,0.1-3,0.1c-0.3,0-0.6,0-0.9,0
	c-0.7,0-1.4,0-2.2,0c-0.4,0-0.8,0-1.2,0c-0.6,0-1.3,0-1.9,0c-0.4,0-0.8,0-1.2,0c-0.7,0-1.4,0-2.1,0c-0.4,0-0.7,0-1.1,0
	c-1,0-2-0.1-3.1-0.1c-0.3,0-0.7,0-1,0c-0.7,0-1.5-0.1-2.2-0.1c-0.4,0-0.9-0.1-1.3-0.1c-0.6,0-1.3-0.1-1.9-0.1
	c-0.5,0-0.9-0.1-1.4-0.1c-0.7,0-1.3-0.1-2-0.1c-0.4,0-0.9-0.1-1.3-0.1c-1-0.1-2.1-0.2-3.1-0.3c-0.4,0-0.8-0.1-1.2-0.1
	c-0.7-0.1-1.4-0.1-2.1-0.2c-0.5,0-1-0.1-1.5-0.1c-0.6-0.1-1.2-0.1-1.9-0.2c-0.5-0.1-1-0.1-1.5-0.2c-0.6-0.1-1.2-0.1-1.9-0.2
	c-0.5-0.1-1-0.1-1.5-0.2c-0.8-0.1-1.6-0.2-2.4-0.3c-0.7-0.1-1.4-0.2-2.2-0.3c-0.6-0.1-1.3-0.2-1.9-0.2c-0.6-0.1-1.1-0.1-1.7-0.2
	c-0.6-0.1-1.1-0.1-1.7-0.2c-0.6-0.1-1.2-0.2-1.8-0.2c-0.5-0.1-1.1-0.1-1.6-0.2c-0.6-0.1-1.2-0.2-1.8-0.3c-0.5-0.1-1-0.1-1.5-0.2
	c-1.2-0.2-2.4-0.4-3.6-0.5c-0.4-0.1-0.8-0.1-1.3-0.2c-0.7-0.1-1.4-0.2-2.1-0.3c-0.4-0.1-0.8-0.1-1.3-0.2c-0.7-0.1-1.4-0.2-2.2-0.3
	c-0.4-0.1-0.7-0.1-1.1-0.2c-0.8-0.1-1.6-0.3-2.4-0.4c0,0,0,0-0.1,0c-3-0.5-6-1-9-1.5c-0.1,0-0.1,0-0.2,0c-1-0.2-2-0.3-3-0.5l0,0
	c-13.8-2.4-27.5-4.9-40.8-7.1l0,0c-0.6-0.1-1.1-0.2-1.6-0.3l0,0c-0.4-0.1-0.8-0.1-1.1-0.2h0c0,0,0,0-0.1,0c-1.3-0.2-2.5-0.4-3.8-0.6
	c-15.2-2.5-33.6-4.7-52.2-4.2c-24.7,0.6-50,6.1-69.1,16.9c-6.5,3.7-12.1,7.5-16.7,11.4c-0.8,0.7-0.6,1.4,0.5,1.4c0.9,0,2,0,3.3-0.1
	c1.5-0.1,2.9-0.3,3.9-0.5c1.1-0.2,2.7-0.9,3.6-1.5c4.3-2.7,9.1-5.2,14.6-7.5c9.7-4.1,31.3-9.9,57.9-9.9c12.4,0,25.9,1.6,39.8,4.6
	c1.9,0.4,3.8,0.8,5.6,1.3l0,0c16.9,3.9,32.9,8.7,49,13.2c0.8,0.2,1.6,0.4,2.3,0.7c0.6,0.2,1.2,0.3,1.8,0.5c1.3,0.4,2.5,0.7,3.8,1.1
	c0.4,0.1,0.9,0.2,1.3,0.4c1,0.3,2.1,0.6,3.1,0.9c0.4,0.1,0.8,0.2,1.3,0.3c1.3,0.4,2.7,0.7,4.1,1.1c0.4,0.1,0.7,0.2,1.1,0.3
	c1.1,0.3,2.3,0.6,3.4,0.9c0.4,0.1,0.7,0.2,1.1,0.3c1.4,0.4,2.8,0.7,4.2,1.1c0.4,0.1,0.7,0.2,1.1,0.3c1.2,0.3,2.4,0.6,3.6,0.9
	c0.3,0.1,0.6,0.2,1,0.2c1.4,0.3,2.9,0.7,4.3,1c0.4,0.1,0.7,0.2,1.1,0.2c1.3,0.3,2.5,0.6,3.8,0.8c0.3,0.1,0.6,0.1,0.9,0.2
	c1.5,0.3,3,0.6,4.5,0.9c0.4,0.1,0.7,0.1,1.1,0.2c1.3,0.3,2.7,0.5,4,0.8c0.3,0,0.5,0.1,0.8,0.1c1.5,0.3,3.1,0.5,4.6,0.8
	c0.4,0.1,0.8,0.1,1.1,0.2c1.4,0.2,2.8,0.4,4.2,0.7c0.2,0,0.4,0.1,0.7,0.1c1.6,0.2,3.2,0.5,4.8,0.7c0.4,0.1,0.8,0.1,1.2,0.2
	c1.5,0.2,3,0.4,4.5,0.5c0.2,0,0.4,0,0.6,0.1c1.7,0.2,3.3,0.4,5,0.5c0.4,0,0.8,0.1,1.2,0.1c1.6,0.1,3.2,0.3,4.8,0.4
	c0.1,0,0.3,0,0.4,0c1.7,0.1,3.5,0.2,5.2,0.3c0.4,0,0.9,0,1.3,0.1c1.7,0.1,3.5,0.2,5.2,0.2c0.1,0,0.2,0,0.2,0
	c1.8,0.1,3.7,0.1,5.5,0.2c0.5,0,0.9,0,1.4,0c1.9,0,3.8,0.1,5.7,0.1C391.2,279.4,394.4,227.3,374.2,218.3z M138.8,200.3
	c-1.9-0.3-4.9-0.7-7.8-0.9c-2.7-0.3-5.1-0.4-6.8-0.5c-1.1,0-2.6,0.6-3.3,1.4c-9.4,10.1-20.7,21.6-32.3,32.1
	c-0.8,0.7-0.6,1.1,0.5,0.9c2.1-0.4,5.7-1.1,10.5-1.8c4.9-0.7,8.6-1.1,10.7-1.3c1.1-0.1,2.6-0.8,3.4-1.5c9.1-8.6,17.5-17.5,25.7-26.6
	C140.2,201.3,139.9,200.5,138.8,200.3z M138.8,245.9c-1.9-0.3-4.9-0.7-7.8-0.9c-2.7-0.3-5.1-0.4-6.8-0.5c-1.1,0-2.6,0.6-3.3,1.4
	c-22.5,24.3-57,57.3-77,62c-26.1,6.2-32.9-16.2-12.5-37c0.8-0.8,0.6-1.5-0.4-1.8c-0.5-0.1-1.2-0.3-1.7-0.5c-0.5-0.2-1-0.3-1.4-0.5
	c-0.8-0.3-1.9,0.1-2.7,0.9C3.4,294.9,17.9,320,53.2,313c28-5.5,60.1-36.3,86.3-65.3C140.2,246.8,139.9,246,138.8,245.9z"/>
</svg>
