<?xml version="1.0" encoding="utf-8"?>
<!-- Generator: Adobe Illustrator 17.1.0, SVG Export Plug-In . SVG Version: 6.00 Build 0)  -->
<!DOCTYPE svg PUBLIC "-//W3C//DTD SVG 1.1//EN" "http://www.w3.org/Graphics/SVG/1.1/DTD/svg11.dtd">
<svg version="1.1" id="Layer_1" xmlns="http://www.w3.org/2000/svg" xmlns:xlink="http://www.w3.org/1999/xlink" x="0px" y="0px"
	 viewBox="0 0 60 60" enable-background="new 0 0 60 60" xml:space="preserve">
<g>
	<path fill="#FFFFFF" d="M20,39.1c0.2,0.1,0.4,0.1,0.6,0.2c-0.2,0.2-0.3,0.4-0.5,0.6c-0.3,0.3-0.5,0.7-0.8,1
		c-0.1,0.1-0.2,0.2-0.4,0.2c-0.1,0-0.2,0-0.3,0.1c-1.5,0.9-3,2-4.6,2.7c-0.6,0.3-1.3,0.5-1.9,0.7c-0.7,0.3-1.3,0.4-2,0.5
		c-1.3,0.2-2.2-0.4-3-1.3c-0.4-0.4-0.6-0.9-0.8-1.4c-0.1-0.2-0.1-0.5,0-0.8c0.1-0.4,0.2-0.9,0.3-1.4c-0.5-0.4-1-0.8-1.5-1.2
		c-0.3-0.2-0.4-0.5-0.7-0.8C4.4,38,4.2,37.9,4,37.7c0,0-0.1,0.1-0.1,0.1c-0.1-0.4-0.2-0.8-0.2-1.2c0.1,0,0.1-0.1,0.2-0.1
		c0,0,0,0,0-0.1c-0.1,0-0.2,0-0.5,0c0-0.3,0-0.6,0.1-0.9c0.2-0.4,0.4-0.8,0.7-1.1c0.8-0.5,1.2-1.5,2-1.9c0.8-0.5,1.5-1.2,2.4-1.4
		c1.1-0.4,2.4-0.5,3.6-0.6c1-0.1,2,0,3.1,0.1c1.3,0.1,2.6,0.3,4,0.4c0.1-0.2,0-0.3-0.2-0.4c-0.3-0.1-0.5-0.2-0.8-0.2
		c0.2-0.2,0.3-0.5,0.5-0.7c0.8-0.9,1.7-1.8,2.5-2.7c0.9-1,1.9-1.9,2.9-2.8c0.1-0.1,0.2-0.1,0.3-0.3c-1.1,0.2-2.1,0.1-3.1-0.2
		c-0.3-0.1-0.6-0.1-0.9-0.1c-0.9-0.1-1.7-0.5-2.4-1c-0.5-0.3-0.8-0.8-0.7-1.4c0.1-0.7,0.1-1.3,0.3-2c0.1-0.3,0.5-0.7,0.8-0.9
		c1-0.5,2-0.6,2.9,0.2c0.3,0.3,0.4,0.9,0.2,1.3c-0.2,0.3-0.7,0.4-1.1,0.2c-0.2-0.1-0.3-0.4-0.3-0.7c0-0.4-0.2-0.4-0.5-0.4
		c-1.7-0.1-2.1,1.6-1.7,2.7c0.1,0.1,0.3,0.2,0.4,0.3c1.2,0.6,2.5,0.7,3.8,0.8c0.7,0,1.4,0,2.1,0c0.3,0,0.5,0.1,0.5,0.5
		c0.2-0.1,0.4-0.1,0.4-0.2c0.8-0.9,1.9-1.5,2.9-2.2c0.3-0.2,0.5-0.4,0.9-0.4c0.4,0,0.8-0.4,1.2-0.6c0.1-0.1,0.3-0.2,0.4-0.3
		c-0.1,0-0.1-0.1-0.2-0.1c-0.2,0-0.5,0.1-0.6-0.1c-0.2-0.2-0.4-0.5-0.4-0.7c0-0.5-0.3-0.9-0.6-1.3c-0.2-0.3-0.4-0.6-0.7-0.8
		c-0.3-0.2-0.6-0.3-0.9-0.4c-0.4-0.1-0.8,0-1.1-0.5c-0.3-0.5-0.3-0.9,0.1-1.3c0,0,0,0,0,0c0.7-1.1,1.8-1.3,3-1.3
		c0.5,0,1.1-0.2,1.7-0.3c0.3,0,0.7,0,1,0c1.4,0.2,2.6,0.9,3.7,1.8c0.4,0.3,0.4,1.3-0.1,1.6c-0.4,0.3-0.8,0.5-1.3,0.8
		c0,0,0,0.1,0,0.1c0.2-0.1,0.5-0.2,0.7-0.2c-0.1,0.3-0.1,0.5-0.2,0.8c0,0.1-0.2,0.1-0.3,0.2c-0.1,0.1-0.3,0.1-0.4,0.2
		c-0.4,0.2-0.4,0.3-0.1,0.7c0.1,0.1,0.1,0.2,0.2,0.2c-0.3,0.3-0.6,0.5-1.1,0.3c-0.5-0.2-1.1-0.1-1.7,0c-0.1,0-0.2,0.2-0.2,0.3
		c0.6,0,1.2,0.2,1.8,0.1c1-0.1,1.8,0.2,2.5,0.9c0.1,0.1,0.2,0.4,0.2,0.5c-0.1,0.4-0.2,0.8-0.4,1.2c-0.2,0.7-1.2,1.4-2,1.4
		c0,0.2-0.1,0.4-0.1,0.6c0,0.2,0,0.4,0,0.6c0,0.2-0.3,0.5,0.1,0.6c-0.1,0.2-0.2,0.3-0.4,0.5c0.2,0,0.3,0,0.4,0c0,0.2,0.1,0.4,0,0.5
		c-0.3,0.5-0.6,0.9-1,1.4c-0.8-0.6-1.3,0.1-1.8,0.6c0.7-0.1,1.4-0.2,2.1-0.3c1-0.1,1.8,0.3,2.2,1.2c0.1,0.3,0.4,0.5,0.4,0.8
		c-0.1,0.7-0.2,1.5-0.4,2.2c-0.1,0.3-0.3,0.5-0.5,0.7c-0.1,0.1-0.1,0.2-0.2,0.3c-0.3,0.2-0.7,0.3-1,0.4c0-0.3-0.1-0.7-0.1-1
		c0-0.2,0-0.4,0.1-0.5c-0.1,0-0.1,0-0.2,0c-0.1,0.3-0.2,0.6-0.2,1c-0.1,0.6-0.1,1.2-0.1,1.9c0,0.5-0.1,1-0.2,1.5
		c0,0.2-0.2,0.5-0.3,0.7c0,0.1,0.1,0.3,0.1,0.5c-0.2,0.1-0.4,0.1-0.6,0.1c-0.9,0-1.7,0-2.7,0c0.2,0.1,0.3,0.1,0.4,0.1
		c1.7,0.1,3.4,0.2,5.2,0.3c0.4,0,0.9,0.1,1.3,0.1c0.6,0,1.3,0.1,1.9,0c0.8,0,1.7-0.1,2.5-0.1c0.5,0,0.9-0.1,1.4-0.1
		c0.7,0,1.4,0.1,2,0c0.8,0,1.6,0,2.3-0.1c0.5-0.1,1.1-0.2,1.6-0.3c0.8-0.2,1.5-0.3,2.3-0.6c0.7-0.2,1.5-0.5,2-1.1
		c0.7-0.6,0.9-1.4,1-2.3c0-0.2,0.1-0.4,0.2-0.6c-0.1-0.4-0.4-0.6-0.8-0.9c-0.6-0.4-0.9-0.1-1.4,0.1c-0.2,0.1-0.5,0.2-0.8,0.3
		c0.7,0,1.2,0.5,1.2,1.2c0,0.5-0.5,1-1.1,1c-0.9,0-1.3-0.4-1.4-1.4c0,0.4,0.1,0.7,0.1,1.1c0,0,0,0-0.1,0c-0.1-0.1-0.1-0.2-0.2-0.3
		c-0.2-0.7-0.2-1.3,0-2c0-0.1,0.1-0.1,0.1-0.2c0.5-0.3,0.5-0.8,0.6-1.4c0.8,0,1.6-0.1,2.4-0.1c0.1,0,0.1,0,0.2,0.1
		c0.6,0.3,1.3,0.5,1.8,0.9c0.3,0.2,0.5,0.5,0.7,0.7c1.1,1.4,1.2,1.8,1.6,3.4c-0.3,0.6-0.5,1-0.7,1.5c-0.3,0.7-0.6,1.4-1.4,1.7
		c0,0-0.1,0-0.1,0c-0.6,0.6-1.4,0.8-2.1,1.1c-0.6,0.2-1.1,0.4-1.8,0.4c-1.1,0-2.1,0.1-3.2,0.2c-0.4,0-0.8,0.2-1.1,0.1
		c-0.7-0.3-1.4,0.3-2.1-0.1c-0.1,0-0.1,0-0.2,0c-0.9,0-1.9,0-2.8-0.1c-0.6,0-1.2-0.1-1.8-0.1c-0.9,0-1.8,0-2.7-0.1
		c-0.8-0.1-1.5-0.3-2.2-0.4c-1.7-0.2-3.3-0.4-5-0.6c-1.5-0.1-3.1-0.2-4.6-0.3c-1.3-0.1-2.6-0.1-3.9-0.2c-0.2,0-0.4-0.1-0.5-0.1
		c-0.2,0-0.3,0-0.5,0.1C20,39,20,39,20,39.1z M21.4,37.1c-0.1-0.1-0.2-0.2-0.3-0.2c-0.5-0.3-0.5-0.4-0.1-0.8
		c0.9-0.7,1.8-1.4,2.6-2.2c0.5-0.4,0.9-0.8,1.4-1.2c0.5-0.4,0.9-0.8,1.4-1.2c0.6-0.4,1.1-1,1.6-1.5c0.2-0.2,0.5-0.4,0.8-0.6
		c0.4-0.2,0.8-0.5,1.2-0.7c-0.6-0.3-0.7-0.5-0.7-1.1c0-0.3,0.1-0.5,0.1-0.8c0.1-0.5,0.1-1,0.2-1.5c0-0.4,0.1-0.9,0.1-1.3
		c-0.6,0.1-1.2,0.4-1.6,0c-0.5-0.4-0.7-0.2-1,0.1c-1,0.9-2,1.8-2.9,2.7c-0.9,0.9-1.7,1.8-2.5,2.7c-0.5,0.6-0.9,1.4-1.8,1.6
		c0.1,0.1,0.3,0.1,0.4,0.1c1.3,0.1,2.5,0.1,3.8,0.2c0.2,0,0.3,0,0.5,0c0.5,0.1,0.8,0.7,0.4,1.1c-0.2,0.2-0.5,0.4-0.8,0.6
		c-0.3,0.2-0.5,0.5-0.8,0.1c-0.1-0.1-0.2,0-0.3-0.1c-0.9-0.1-1.8-0.1-2.7-0.2c-0.8-0.1-1.7-0.2-2.5-0.4c-0.2,0-0.5,0-0.7-0.2
		c0-0.1-0.2-0.1-0.3-0.1c-0.7,0-1.4-0.1-2.1-0.1c-0.7,0-1.3,0-2,0c-1,0-2-0.3-3,0c-1,0.3-1.9,0.5-2.7,1.3c-0.7,0.7-1.2,1.5-1.9,2.3
		c-0.1,0.1-0.1,0.2-0.1,0.3c0.2,0.6-0.2,1.4,0.5,1.9c0.3,0.3,0.5,0.5,0.9,0.5c0.2,0.2,0.5,0.4,0.7,0.4c0.1,0,0.3-0.1,0.5-0.2
		c-0.1-0.1-0.2-0.2-0.3-0.3c0.4-0.1,0.8-0.2,0.8-0.6c0.2-0.1,0.4-0.1,0.5-0.2c0.8-0.4,1.5-0.9,2.3-1.3c0.1-0.1,0.3,0,0.5,0.1
		c0.2-0.1,0.5-0.2,0.8-0.2c0,0.2,0,0.3,0,0.3c0.1,0,0.2,0.1,0.3,0.1c0.2,0,0.5-0.1,0.7-0.1c0-0.1-0.1-0.2-0.1-0.3
		c0-0.1,0-0.2,0.1-0.3c0.7-0.8,1.5-1.5,2.2-2.3c0.2-0.2,0.5-0.4,0.7-0.6c0.1-0.1,0.3-0.1,0.5,0c0.3,0,0.6,0.1,0.8,0.2
		c0.2,0,0.4,0.1,0.5,0.2c0.1,0,0.2,0.2,0.2,0.3c0,0.1-0.1,0.2-0.2,0.2c-0.1,0.1-0.3,0.1-0.4,0.2c-0.7,0.6-1.3,1.3-2,1.9
		c-0.4,0.4-0.7,0.8-1.4,0.8c-0.1,0-0.3,0.1-0.5,0.1C14.9,36.9,20.9,37.4,21.4,37.1z M12.2,38.3c0.3,0.6,0.3,0.6-0.3,0.9
		c-0.4,0.2-0.7,0.4-1.1,0.5c-0.6,0.2-1.2,0.5-1.8,0.6c-0.4,0-0.8,0-1.1,0.2c0,0.2,0,0.3-0.1,0.5c-0.3,0.5-0.5,0.9-0.2,1.5
		c0,0.1,0,0.1,0,0.2c0.1,0.6,0.8,1.4,1.3,1.5c0.4,0.1,0.9,0.2,1.2,0.1c0.9-0.3,1.8-0.6,2.7-1c0.5-0.2,0.9-0.5,1.3-0.7
		c0.7-0.5,1.3-1,1.9-1.5c0.6-0.6,1.3-1.2,1.8-1.9c0.2-0.2,0.3-0.3,0.5-0.2c0.3,0,0.5,0,0.9,0.1C18.9,38.3,13.7,37.9,12.2,38.3z
		 M28,32.7c0,0-0.1-0.1-0.1-0.1c-0.2,0.2-0.5,0.4-0.7,0.6c-1.1,1-2.1,1.9-3.2,2.9c-0.2,0.2-0.4,0.5-0.7,0.7
		c-0.1,0.1-0.3,0.1-0.4,0.1C22.5,37,22,37,21.6,37.1c0.4,0.4,7.4,0.9,7.9,0.7c-0.1-0.1-0.2-0.1-0.3-0.1c-0.6-0.2-0.6-0.4-0.6-1
		c0-0.4,0.1-0.8,0.1-1.1c0-0.3,0-0.6,0-1c0.1-0.5,0.2-0.9,0.2-1.4c0-0.1-0.1-0.3-0.1-0.4c0,0-0.1,0-0.1,0c0,0.4-0.1,0.8-0.1,1.3
		c-0.4-0.1-0.8-0.1-1.1-0.2c-0.1,0-0.3-0.1-0.3-0.2c0-0.1,0.1-0.3,0.2-0.4C27.6,33,27.8,32.8,28,32.7z M35.6,14.8
		c-0.6-0.7-1.4-0.8-2.2-0.6c-0.3,0-0.8-0.1-0.9,0.4c0,0-0.2,0-0.2,0c-0.4-0.1-0.7-0.2-1.1-0.3c-0.1,0-0.2,0-0.3,0
		c-0.3,0.1-0.5,0.3-0.8,0.5c-0.1,0.1-0.2,0.1-0.2,0.2c0,0.1,0.1,0.2,0.2,0.2c0.3,0.1,0.6,0.3,1.1,0.3c0.6,0,1.2,0.2,1.7,0.3
		c0.1,0,0.2,0.3,0.2,0.5c0,0.1-0.2,0.3-0.2,0.3c-0.6,0-0.7,0.3-0.5,0.8c0,0.1-0.1,0.2,0,0.3c0,0.1,0.1,0.4,0.1,0.4
		c0.4,0.1,0.8,0.2,1.2,0.2c0.1,0,0.2-0.1,0.2-0.1c0.1-0.4,0.2-0.8,0.3-1.2c0-0.3,0.2-0.5,0.4-0.6c0.3-0.2,0.7-0.4,1-0.6
		c0.4-0.4,0.4-0.5,0-0.9C35.4,14.9,35.5,14.8,35.6,14.8z M31.9,37.2c0-0.5-0.1-1-0.1-1.5c0-0.8,0.1-1.6,0.3-2.3
		c0.1-0.5-0.1-1.1,0.2-1.6c0.1-0.1,0.1-0.2,0.1-0.3c-0.2-0.2-0.4-0.4-0.6-0.5c-0.7,0.2-1,0.7-0.7,1.5c0.1,0.2,0.3,0.5,0,0.5
		c0,0.3,0.1,0.5,0.1,0.7c-0.1,0.6-0.2,1.3-0.3,1.9c-0.1,0.4-0.2,0.8-0.3,1.4C30.9,37.3,31.4,37.1,31.9,37.2z M32.3,23.9
		c-1-0.1-0.9,0.6-0.9,1.2c0,0.5-0.1,1-0.1,1.5c0,0.2,0,0.4,0,0.6c0.5,0,0.9-0.1,1.3-0.1c0.1-1.7,0.2-3.3,0.3-5
		c-0.5,0.1-0.9,0.3-1.1,0.7C31.4,23.4,32,23.5,32.3,23.9z M33.5,31.7c0.2-0.1,0.4-0.1,0.5-0.2c0.4-0.2,0.9-0.4,0.9-1
		c0-1.2-0.9-1.6-1.9-1.3c-0.7,0.2-1.4,0.5-2,0.9c-0.9,0.5-2,1-2.5,2.1c0.2,0.1,0.4,0.2,0.5,0.2c0.1,0,0.1-0.3,0.2-0.4
		c0.1-0.1,0.2-0.3,0.3-0.4c0.1-0.1,0.3-0.2,0.4-0.3c0.8-0.6,1.6-1.2,2.6-1.3c0.1,0,0.3-0.1,0.3-0.2c0.3-0.3,0.4-0.3,0.6,0
		c0.1,0.2,0.2,0.5,0.2,0.7C33.7,30.9,33.6,31.3,33.5,31.7z M28.9,22.6c0.1,0,0.1,0.1,0.2,0.1c0.3,0,0.5,0,0.8-0.1
		c0.1,0,0.1-0.4,0.1-0.5c0-0.1,0.2-0.1,0.3-0.2c0.4-0.2,0.8-0.4,1.2-0.6c0.5-0.2,1-0.4,1.6-0.5c0.6-0.1,0.8,0.3,0.8,0.9
		c0,0.1,0,0.3,0,0.4c0.8,0,1.2-0.5,1.4-1.2c0-0.1-0.1-0.2-0.2-0.3c-0.3-0.2-2.1-0.3-2.4-0.1c-0.2,0.1-0.3,0.2-0.5,0.3
		c-0.6,0.3-1.3,0.6-1.9,1C29.7,22,29.3,22.4,28.9,22.6z M9.3,39.2c0.6-0.1,1.3-0.1,1.8-0.8C10.3,38.4,9.9,38.9,9.3,39.2z M51.7,30.8
		c-0.6-0.1-1.1,0-1.3,0.4C50.8,31.1,51.2,31,51.7,30.8z"/>
	<path fill="#FFFFFF" d="M32,45.1c0,0.3,0.1,0.6,0.1,0.9c-0.3,0-0.5,0-0.7,0.1c0,0,0,0.1,0,0.1c0.2,0,0.4,0.1,0.6,0.1
		c0,0.2,0.1,0.5,0.1,0.8c0,0.2-0.2,0.5-0.4,0.7c-0.3,0.4-0.6,0.8-0.8,1.2c-0.1,0.3-0.2,0.6-0.2,0.8c-0.3,0-0.6,0.1-0.8,0.1
		c-0.2,0-0.3-0.1-0.5-0.2c-0.2-0.3-0.5-0.5-0.6-0.8c-0.3-0.7-0.6-1.4-0.7-2.1c-0.1-0.5-0.1-1.1,0-1.6c0-1.1,0.1-2.1,0.2-3.2
		c0-0.1,0-0.2,0-0.3c0-0.2,0-0.5,0.1-0.7c0-0.1,0.1-0.2,0.1-0.2c0.1-0.3,0.1-0.8,0.7-0.7c0.4,0,0.7,0,1.1,0.1
		c0.4,0.1,0.8,0.2,1.3,0.3c0.5,0.1,0.9,0.5,1.1,0.9c0.3,0.6,0.3,1.2,0.1,1.8c0,0.2-0.2,0.4-0.3,0.6c0,0,0,0.1,0,0.2
		c0,0.5-0.1,0.9-0.1,1.4C32.2,45.1,32.1,45.1,32,45.1z M30.4,46.6c0,0,0.1,0,0.1,0.1c0.2-0.3,0.6-0.7,0.6-1c0.4-1.4,0.3-2.8,0.3-4.2
		c0-0.2,0-0.5-0.3-0.5c-0.4,0-0.8,0.2-0.8,0.5c0,0.3,0,0.5,0,0.8c0,0.2-0.1,0.5-0.2,0.7c0,0.3,0,0.6,0,0.8c0,0.4-0.1,0.7-0.2,1.1
		c0,0-0.1,0-0.1,0c0.1,0.2,0.4,0.3,0.5,0.6C30.4,45.9,30.4,46.2,30.4,46.6z M31.5,46.5c-0.2,0.3-0.4,0.7-0.7,1
		C31.2,47.3,31.8,47.2,31.5,46.5z"/>
</g>
</svg>
