<?xml version="1.0" encoding="utf-8"?>
<!-- Generator: Adobe Illustrator 17.1.0, SVG Export Plug-In . SVG Version: 6.00 Build 0)  -->
<!DOCTYPE svg PUBLIC "-//W3C//DTD SVG 1.1//EN" "http://www.w3.org/Graphics/SVG/1.1/DTD/svg11.dtd">
<svg version="1.1" id="Layer_1" xmlns="http://www.w3.org/2000/svg" xmlns:xlink="http://www.w3.org/1999/xlink" x="0px" y="0px"
	 viewBox="0 0 100 100" enable-background="new 0 0 100 100" xml:space="preserve">
<rect display="none" fill="#A95CA4" width="100" height="100"/>
<path display="none" fill="none" d="M73.5,29.9L73.5,29.9c0.6-0.6,1-1.1,1.5-1.6c-4.6,2.4-10.7,2.1-11.2,2.1c-0.5,0-1-0.1-1.4,0.1
	c-0.4,0.3-2.2,1-2.5,1.2s-0.4,0-0.7,0.6c-0.2,0.5-1.9,2.3-3,3.1c0,0-0.6,0.4-0.6,0.5c0.9,2.6,2.3,5.4,2.5,5.9s0.4,3.5,0.6,3.9
	c0.1,0.1,0.2,0.4,0.5,0.6c0.5,0.6-0.8,2.9-0.8,3.1c0,0.3,1.1,1,2.2,1.2c0.8,0.3,1.4-0.5,1.6-0.7c0.2,0,0.1,0.1,0.3,0.1
	c0.3,0,0.2,0,0.6-0.1c0.4-0.1,0.4-0.4,0.6-0.7c0.1,0.1,0.2,0.1,0.2,0.1c0.3,0.1,0.4,0,0.6-0.1c0.5-0.2,0.8-0.6,0.9-0.8
	c0.2-0.1,0.1-0.4,0.1-0.4l0,0c1,0.4,1.3-0.2,1.4-0.3c0.2-0.2,0.5-0.7,0.3-1l0,0c0.7,0.2,0.9,0,1-0.1c0.1-0.2,0.3-0.4,0.5-0.6
	c0.2-0.3,0.2-0.6,0.1-0.8c1,0.2,1.1-0.3,1.3-0.5c0.3-0.3,0.4-0.7,0.2-1.4l0,0c1,0,1.1-0.4,1.3-0.7c0.4-0.4,0.4-0.4,0.4-1.2l0.5-0.1
	c0.6,0,1.3-0.1,1.6-0.4c0.4-0.4,0.8-1.2,0.8-1.6v-0.1c0.2,0,0.4,0,0.6-0.1c0.7-0.1,1.4-0.6,2-1c0.5-0.4,1-1,1.3-1.1
	c0.3-0.2,0.2-0.4-0.3-0.5c0.7-0.2,1.2-0.3,1.3-0.3c0.2-0.1,0.5-0.3,1-0.6c0.4-0.3,0.8-0.8,0.9-1.1s0.1-0.2-0.7-0.3l0,0
	c0.5-0.1,0.8-0.1,1.1-0.2c0.8-0.3,1.7-1.3,2.1-1.9c0.4-0.6,0.8-0.9,1.4-1.6c-0.5,0.1-1,0.2-1.5,0.3l0,0c0.1,0,0.2-0.1,0.2-0.1
	c1-0.6,2.4-1.9,2.8-2.7c0.5-0.7,1.2-1.1,1.9-1.9C84.5,28.5,75,29.8,73.5,29.9z"/>
<path display="none" fill="none" d="M25.1,29.9L25.1,29.9c-0.6-0.6-1-1.1-1.5-1.6c4.6,2.4,10.7,2.1,11.2,2.1s1-0.1,1.4,0.1
	c0.4,0.3,2.2,1,2.5,1.2s0.4,0,0.7,0.6c0.2,0.5,1.9,2.3,3,3.1c0,0,0.6,0.4,0.6,0.5c-0.9,2.6-2.3,5.4-2.5,5.9s-0.4,3.5-0.6,3.9
	c-0.2,0.4,0.5,3.5,0.4,3.6c-0.4,0.5-0.9,0.7-1.2,0.9c-1.2,0.6-1.7,0.5-1.7,0.5c-0.7-0.2-0.9-0.6-1-0.8c-0.1,0-0.2,0-0.3,0
	c-0.3,0-0.2,0-0.6-0.1c-0.4-0.1-0.4-0.4-0.6-0.7c-0.1,0.1-0.2,0.1-0.2,0.1c-0.3,0.1-0.4,0-0.6-0.1c-0.2-0.1-0.2-0.1-0.3-0.2
	c-0.2-0.1-0.4-0.4-0.6-0.6C32.9,48.2,33,48,33,48l0,0c-1,0.4-1.3-0.2-1.4-0.3c-0.2-0.2-0.5-0.7-0.3-1l0,0c-0.7,0.2-0.9,0-1-0.1
	c-0.1-0.2-0.3-0.4-0.5-0.6c-0.2-0.3-0.2-0.6-0.1-0.8c-1,0.2-1.1-0.3-1.3-0.5c-0.3-0.3-0.4-0.7-0.2-1.4l0,0c-1,0-1.1-0.4-1.3-0.7
	c-0.4-0.4-0.4-0.4-0.4-1.2L26,41.3c-0.6,0-1.3-0.1-1.6-0.4c-0.4-0.4-0.8-1.2-0.8-1.6v-0.1c-0.2,0-0.4,0-0.6-0.1
	c-0.7-0.1-1.4-0.6-2-1c-0.5-0.4-1-1-1.3-1.1c-0.3-0.2-0.2-0.4,0.3-0.5c-0.7-0.2-1.2-0.3-1.3-0.3c-0.2-0.1-0.5-0.3-1-0.6
	c-0.4-0.3-0.8-0.8-0.9-1.1s-0.1-0.2,0.7-0.3l0,0c-0.5-0.1-0.8-0.1-1.1-0.2c-0.8-0.3-1.7-1.3-2.1-1.9c-0.4-0.6-0.8-0.9-1.4-1.6
	c0.5,0.1,1,0.2,1.5,0.3l0,0c-0.1,0-0.2-0.1-0.2-0.1c-1-0.6-2.4-1.9-2.8-2.7c-0.5-0.7-1.2-1.1-1.9-1.9C14.1,28.5,23.6,29.8,25.1,29.9
	z"/>
<path display="none" fill="none" stroke="#FFFFFF" stroke-width="0.7698" stroke-linecap="round" stroke-miterlimit="8" d="
	M55.6,35.9c0.1-0.1,0.6-0.5,0.6-0.5c1.1-0.8,2.8-2.6,3-3.1s0.4-0.4,0.7-0.6s2.1-0.9,2.5-1.2c0.4-0.3,0.9-0.1,1.4-0.1
	c0.5,0,6.6,0.2,11.2-2.1c-1,1.1-2.4,2.8-4.3,3.5"/>
<path display="none" fill="none" stroke="#FFFFFF" stroke-width="0.7698" stroke-linecap="round" stroke-miterlimit="8" d="
	M59.1,43.2l2.1,0.5c1.8,0.1,2.7-0.6,2.8-1c1.5-0.3,1.7-1.1,2.2-1.9c1.3-0.3,1.7-1.1,2.3-1.7c0.8-0.2,1.9-1.2,2.1-1.8
	c1-0.4,1.9-1.4,1.9-1.9c1.1-0.4,1.8-1.2,2.1-2c1.6-1.1,1.2-1.7,2.3-2.5c-0.7,0.3-5.1,0.5-6.3,0.7c-0.8,0.1-5.7,0.3-6.5,0.3
	c-0.8,0-0.9-0.1-1.8,0.5c-0.9,0.6-1.8,0.9-2.1,1.5S58.5,36,58,36.2"/>
<path display="none" fill="none" stroke="#FFFFFF" stroke-width="0.7698" stroke-linecap="round" stroke-miterlimit="8" d="
	M73.5,29.9c1.5-0.1,11-1.4,15.5-3.8c-0.8,0.9-1.5,1.2-1.9,1.9c-0.5,0.7-1.8,2.1-2.8,2.7s-7.8,2.1-8.7,2.1"/>
<path display="none" fill="none" stroke="#FFFFFF" stroke-width="0.7698" stroke-linecap="round" stroke-miterlimit="8" d="
	M84.1,30.7c0.4-0.1,1-0.3,1.5-0.3c-0.6,0.7-1,1-1.4,1.6s-1.3,1.6-2.1,1.9c-0.8,0.3-3.2,0.4-4.1,0.6c-0.9,0.3-4,0.6-4,0.6"/>
<path display="none" fill="none" stroke="#FFFFFF" stroke-width="0.7698" stroke-linecap="round" stroke-miterlimit="8" d="M75,39.1
	c0,0.2,0,0.3,0,0.5c-0.1,0.5-0.4,1.2-1.3,1.5c-0.2,0.1-0.5,0-0.8,0.1c-1.1,0.1-2.6,0-3.6,0"/>
<path display="none" fill="none" stroke="#FFFFFF" stroke-width="0.7698" stroke-linecap="round" stroke-miterlimit="8" d="
	M72.2,41.2c0,0.4,0,0.8-0.5,1.2c-0.4,0.4-0.4,1.2-4.3,0"/>
<path display="none" fill="none" stroke="#FFFFFF" stroke-width="0.7698" stroke-linecap="round" stroke-miterlimit="8" d="
	M70.4,43.1c0.2,0.7,0.1,1.2-0.2,1.4c-0.3,0.3-0.3,1.1-2.7,0c-2.4-1.1-1.9-0.8-1.9-0.8"/>
<path display="none" fill="none" stroke="#FFFFFF" stroke-width="0.7698" stroke-linecap="round" stroke-miterlimit="8" d="M68.9,45
	c0,0.2,0.1,0.6-0.1,0.8c-0.2,0.3-0.4,0.5-0.5,0.6s-0.5,0.4-1.5-0.1c-1.3-0.6-2.8-1.8-2.8-1.8"/>
<path display="none" fill="none" stroke="#FFFFFF" stroke-width="0.7698" stroke-linecap="round" stroke-miterlimit="8" d="
	M67.2,46.6c0.2,0.3-0.2,0.8-0.3,1c-0.1,0.2-0.5,0.9-1.8,0.1c-0.7-0.4-1.6-1.2-1.6-1.2"/>
<path display="none" fill="none" stroke="#FFFFFF" stroke-width="0.7698" stroke-linecap="round" stroke-miterlimit="8" d="M65.5,48
	c0,0,0.1,0.3-0.1,0.4c-0.2,0.1-0.4,0.5-0.6,0.6s-0.2,0.1-0.3,0.2c-0.2,0.1-0.3,0.1-0.6,0.1c-0.3-0.1-1.2-0.8-1.2-0.8"/>
<path display="none" fill="none" stroke="#FFFFFF" stroke-width="0.7698" stroke-linecap="round" stroke-miterlimit="8" d="
	M63.7,49.1c-0.2,0.3-0.1,0.6-0.6,0.7C62.7,50,62.7,50,62.5,50c-0.3,0-0.9-0.3-1.1-0.5"/>
<path display="none" fill="none" stroke="#FFFFFF" stroke-width="0.7698" stroke-linecap="round" stroke-miterlimit="8" d="M81,34.1
	c0.7,0.1,0.8,0,0.7,0.3c-0.1,0.3-0.5,0.8-0.9,1.1s-0.8,0.5-1,0.6s-5.6,1-6.9,1"/>
<path display="none" fill="none" stroke="#FFFFFF" stroke-width="0.7698" stroke-linecap="round" stroke-miterlimit="8" d="
	M78.5,36.4c0.6,0.1,0.6,0.4,0.4,0.5c-0.3,0.2-0.8,0.7-1.3,1.1c-0.5,0.4-1.3,0.8-2,1c-0.7,0.1-4.2,0.3-4.7,0.2"/>
<path display="none" fill="none" stroke="#FFFFFF" stroke-width="0.7698" stroke-linecap="round" stroke-miterlimit="8" d="M43,35.9
	c-0.1-0.1-0.6-0.5-0.6-0.5c-1.1-0.8-2.8-2.6-3-3.1s-0.4-0.4-0.7-0.6s-2.1-0.9-2.5-1.2c-0.4-0.3-0.9-0.1-1.4-0.1s-6.6,0.2-11.2-2.1
	c1,1.1,2.4,2.8,4.3,3.5"/>
<path display="none" fill="none" stroke="#FFFFFF" stroke-width="0.7698" stroke-linecap="round" stroke-miterlimit="8" d="
	M38.7,43.5l-1.4,0.2c-1.8,0.1-2.7-0.6-2.8-1c-1.5-0.3-1.7-1.1-2.2-1.9c-1.3-0.3-1.7-1.1-2.3-1.7c-0.8-0.2-1.9-1.2-2.1-1.8
	c-1-0.4-1.9-1.4-1.9-1.9c-1.1-0.4-1.8-1.2-2.1-2c-1.6-1.1-1.2-1.7-2.3-2.5c0.7,0.3,5.1,0.5,6.3,0.7c0.8,0.1,5.7,0.3,6.5,0.3
	s0.9-0.1,1.8,0.5c0.9,0.6,1.8,0.9,2.1,1.5s1.7,2.1,2.2,2.3"/>
<path display="none" fill="none" stroke="#FFFFFF" stroke-width="0.7698" stroke-linecap="round" stroke-miterlimit="8" d="
	M25.1,29.9c-1.5-0.1-11.1-1.4-15.5-3.8c0.8,0.9,1.5,1.2,1.9,1.9c0.5,0.7,1.8,2.1,2.8,2.7s7.8,2.1,8.7,2.1"/>
<path display="none" fill="none" stroke="#FFFFFF" stroke-width="0.7698" stroke-linecap="round" stroke-miterlimit="8" d="
	M14.5,30.7c-0.4-0.1-1-0.3-1.5-0.3c0.6,0.7,1,1,1.4,1.6s1.3,1.6,2.1,1.9c0.8,0.3,3.2,0.4,4.1,0.6c0.9,0.3,4,0.6,4,0.6"/>
<path display="none" fill="none" stroke="#FFFFFF" stroke-width="0.7698" stroke-linecap="round" stroke-miterlimit="8" d="
	M23.6,39.1c0,0.2,0,0.3,0,0.5c0.1,0.5,0.4,1.2,1.3,1.5c0.2,0.1,0.5,0,0.8,0.1c1.1,0.1,2.6,0,3.6,0"/>
<path display="none" fill="none" stroke="#FFFFFF" stroke-width="0.7698" stroke-linecap="round" stroke-miterlimit="8" d="
	M26.4,41.2c0,0.4,0,0.8,0.5,1.2c0.4,0.4,0.4,1.2,4.3,0"/>
<path display="none" fill="none" stroke="#FFFFFF" stroke-width="0.7698" stroke-linecap="round" stroke-miterlimit="8" d="
	M28.2,43.1c-0.2,0.7-0.1,1.2,0.2,1.4c0.3,0.3,0.3,1.1,2.7,0s1.9-0.8,1.9-0.8"/>
<path display="none" fill="none" stroke="#FFFFFF" stroke-width="0.7698" stroke-linecap="round" stroke-miterlimit="8" d="M29.7,45
	c0,0.2-0.1,0.6,0.1,0.8c0.2,0.3,0.4,0.5,0.5,0.6s0.5,0.4,1.5-0.1c1.3-0.6,2.8-1.8,2.8-1.8"/>
<path display="none" fill="none" stroke="#FFFFFF" stroke-width="0.7698" stroke-linecap="round" stroke-miterlimit="8" d="
	M31.4,46.6c-0.2,0.3,0.2,0.8,0.3,1c0.1,0.2,0.5,0.9,1.8,0.1c0.7-0.4,1.6-1.2,1.6-1.2"/>
<path display="none" fill="none" stroke="#FFFFFF" stroke-width="0.7698" stroke-linecap="round" stroke-miterlimit="8" d="M33.1,48
	c0,0-0.1,0.3,0.1,0.4c0.2,0.1,0.4,0.5,0.6,0.6c0.2,0.1,0.2,0.1,0.3,0.2c0.2,0.1,0.3,0.1,0.6,0.1c0.3-0.1,1.2-0.8,1.2-0.8"/>
<path display="none" fill="none" stroke="#FFFFFF" stroke-width="0.7698" stroke-linecap="round" stroke-miterlimit="8" d="
	M34.9,49.1c0.2,0.3,0.1,0.6,0.6,0.7c0.4,0.1,0.4,0.1,0.6,0.1c0.3,0,0.9-0.3,1.1-0.5"/>
<path display="none" fill="none" stroke="#FFFFFF" stroke-width="0.7698" stroke-linecap="round" stroke-miterlimit="8" d="
	M17.6,34.1c-0.7,0.1-0.8,0-0.7,0.3c0.1,0.3,0.5,0.8,0.9,1.1s0.8,0.5,1,0.6s5.6,1,6.9,1"/>
<path display="none" fill="none" stroke="#FFFFFF" stroke-width="0.7698" stroke-linecap="round" stroke-miterlimit="8" d="
	M20.1,36.4c-0.6,0.1-0.6,0.4-0.4,0.5c0.3,0.2,0.8,0.7,1.3,1.1c0.5,0.4,1.3,0.8,2,1c0.7,0.1,4.2,0.3,4.7,0.2"/>
<path display="none" fill="none" stroke="#0657A3" stroke-width="0.7698" stroke-linecap="round" stroke-miterlimit="8" d="
	M36.4,49.9c0.5,0.6,0.6,0.6,1,0.8c0.4,0.1,2-0.4,2.4-0.9"/>
<path display="none" fill="none" stroke="#0657A3" stroke-width="0.7698" stroke-linecap="round" stroke-miterlimit="8" d="
	M62.1,49.9c-0.5,0.6-0.6,0.6-1,0.8c-0.4,0.1-2-0.4-2.4-0.9"/>
<path display="none" fill="none" stroke="#FFFFFF" stroke-width="1.3856" stroke-miterlimit="15" d="M58.4,49.4c0,0.3,1.1,1,2.2,1.2
	c0.8,0.3,1.4-0.5,1.5-0.7c0.2,0,0.2,0,0.5,0c0.2,0,0.3,0,0.5-0.1c0.4-0.2,0.4-0.4,0.6-0.7c0.1,0.1,0.2,0.1,0.3,0.1
	c0.3,0.1,0.4,0,0.6-0.1s0.2-0.1,0.3-0.2c0.1-0.1,0.4-0.4,0.6-0.6c0.2-0.1,0-0.4,0-0.4c1,0.4,1.3-0.2,1.4-0.4
	c0.3-0.4,0.4-0.9,0.4-0.9c0.7,0.2,0.9-0.1,1-0.2c0.1-0.2,0.3-0.4,0.5-0.6c0.2-0.3,0.1-0.5,0.1-0.8c1,0.2,1.1-0.4,1.3-0.6
	c0.3-0.3,0.4-0.8,0.2-1.3V43c1.1-0.1,1.1-0.4,1.3-0.7c0.4-0.4,0.4-0.4,0.4-1.2h0.6c0.6,0,1.2-0.1,1.5-0.5c0.4-0.4,0.8-1.1,0.8-1.5
	V39c0.2,0,0.5-0.1,0.6-0.1c0.7-0.2,1.4-0.6,2-1c0.5-0.4,1-1,1.3-1.1c0.3-0.2,0.2-0.4-0.3-0.5c0.7-0.2,1.2-0.3,1.3-0.3
	c0.2-0.1,0.5-0.3,1-0.6c0.4-0.3,0.8-0.8,0.9-1.1s0.2-0.2-0.5-0.3h-0.2c0.5-0.1,0.8-0.1,1.1-0.2c0.8-0.3,1.7-1.3,2.1-1.9
	s0.8-0.9,1.4-1.6c-0.5,0.1-0.7,0.1-1.2,0.2l-0.3,0.1c0,0,0.3-0.1,0.4-0.2c1-0.6,2.2-1.8,2.7-2.6c0.5-0.7,1.2-1.1,1.9-1.9
	c-4.5,2.5-14,3.8-15.5,3.8l0,0c0.6-0.6,1.1-1.1,1.5-1.6c-4.6,2.4-10.7,2.1-11.2,2.1s-1-0.1-1.4,0.1c-0.4,0.3-2.2,1-2.5,1.2
	s-0.4,0-0.7,0.6c-0.2,0.5-1.9,2.3-3,3.1"/>
<path display="none" fill="none" stroke="#FFFFFF" stroke-width="1.3856" stroke-miterlimit="15" d="M40.2,49.4c0,0.3-1.1,1-2.2,1.2
	c-0.8,0.3-1.4-0.5-1.5-0.7c-0.2,0-0.2,0-0.5,0c-0.2,0-0.3,0-0.5-0.1c-0.4-0.2-0.4-0.4-0.6-0.7c-0.1,0.1-0.2,0.1-0.3,0.1
	c-0.3,0.1-0.4,0-0.6-0.1c-0.2-0.1-0.2-0.1-0.3-0.2c-0.1-0.1-0.4-0.4-0.6-0.6c-0.2-0.1,0-0.4,0-0.4c-1,0.4-1.3-0.2-1.4-0.4
	c-0.3-0.4-0.4-0.9-0.4-0.9c-0.7,0.2-0.9-0.1-1-0.2c-0.1-0.2-0.3-0.4-0.5-0.6c-0.2-0.3-0.1-0.5-0.1-0.8c-1,0.2-1.1-0.4-1.3-0.6
	c-0.3-0.3-0.4-0.8-0.2-1.3V43c-1.1-0.1-1.1-0.4-1.3-0.7c-0.4-0.4-0.4-0.4-0.4-1.2h-0.6c-0.6,0-1.2-0.1-1.5-0.5
	c-0.4-0.4-0.8-1.1-0.8-1.5V39c-0.2,0-0.5-0.1-0.6-0.1c-0.7-0.2-1.4-0.6-2-1c-0.5-0.4-1-1-1.3-1.1c-0.3-0.2-0.2-0.4,0.3-0.5
	c-0.7-0.2-1.2-0.3-1.3-0.3c-0.2-0.1-0.5-0.3-1-0.6c-0.4-0.3-0.8-0.8-0.9-1.1s-0.2-0.2,0.5-0.3h0.2c-0.5-0.1-0.8-0.1-1.1-0.2
	c-0.8-0.3-1.7-1.3-2.1-1.9c-0.4-0.6-0.8-0.9-1.4-1.6c0.5,0.1,0.7,0.1,1.2,0.2l0.3,0.1c0,0-0.3-0.1-0.4-0.2c-1-0.6-2.2-1.8-2.7-2.6
	c-0.5-0.7-1.2-1.1-1.9-1.9c4.5,2.5,14,3.8,15.5,3.8l0,0c-0.6-0.6-1.1-1.1-1.5-1.6c4.6,2.4,10.7,2.1,11.2,2.1s1-0.1,1.4,0.1
	c0.4,0.3,2.2,1,2.5,1.2s0.4,0,0.7,0.6c0.2,0.5,1.9,2.3,3,3.1"/>
<path display="none" fill="#010101" d="M59.8,45.6c-0.1,0.9-0.7,1.6-1.5,1.8c0.5,0.7,0.6,1.6,0.1,2.3c-0.6,1-1.8,1.3-2.9,0.8
	c-1.5-0.8-2-2.9-2.2-3.6c-0.1-0.4-0.1-0.8-0.1-1.1c0.1-0.3,0.4-0.7,0.7-0.9c0.6-0.4,2.2-1.8,3.9-1.6C59,43.5,59.9,44.4,59.8,45.6z
	 M55.5,52.9c-0.5,0.4-1,0.7-1.6,0.9c0.3-0.5,0.4-2.1,0.2-2.8c0.6,0.4,2.2,0.8,2.8,0.7C56.5,52.1,56.1,52.5,55.5,52.9z M50.4,47.7
	c0.4-0.1,0.7-0.3,1-0.5s0.6-0.5,0.8-0.8l1.1,3.4L50.4,47.7z M51.6,54.6c-0.8,0.2-1.7-0.2-2.2-0.9c-0.5,0.7-1.3,1-2.2,0.9
	c-1.1-0.2-1.8-1.3-1.6-2.5c0.3-1.7,2.2-2.8,2.7-3.2c0.3-0.2,0.7-0.4,1.1-0.4c0.4,0,0.7,0.2,1.1,0.4c0.6,0.4,2.4,1.6,2.7,3.2
	C53.4,53.3,52.7,54.4,51.6,54.6z M46.7,46.4c0.2,0.3,0.5,0.6,0.8,0.8s0.7,0.4,1,0.5l-2.9,2.1L46.7,46.4z M43.3,50.5
	c-1,0.5-2.3,0.2-2.9-0.8c-0.4-0.8-0.3-1.7,0.1-2.3c-0.8-0.2-1.4-0.9-1.5-1.8c-0.1-1.1,0.7-2.1,1.9-2.3c1.7-0.3,3.4,1.2,3.9,1.6
	c0.3,0.2,0.6,0.5,0.7,0.9c0.1,0.4,0.1,0.8-0.1,1.1C45.4,47.5,44.8,49.7,43.3,50.5z M43.4,52.9c-0.5-0.4-1-0.8-1.4-1.2
	c0.5,0.1,2.1-0.3,2.8-0.7c-0.2,0.7,0,2.3,0.2,2.8C44.4,53.6,43.9,53.3,43.4,52.9z M39.6,41.3c0.2-0.6,0.4-1.2,0.7-1.7
	c0.1,0.6,0.9,2,1.5,2.4c-0.7,0-2.2,0.7-2.6,1.1C39.3,42.5,39.4,41.9,39.6,41.3z M46.8,42.5c-0.2,0.3-0.4,0.6-0.5,1s-0.2,0.7-0.2,1.1
	l-2.8-2.1H46.8z M41.7,37.6c0.6-0.6,1.5-0.8,2.2-0.6c0-0.8,0.4-1.6,1.2-2c1.1-0.5,2.2,0,2.8,1.1c0.8,1.5-0.1,3.6-0.3,4.2
	c-0.1,0.4-0.3,0.7-0.6,1c-0.3,0.2-0.7,0.3-1.1,0.3c-0.7,0-2.9,0.2-4.1-1C41.1,39.7,41,38.4,41.7,37.6z M49.5,34.1
	c0.6,0,1.3,0.1,1.8,0.2c-0.5,0.2-1.6,1.5-1.8,2.2c-0.3-0.7-1.3-1.9-1.8-2.2C48.2,34.2,48.8,34.1,49.5,34.1z M48.8,40.3
	c0-0.4,0.3-0.6,0.6-0.6c0.4,0,0.6,0.3,0.6,0.6c0,0.4-0.3,0.6-0.6,0.6C49.1,41,48.8,40.7,48.8,40.3z M49.5,42.4
	c1.2,0,2.1,0.9,2.1,2.1c0,1.2-0.9,2.1-2.1,2.1c-1.2,0-2.1-0.9-2.1-2.1C47.4,43.3,48.3,42.4,49.5,42.4z M55.7,42.5l-2.8,2.1
	c0-0.4,0-0.7-0.2-1.1c-0.1-0.4-0.3-0.7-0.5-1H55.7z M53.7,35c0.8,0.4,1.3,1.1,1.2,2c0.8-0.3,1.7-0.1,2.2,0.6c0.8,0.9,0.7,2.1-0.2,3
	c-1.2,1.2-3.4,1-4.1,1c-0.4,0-0.8-0.1-1.1-0.3s-0.5-0.6-0.6-1c-0.2-0.6-1-2.7-0.3-4.2C51.4,35.1,52.6,34.6,53.7,35z M58.6,39.6
	c0.3,0.5,0.5,1.1,0.7,1.7c0.2,0.6,0.3,1.2,0.4,1.8c-0.4-0.4-1.9-1-2.6-1.1C57.7,41.6,58.5,40.2,58.6,39.6z M61.9,46.1l0.1-0.6
	L61.1,45l0,0c0-0.2,0-0.4,0-0.6c0-0.2,0-0.4,0-0.6l0.9-0.5l-0.1-0.6l-1-0.3l0,0c-0.1-0.4-0.1-0.7-0.2-1.1l0.8-0.6l-0.2-0.6l-1-0.1
	c-0.1-0.3-0.3-0.7-0.5-1l0.6-0.8l-0.3-0.5l-1,0.2l0,0c-0.2-0.3-0.4-0.6-0.7-0.9l0,0l0.5-0.9l-0.4-0.5L57.6,36l0,0
	c-0.3-0.3-0.6-0.5-0.8-0.8l0,0l0.3-1l-0.5-0.4l-0.8,0.5c-0.3-0.2-0.6-0.4-1-0.6l0.1-1l-0.6-0.2l-0.7,0.7c-0.3-0.1-0.7-0.2-1.1-0.3
	l-0.2-1l-0.6-0.1L51.2,33c-0.4-0.1-0.7-0.1-1.1-0.1l0,0L49.7,32h-0.6l-0.4,0.9l0,0c-0.4,0-0.8,0.1-1.1,0.1l-0.5-0.8l-0.6,0.1l-0.2,1
	c-0.4,0.1-0.7,0.2-1.1,0.3l-0.7-0.7l-0.6,0.2l0.1,1c-0.3,0.2-0.7,0.4-1,0.6l-0.8-0.5l-0.5,0.4l0.3,1l0,0c-0.3,0.2-0.6,0.5-0.9,0.8
	l0,0L40.2,36l-0.4,0.5l0.5,0.9l0,0c-0.2,0.3-0.5,0.6-0.7,0.9l-1-0.2l-0.3,0.5l0.6,0.8c-0.2,0.3-0.3,0.7-0.5,1l-1,0.1l-0.2,0.6
	l0.8,0.6c-0.1,0.4-0.2,0.7-0.2,1.1l-1,0.3l-0.1,0.6l0.9,0.5l0,0c0,0.2,0,0.4,0,0.6c0,0.2,0,0.4,0,0.6l-0.9,0.5l0.1,0.6l1,0.3l0,0
	c0.1,0.4,0.1,0.7,0.2,1.1l-0.8,0.6l0.2,0.6l1,0.1c0.1,0.3,0.3,0.7,0.5,1L38.3,51l0.3,0.5l1-0.2l0,0c0.2,0.3,0.4,0.6,0.7,0.9l0,0
	l-0.5,0.9l0.4,0.5l0.9-0.4l0,0c0.3,0.3,0.6,0.5,0.8,0.8l-0.3,1l0.5,0.4l0.8-0.5c0.3,0.2,0.6,0.4,1,0.6l-0.1,1l0.6,0.2l0.7-0.7
	c0.3,0.1,0.7,0.2,1.1,0.3l0.2,1l0.6,0.1l0.5-0.8c0.4,0.1,0.7,0.1,1.1,0.1l0.4,0.9h0.6l0.4-0.9l0,0c0.4,0,0.8-0.1,1.1-0.1l0.5,0.8
	l0.6-0.1l0.2-1c0.4-0.1,0.7-0.2,1.1-0.3l0.7,0.7l0.6-0.2l-0.1-1c0.3-0.2,0.7-0.4,1-0.6l0.8,0.5L57,55l-0.3-1l0,0
	c0.3-0.2,0.6-0.5,0.8-0.8l0,0l0.9,0.4l0.4-0.5l-0.5-0.9l0,0c0.2-0.3,0.5-0.6,0.7-0.9l1,0.2l0.3-0.5l-0.6-0.8c0.2-0.3,0.3-0.7,0.5-1
	l1-0.1l0.2-0.6l-0.8-0.6c0.1-0.4,0.2-0.7,0.2-1.1L61.9,46.1z"/>
<path display="none" fill="#FFFFFF" d="M59.6,45.5c-0.1,0.9-0.7,1.6-1.5,1.8c0.5,0.6,0.6,1.6,0.1,2.3c-0.6,1-1.8,1.3-2.9,0.8
	c-1.5-0.8-2-2.9-2.3-3.6c-0.1-0.4-0.1-0.8-0.1-1.1c0.1-0.3,0.4-0.7,0.7-0.9c0.5-0.4,2.2-1.8,3.9-1.6C58.9,43.3,59.8,44.3,59.6,45.5z
	 M55.4,52.8c-0.5,0.4-1,0.7-1.6,0.9c0.3-0.5,0.4-2.1,0.2-2.8c0.6,0.4,2.2,0.8,2.8,0.7C56.4,52,55.9,52.4,55.4,52.8z M50.3,47.6
	c0.4-0.1,0.7-0.3,1-0.5s0.6-0.5,0.8-0.8l1.1,3.4L50.3,47.6z M51.5,54.5c-0.9,0.2-1.7-0.2-2.2-0.9c-0.5,0.7-1.3,1-2.2,0.9
	c-1.1-0.2-1.8-1.3-1.6-2.5c0.3-1.7,2.2-2.8,2.7-3.2c0.3-0.2,0.7-0.4,1.1-0.4c0.4,0,0.7,0.2,1.1,0.4c0.6,0.4,2.4,1.6,2.7,3.2
	C53.3,53.2,52.6,54.3,51.5,54.5z M46.6,46.3c0.2,0.3,0.5,0.6,0.8,0.8s0.7,0.4,1,0.5l-2.9,2.1L46.6,46.3z M43.2,50.3
	c-1,0.5-2.3,0.2-2.9-0.8c-0.4-0.8-0.3-1.7,0.1-2.3c-0.8-0.2-1.4-0.9-1.5-1.8c-0.1-1.1,0.7-2.1,1.9-2.3c1.7-0.3,3.4,1.2,3.9,1.6
	c0.3,0.2,0.6,0.5,0.7,0.9c0.1,0.4,0.1,0.8-0.1,1.1C45.2,47.4,44.7,49.6,43.2,50.3z M43.2,52.8c-0.5-0.4-1-0.8-1.4-1.2
	c0.5,0.1,2.1-0.3,2.8-0.7c-0.2,0.7,0,2.3,0.2,2.8C44.3,53.4,43.7,53.1,43.2,52.8z M39.5,41.2c0.2-0.6,0.4-1.2,0.7-1.7
	c0.1,0.6,0.9,2,1.5,2.4c-0.7,0-2.2,0.7-2.6,1.1C39.1,42.4,39.3,41.8,39.5,41.2z M46.6,42.3c-0.2,0.3-0.4,0.6-0.5,1s-0.2,0.7-0.2,1.1
	l-2.8-2.1H46.6z M41.6,37.4c0.6-0.6,1.5-0.8,2.2-0.6c0-0.8,0.4-1.6,1.2-2c1.1-0.5,2.2,0,2.8,1.1c0.8,1.5-0.1,3.6-0.3,4.2
	c-0.1,0.4-0.3,0.7-0.6,1c-0.3,0.2-0.7,0.3-1.1,0.3c-0.7,0-2.9,0.2-4.1-1C41,39.6,40.8,38.3,41.6,37.4z M49.3,34
	c0.6,0,1.2,0.1,1.8,0.2c-0.5,0.2-1.6,1.5-1.8,2.2c-0.3-0.7-1.3-1.9-1.8-2.2C48.1,34.1,48.7,34,49.3,34z M48.7,40.2
	c0-0.4,0.3-0.6,0.6-0.6c0.4,0,0.6,0.3,0.6,0.6c0,0.4-0.3,0.6-0.6,0.6S48.7,40.6,48.7,40.2z M49.3,42.3c1.2,0,2.1,0.9,2.1,2.1
	c0,1.2-0.9,2.1-2.1,2.1c-1.2,0-2.1-0.9-2.1-2.1S48.2,42.3,49.3,42.3z M55.5,42.4l-2.8,2.1c0-0.4,0-0.7-0.2-1.1
	c-0.1-0.4-0.3-0.7-0.5-1H55.5z M53.5,34.9c0.8,0.4,1.3,1.1,1.2,2c0.8-0.3,1.7-0.1,2.2,0.6c0.8,0.9,0.7,2.1-0.2,3
	c-1.2,1.2-3.4,1-4.1,1c-0.4,0-0.8-0.1-1.1-0.3s-0.5-0.6-0.6-1c-0.2-0.6-1-2.7-0.3-4.2C51.3,34.9,52.5,34.4,53.5,34.9z M58.5,39.5
	c0.3,0.5,0.5,1.1,0.7,1.7c0.2,0.6,0.3,1.2,0.4,1.8c-0.4-0.4-1.9-1-2.6-1.1C57.5,41.4,58.4,40,58.5,39.5z M61.8,46l0.1-0.6L61,44.9
	l0,0c0-0.2,0-0.4,0-0.6c0-0.2,0-0.4,0-0.6l0.9-0.5l-0.1-0.6l-1-0.3l0,0c-0.1-0.4-0.1-0.7-0.2-1.1l0.8-0.6L61.2,40l-1-0.1
	c-0.1-0.3-0.3-0.7-0.5-1l0.6-0.8L60,37.6l-1,0.2l0,0c-0.2-0.3-0.4-0.6-0.7-0.9l0,0l0.5-0.9l-0.4-0.5l-0.9,0.4l0,0
	c-0.3-0.3-0.6-0.5-0.9-0.8l0,0l0.3-1L56.5,34l-0.8,0.5c-0.3-0.2-0.6-0.4-1-0.6l0.1-1l-0.6-0.2l-0.7,0.7c-0.3-0.1-0.7-0.2-1.1-0.3
	l-0.2-1L51.6,32l-0.5,0.8c-0.4-0.1-0.7-0.1-1.1-0.1l0,0l-0.4-0.9H49l-0.4,0.9l0,0c-0.4,0-0.8,0.1-1.1,0.1L47,32l-0.6,0.1l-0.2,1
	c-0.4,0.1-0.7,0.2-1.1,0.3l-0.7-0.7L43.9,33l0.1,1c-0.3,0.2-0.7,0.4-1,0.6L42.2,34l-0.5,0.4l0.3,1l0,0c-0.3,0.2-0.6,0.5-0.9,0.8l0,0
	l-0.9-0.4l-0.4,0.5l0.5,0.9l0,0c-0.2,0.3-0.5,0.6-0.7,0.9l-1-0.2l-0.3,0.5l0.6,0.8c-0.2,0.3-0.3,0.7-0.5,1l-1,0.1l-0.2,0.6l0.8,0.6
	c-0.1,0.4-0.2,0.7-0.2,1.1l-1,0.3l-0.1,0.6l0.9,0.5l0,0c0,0.2,0,0.4,0,0.6c0,0.2,0,0.4,0,0.6l-0.9,0.5l0.1,0.6l1,0.3l0,0
	c0.1,0.4,0.1,0.7,0.2,1.1L37.3,48l0.2,0.6l1,0.1c0.1,0.3,0.3,0.7,0.5,1l-0.6,0.8l0.3,0.5l1-0.2l0,0c0.2,0.3,0.4,0.6,0.7,0.9l0,0
	l-0.5,0.9l0.4,0.5l0.9-0.4l0,0c0.3,0.3,0.6,0.5,0.8,0.8l-0.3,1l0.5,0.4l0.8-0.5c0.3,0.2,0.6,0.4,1,0.6l-0.1,1l0.6,0.2l0.7-0.7
	c0.3,0.1,0.7,0.2,1.1,0.3l0.2,1l0.6,0.1l0.5-0.8c0.4,0.1,0.7,0.1,1.1,0.1l0.4,0.9h0.6L50,56l0,0c0.4,0,0.8-0.1,1.1-0.1l0.5,0.8
	l0.6-0.1l0.2-1c0.4-0.1,0.7-0.2,1.1-0.3l0.7,0.7l0.6-0.3l-0.1-1c0.3-0.2,0.7-0.4,1-0.6l0.8,0.5l0.5-0.4l-0.3-1l0,0
	c0.3-0.2,0.6-0.5,0.8-0.8l0,0l0.9,0.4l0.4-0.5l-0.5-0.9l0,0c0.2-0.3,0.5-0.6,0.7-0.9l1,0.2l0.3-0.5l-0.6-0.8c0.2-0.3,0.3-0.7,0.5-1
	l1-0.1l0.2-0.6l-0.8-0.6c0.1-0.4,0.2-0.7,0.2-1.1L61.8,46z"/>
<path display="none" fill="#FFFFFF" d="M29.7,64.2c0,0.2,0,0.3-0.1,0.5s-0.1,0.4-0.2,0.5c-0.1,0.2-0.2,0.3-0.4,0.5
	c-0.2,0.2-0.3,0.3-0.6,0.4c-0.2,0.1-0.5,0.2-0.7,0.3c-0.3,0.1-0.6,0.1-0.9,0.1c-0.1,0-0.3,0-0.5,0s-0.4-0.1-0.6-0.1
	s-0.4-0.1-0.6-0.2s-0.3-0.1-0.5-0.2c0,0,0,0,0-0.1s0-0.2,0-0.3c0-0.1,0-0.2,0-0.4c0-0.1,0-0.3,0-0.4s0-0.3,0-0.4s0-0.3,0.1-0.4h0.5
	c0.1,0.2,0.2,0.4,0.3,0.6c0.1,0.2,0.3,0.4,0.4,0.5c0.2,0.1,0.3,0.3,0.5,0.3c0.2,0.1,0.4,0.1,0.6,0.1s0.3,0,0.5-0.1
	c0.2,0,0.3-0.1,0.4-0.2s0.2-0.2,0.3-0.3c0.1-0.1,0.1-0.3,0.1-0.5s-0.1-0.4-0.2-0.6c-0.1-0.2-0.2-0.3-0.4-0.4
	c-0.2-0.1-0.4-0.2-0.6-0.4c-0.2-0.1-0.4-0.2-0.7-0.3c-0.2-0.1-0.4-0.2-0.7-0.3c-0.2-0.1-0.4-0.3-0.6-0.4c-0.2-0.2-0.3-0.3-0.4-0.5
	s-0.2-0.4-0.2-0.7c0-0.1,0-0.2,0.1-0.4c0-0.1,0.1-0.3,0.2-0.4c0.1-0.1,0.2-0.3,0.4-0.4c0.1-0.1,0.3-0.2,0.5-0.3s0.4-0.2,0.7-0.2
	c0.3-0.1,0.5-0.1,0.9-0.1c0.2,0,0.4,0,0.6,0s0.4,0.1,0.6,0.1s0.3,0.1,0.5,0.2c0.1,0.1,0.2,0.1,0.3,0.2v0.1c0,0.1,0,0.1-0.1,0.2
	c0,0.1-0.1,0.2-0.1,0.3S29,60.3,29,60.4s-0.1,0.2-0.1,0.2c0,0.1-0.1,0.1-0.1,0.1h-0.4c-0.1-0.2-0.2-0.4-0.3-0.5
	c-0.1-0.1-0.2-0.2-0.3-0.3c-0.1-0.1-0.2-0.1-0.4-0.2c-0.1,0-0.2,0-0.3,0c-0.2,0-0.3,0-0.5,0.1c-0.1,0-0.2,0.1-0.3,0.2
	c-0.1,0.1-0.1,0.2-0.2,0.3c0,0.1-0.1,0.2-0.1,0.3c0,0.2,0.1,0.3,0.2,0.5c0.1,0.1,0.2,0.3,0.4,0.4c0.2,0.1,0.4,0.2,0.6,0.3l0.7,0.3
	c0.2,0.1,0.4,0.2,0.7,0.4c0.2,0.1,0.4,0.3,0.6,0.4c0.2,0.2,0.3,0.4,0.4,0.6C29.7,63.7,29.7,63.9,29.7,64.2z"/>
<path display="none" fill="#FFFFFF" d="M35.6,64.7c0,0.1,0,0.3,0,0.5s0,0.3-0.1,0.5c0,0.2,0,0.3-0.1,0.4c0,0.1,0,0.2,0,0.3h-5.2V66
	c0.2,0,0.4-0.1,0.5-0.2s0.2-0.1,0.2-0.2v-5c0,0-0.1-0.1-0.2-0.2c-0.1-0.1-0.3-0.1-0.5-0.2v-0.4H35l0.2,0.2c0,0.1,0,0.2,0,0.3
	s0,0.3-0.1,0.4c0,0.1,0,0.3-0.1,0.4c0,0.1,0,0.2-0.1,0.3h-0.5c0-0.3-0.1-0.6-0.1-0.7c-0.1-0.2-0.2-0.3-0.3-0.3h-1.7v2h2.1l0.2,0.2
	c0,0-0.1,0.1-0.1,0.2c0,0.1-0.1,0.1-0.1,0.2c0,0.1-0.1,0.1-0.1,0.2c0,0.1-0.1,0.1-0.1,0.1c-0.1-0.1-0.1-0.1-0.2-0.1
	c-0.1,0-0.1-0.1-0.2-0.1c-0.1,0-0.2,0-0.3-0.1c-0.1,0-0.2,0-0.4,0h-0.7v2.2c0,0.1,0,0.1,0,0.1s0.1,0.1,0.2,0.1
	c0.1,0,0.2,0.1,0.3,0.1s0.3,0,0.6,0H34c0.2,0,0.3,0,0.4-0.1c0.1,0,0.2-0.1,0.3-0.2s0.2-0.2,0.2-0.4c0.1-0.1,0.1-0.3,0.2-0.5
	L35.6,64.7z"/>
<path display="none" fill="#FFFFFF" d="M41.1,64.7c0,0.1,0,0.3-0.1,0.5c0,0.2,0,0.3-0.1,0.5c0,0.2,0,0.3-0.1,0.4c0,0.1,0,0.2,0,0.3
	H36V66c0.2,0,0.4-0.1,0.5-0.2s0.2-0.1,0.2-0.2v-5c0,0-0.1-0.1-0.2-0.2c-0.1-0.1-0.3-0.1-0.5-0.2v-0.4h2.9v0.4
	c-0.2,0-0.4,0.1-0.5,0.2c-0.1,0.1-0.2,0.1-0.2,0.2v4.6c0,0.1,0,0.1,0,0.2c0,0,0.1,0.1,0.2,0.1c0.1,0,0.2,0.1,0.3,0.1s0.3,0,0.5,0
	h0.4c0.2,0,0.3,0,0.4-0.1c0.1,0,0.2-0.1,0.3-0.2s0.2-0.2,0.2-0.4c0.1-0.1,0.1-0.3,0.2-0.5L41.1,64.7z"/>
<path display="none" fill="#FFFFFF" d="M46.5,64.7c0,0.1,0,0.3-0.1,0.5c0,0.2,0,0.3-0.1,0.5c0,0.2,0,0.3-0.1,0.4
	c0,0.1,0,0.2-0.1,0.3h-4.7V66c0.2,0,0.4-0.1,0.5-0.2s0.2-0.1,0.2-0.2v-5c0,0-0.1-0.1-0.2-0.2c-0.1-0.1-0.3-0.1-0.5-0.2v-0.4h2.9v0.4
	c-0.2,0-0.4,0.1-0.5,0.2c-0.1,0.1-0.2,0.1-0.2,0.2v4.6c0,0.1,0,0.1,0,0.2c0,0,0.1,0.1,0.2,0.1c0.1,0,0.2,0.1,0.3,0.1s0.3,0,0.5,0
	h0.2c0.2,0,0.3,0,0.4-0.1c0.1,0,0.2-0.1,0.3-0.2s0.2-0.2,0.2-0.4c0.1-0.1,0.1-0.3,0.2-0.5L46.5,64.7z"/>
<path display="none" fill="#FFFFFF" d="M55.1,59.4c-0.1,0.1-0.3,0.1-0.4,0.2c-0.1,0.1-0.2,0.1-0.2,0.1c-0.1,0-0.1,0.1-0.1,0.1v0.1
	L52.9,66c0,0.1-0.1,0.1-0.1,0.2c-0.1,0.1-0.1,0.1-0.2,0.1c-0.1,0-0.2,0.1-0.2,0.1c-0.1,0-0.2,0-0.2,0L50.3,62l-1.5,4
	c0,0.1-0.1,0.1-0.1,0.2c-0.1,0.1-0.1,0.1-0.2,0.1c-0.1,0-0.2,0.1-0.3,0.1s-0.2,0-0.2,0.1l-1.4-5.8c0-0.1-0.1-0.2-0.2-0.2
	c-0.1-0.1-0.3-0.1-0.5-0.1V60h2.7v0.4c-0.2,0-0.3,0-0.4,0.1c-0.1,0-0.2,0.1-0.2,0.1l-0.1,0.1v0.1l0.9,3.5l1.5-4.2h0.6l1.7,4.2l1-4
	c0,0,0-0.1-0.1-0.1c0,0-0.1,0-0.2,0c-0.1,0-0.2,0-0.3,0s-0.2,0-0.3,0l-0.1-0.4L55,59L55.1,59.4z"/>
<path display="none" fill="#FFFFFF" d="M59.2,63.1c0-0.4,0-0.7-0.1-1s-0.2-0.6-0.4-0.9c-0.2-0.2-0.3-0.4-0.6-0.6
	c-0.2-0.1-0.5-0.2-0.7-0.2s-0.4,0.1-0.6,0.2c-0.2,0.1-0.3,0.3-0.4,0.5c-0.1,0.2-0.2,0.5-0.3,0.8C56,62.3,56,62.6,56,63.1
	c0,0.4,0,0.7,0.1,1.1c0.1,0.3,0.2,0.6,0.4,0.9c0.2,0.2,0.3,0.4,0.5,0.6c0.2,0.1,0.4,0.2,0.7,0.2c0.2,0,0.4-0.1,0.6-0.2
	c0.2-0.1,0.3-0.3,0.5-0.5c0.1-0.2,0.2-0.5,0.3-0.8C59.1,64,59.2,63.6,59.2,63.1z M60.7,63c0,0.3,0,0.6-0.1,0.9s-0.2,0.6-0.3,0.8
	c-0.1,0.3-0.3,0.5-0.5,0.7s-0.4,0.4-0.7,0.5c-0.2,0.2-0.5,0.3-0.8,0.4s-0.6,0.1-0.9,0.1c-0.5,0-0.9-0.1-1.2-0.3
	c-0.4-0.2-0.7-0.4-0.9-0.7c-0.3-0.3-0.5-0.7-0.6-1c-0.1-0.4-0.2-0.8-0.2-1.2c0-0.5,0.1-0.9,0.2-1.3c0.2-0.4,0.4-0.8,0.7-1.1
	s0.6-0.6,1-0.8s0.8-0.3,1.3-0.3s0.9,0.1,1.3,0.3c0.4,0.2,0.7,0.4,0.9,0.7s0.4,0.7,0.6,1.1C60.6,62.2,60.7,62.6,60.7,63z"/>
<path display="none" fill="#FFFFFF" d="M65.8,63.1c0-0.4,0-0.7-0.1-1s-0.2-0.6-0.4-0.9c-0.2-0.2-0.3-0.4-0.6-0.6
	c-0.2-0.1-0.5-0.2-0.7-0.2c-0.2,0-0.4,0.1-0.6,0.2c-0.2,0.1-0.3,0.3-0.4,0.5c-0.1,0.2-0.2,0.5-0.3,0.8s-0.1,0.7-0.1,1.1
	c0,0.4,0,0.7,0.1,1.1c0.1,0.3,0.2,0.6,0.4,0.9c0.2,0.2,0.3,0.4,0.5,0.6c0.2,0.1,0.4,0.2,0.7,0.2c0.2,0,0.4-0.1,0.6-0.2
	s0.3-0.3,0.5-0.5c0.1-0.2,0.2-0.5,0.3-0.8C65.7,64,65.8,63.6,65.8,63.1z M67.3,63c0,0.3,0,0.6-0.1,0.9s-0.2,0.6-0.3,0.8
	c-0.1,0.3-0.3,0.5-0.5,0.7s-0.4,0.4-0.7,0.5c-0.2,0.2-0.5,0.3-0.8,0.4s-0.6,0.1-0.9,0.1c-0.5,0-0.9-0.1-1.2-0.3
	c-0.4-0.2-0.7-0.4-0.9-0.7c-0.3-0.3-0.4-0.7-0.6-1c-0.1-0.4-0.2-0.8-0.2-1.2c0-0.5,0.1-0.9,0.2-1.3c0.2-0.4,0.4-0.8,0.7-1.1
	s0.6-0.6,1-0.8s0.8-0.3,1.3-0.3c0.5,0,0.9,0.1,1.3,0.3s0.7,0.4,0.9,0.7c0.2,0.3,0.4,0.7,0.6,1.1C67.2,62.2,67.3,62.6,67.3,63z"/>
<path display="none" fill="#FFFFFF" d="M70,59.9c-0.1,0-0.1,0-0.2,0s-0.1,0-0.2,0v5.4c0,0.1,0,0.1,0,0.2s0,0.1,0.1,0.1
	c0,0,0.1,0.1,0.2,0.1s0.3,0,0.4,0c0.2,0,0.4-0.1,0.6-0.2s0.4-0.3,0.6-0.5s0.4-0.5,0.5-0.9s0.2-0.8,0.2-1.3c0-1-0.2-1.7-0.6-2.2
	C71.3,60.1,70.7,59.9,70,59.9z M73.9,62.6c0,0.5,0,0.9-0.1,1.2c-0.1,0.4-0.2,0.7-0.4,1c-0.2,0.3-0.4,0.5-0.6,0.7s-0.4,0.3-0.7,0.5
	c-0.2,0.1-0.5,0.2-0.8,0.3c-0.3,0.1-0.5,0.1-0.8,0.1h-3.3v-0.5c0.2-0.1,0.4-0.1,0.6-0.2c0.1-0.1,0.2-0.1,0.2-0.2V60l-0.7,0.1
	l-0.1-0.6c0.2,0,0.4-0.1,0.7-0.1c0.3,0,0.5-0.1,0.8-0.1s0.6-0.1,0.9-0.1s0.6,0,0.8,0c0.6,0,1.1,0.1,1.5,0.2c0.4,0.2,0.8,0.4,1.1,0.7
	c0.3,0.3,0.5,0.6,0.7,1.1C73.9,61.6,73.9,62.1,73.9,62.6z"/>
<path display="none" fill="#FFFFFF" d="M22,74.5c-0.5,0.5-1,0.8-1.4,1c-0.5,0.2-0.9,0.3-1.4,0.3c-0.4,0-0.8-0.1-1.1-0.2
	c-0.4-0.2-0.7-0.4-1-0.7c-0.3-0.3-0.5-0.7-0.7-1.1s-0.3-0.9-0.3-1.5s0.1-1.1,0.3-1.6c0.2-0.5,0.4-0.9,0.8-1.3
	c0.3-0.3,0.7-0.6,1.2-0.8c0.4-0.2,0.9-0.3,1.4-0.3c0.2,0,0.4,0,0.6,0s0.4,0.1,0.6,0.1c0.2,0.1,0.4,0.1,0.5,0.2
	c0.2,0.1,0.3,0.1,0.4,0.2c0,0,0,0,0,0.1s0,0.1-0.1,0.2c0,0.1-0.1,0.2-0.1,0.3c0,0.1-0.1,0.2-0.2,0.3c-0.1,0.1-0.1,0.2-0.1,0.3
	c0,0.1-0.1,0.1-0.1,0.2l-0.4-0.1c-0.2-0.4-0.4-0.7-0.6-0.8c-0.2-0.2-0.5-0.2-0.8-0.2c-0.2,0-0.4,0-0.6,0.1s-0.4,0.2-0.5,0.5
	c-0.2,0.2-0.3,0.5-0.4,0.9s-0.2,0.9-0.2,1.5c0,0.5,0.1,0.9,0.2,1.2c0.1,0.3,0.3,0.6,0.5,0.8c0.2,0.2,0.4,0.4,0.6,0.5
	s0.5,0.2,0.7,0.2c0.1,0,0.2,0,0.4,0c0.1,0,0.3-0.1,0.5-0.1c0.2-0.1,0.3-0.1,0.5-0.2s0.4-0.2,0.6-0.4c0,0,0,0,0.1,0.1l0.1,0.1
	C21.9,74.3,21.9,74.3,22,74.5C21.9,74.4,22,74.4,22,74.5z"/>
<path display="none" fill="#FFFFFF" d="M23.4,75.7v-0.4c0.2,0,0.3-0.1,0.4-0.1s0.2-0.1,0.3-0.1c0.1,0,0.1-0.1,0.1-0.1v-0.1V73
	c-0.1-0.3-0.3-0.5-0.4-0.8c-0.2-0.3-0.3-0.6-0.5-0.8c-0.2-0.3-0.3-0.5-0.5-0.7s-0.3-0.4-0.4-0.6L22.3,70l-0.1-0.1
	c-0.1,0-0.2,0-0.2,0v-0.5c0,0,0.3,0,0.4-0.1c0.1,0,0.3,0,0.4,0s0.2,0,0.3,0c0.1,0,0.2,0,0.3,0.1c0.1,0,0.2,0.1,0.3,0.2
	c0.1,0.2,0.3,0.4,0.4,0.6s0.3,0.4,0.4,0.7c0.1,0.2,0.3,0.5,0.4,0.7c0.1,0.3,0.3,0.5,0.4,0.8l1.4-2.6c0-0.1,0-0.2-0.1-0.2
	s-0.3-0.1-0.5-0.1v-0.4l2.2-0.2v0.4c-0.1,0-0.2,0.1-0.3,0.1c-0.1,0-0.2,0.1-0.2,0.1c-0.1,0-0.1,0.1-0.1,0.1l-0.1,0.1L25.7,73v1.8
	c0,0,0,0,0,0.1l0.1,0.1c0.1,0,0.1,0.1,0.3,0.1c0.1,0,0.2,0.1,0.4,0.1v0.4L23.4,75.7L23.4,75.7z"/>
<path display="none" fill="#FFFFFF" d="M33,74.6c-0.5,0.4-0.9,0.8-1.3,0.9c-0.4,0.2-0.9,0.3-1.3,0.3s-0.7-0.1-1.1-0.2
	c-0.3-0.1-0.7-0.3-0.9-0.6c-0.3-0.3-0.5-0.6-0.6-1c-0.2-0.4-0.2-0.8-0.2-1.3s0.1-1,0.3-1.5c0.2-0.4,0.4-0.8,0.7-1.1
	c0.3-0.3,0.7-0.6,1.1-0.7c0.4-0.2,0.9-0.3,1.4-0.3c0.2,0,0.4,0,0.6,0s0.4,0.1,0.6,0.1c0.2,0,0.3,0.1,0.5,0.2
	c0.1,0.1,0.3,0.1,0.4,0.2c0,0,0,0,0,0.1s0,0.1-0.1,0.2c0,0.1-0.1,0.2-0.1,0.3c0,0.1-0.1,0.2-0.1,0.3c0,0.1-0.1,0.2-0.1,0.2
	c0,0.1-0.1,0.1-0.1,0.1l-0.4-0.1c-0.2-0.3-0.4-0.6-0.6-0.7s-0.5-0.2-0.7-0.2s-0.4,0-0.6,0.1s-0.4,0.2-0.5,0.4
	c-0.2,0.2-0.3,0.5-0.4,0.8C29,71.5,29,71.9,29,72.5c0,0.4,0.1,0.8,0.2,1.1c0.1,0.3,0.3,0.6,0.4,0.7c0.2,0.2,0.4,0.3,0.6,0.4
	s0.5,0.1,0.7,0.1c0.1,0,0.2,0,0.3,0c0.1,0,0.3-0.1,0.4-0.1c0.2-0.1,0.3-0.1,0.5-0.2c0.2-0.1,0.4-0.2,0.5-0.3c0,0,0,0,0.1,0.1
	l0.1,0.1C32.9,74.4,32.9,74.5,33,74.6C33,74.5,33,74.6,33,74.6z"/>
<path display="none" fill="#FFFFFF" d="M38.8,74c0,0.1,0,0.3-0.1,0.5c0,0.2,0,0.3-0.1,0.5c0,0.2,0,0.3-0.1,0.4c0,0.1,0,0.2-0.1,0.3
	h-5.1v-0.4c0.2,0,0.4-0.1,0.5-0.2S34,75,34,74.9v-5c0,0-0.1-0.1-0.2-0.2c-0.1-0.1-0.3-0.1-0.5-0.2v-0.4h2.9v0.4
	c-0.2,0-0.4,0.1-0.5,0.2s-0.2,0.1-0.2,0.2v4.6c0,0.1,0,0.1,0,0.2c0,0,0.1,0.1,0.2,0.1c0.1,0,0.2,0.1,0.3,0.1s0.3,0,0.5,0H37
	c0.2,0,0.3,0,0.4-0.1c0.1,0,0.2-0.1,0.3-0.2s0.2-0.2,0.2-0.4c0.1-0.1,0.1-0.3,0.2-0.5L38.8,74z"/>
<path display="none" fill="#FFFFFF" d="M44.5,74c0,0.1,0,0.3,0,0.5s0,0.3-0.1,0.5c0,0.2,0,0.3-0.1,0.4c0,0.1,0,0.2-0.1,0.3H39v-0.4
	c0.2,0,0.4-0.1,0.5-0.2s0.2-0.1,0.2-0.2v-5c0,0-0.1-0.1-0.2-0.2c-0.1-0.1-0.3-0.1-0.5-0.2v-0.4h4.8l0.2,0.2c0,0.1,0,0.2,0,0.3
	c0,0.1,0,0.3-0.1,0.4c0,0.1,0,0.3-0.1,0.4c0,0.1,0,0.2-0.1,0.3h-0.5c0-0.3-0.1-0.6-0.1-0.7c-0.1-0.2-0.2-0.3-0.3-0.3h-1.7v2h2.1
	l0.2,0.2c0,0-0.1,0.1-0.1,0.2s-0.1,0.1-0.1,0.2s-0.1,0.1-0.1,0.2S43,72.6,43,72.6c-0.1-0.1-0.1-0.1-0.2-0.1c-0.1,0-0.1-0.1-0.2-0.1
	c-0.1,0-0.2,0-0.3-0.1c-0.1,0-0.2,0-0.4,0h-0.7v2.2c0,0.1,0,0.1,0,0.1s0.1,0.1,0.2,0.1c0.1,0,0.2,0.1,0.3,0.1s0.3,0,0.6,0h0.5
	c0.2,0,0.3,0,0.4-0.1c0.1,0,0.2-0.1,0.3-0.2s0.2-0.2,0.2-0.4c0.1-0.1,0.1-0.3,0.2-0.5L44.5,74z"/>
<path display="none" fill="#FFFFFF" d="M50.5,69L50.5,69h-0.2v2.6c0.1,0,0.2,0,0.3,0s0.2,0,0.2,0c0.2,0,0.4,0,0.6-0.1
	c0.2-0.1,0.3-0.2,0.4-0.3c0.1-0.1,0.2-0.3,0.2-0.4c0.1-0.2,0.1-0.4,0.1-0.6s0-0.3-0.1-0.5c0-0.1-0.1-0.3-0.2-0.4
	c-0.1-0.1-0.3-0.2-0.5-0.3C51.1,69,50.9,69,50.5,69z M47.9,75.7v-0.5c0.3-0.1,0.4-0.1,0.6-0.2c0.1-0.1,0.2-0.1,0.2-0.2v-5.7
	l-0.8,0.1l-0.1-0.6c0.4-0.1,0.9-0.2,1.4-0.2c0.5-0.1,1-0.1,1.6-0.1c0.5,0,1,0,1.4,0.1s0.7,0.2,0.9,0.4c0.2,0.2,0.4,0.3,0.5,0.5
	s0.2,0.4,0.2,0.7c0,0.3,0,0.5-0.1,0.7s-0.2,0.4-0.3,0.6s-0.3,0.3-0.5,0.5c-0.2,0.1-0.4,0.2-0.6,0.3l1.8,2.4c0.1,0.1,0.1,0.1,0.2,0.2
	c0.1,0,0.1,0.1,0.2,0.1c0.1,0,0.2,0,0.2,0v0.6c0,0-0.3,0.1-0.5,0.1s-0.3,0.1-0.5,0.1c-0.1,0-0.3,0-0.3,0c-0.1,0-0.2,0-0.3-0.1
	s-0.2-0.1-0.2-0.2l-1.6-3.1h-0.1h-0.1c-0.1,0-0.2,0-0.3,0s-0.2,0-0.3,0v2.5c0,0,0.1,0.1,0.2,0.2c0.1,0.1,0.3,0.1,0.6,0.2v0.5
	L47.9,75.7L47.9,75.7z"/>
<path display="none" fill="#FFFFFF" d="M60.2,74c0,0.1,0,0.3,0,0.5s0,0.3-0.1,0.5c0,0.2,0,0.3-0.1,0.4c0,0.1,0,0.2-0.1,0.3h-5.2
	v-0.4c0.2,0,0.4-0.1,0.5-0.2s0.2-0.1,0.2-0.2v-5c0,0-0.1-0.1-0.2-0.2c-0.1-0.1-0.3-0.1-0.5-0.2v-0.4h4.8l0.2,0.2c0,0.1,0,0.2,0,0.3
	c0,0.1,0,0.3-0.1,0.4c0,0.1,0,0.3-0.1,0.4c0,0.1,0,0.2-0.1,0.3h-0.5c0-0.3-0.1-0.6-0.1-0.7c-0.1-0.2-0.2-0.3-0.3-0.3H57v2h2.1
	l0.2,0.2c0,0-0.1,0.1-0.1,0.2s-0.1,0.1-0.1,0.2S59,72.4,59,72.5s-0.1,0.1-0.1,0.1c-0.1-0.1-0.1-0.1-0.2-0.1c-0.1,0-0.1-0.1-0.2-0.1
	c-0.1,0-0.2,0-0.3-0.1c-0.1,0-0.2,0-0.4,0H57v2.2c0,0.1,0,0.1,0,0.1s0.1,0.1,0.2,0.1c0.1,0,0.2,0.1,0.3,0.1s0.3,0,0.6,0h0.5
	c0.2,0,0.3,0,0.4-0.1c0.1,0,0.2-0.1,0.3-0.2s0.2-0.2,0.2-0.4c0.1-0.1,0.1-0.3,0.2-0.5L60.2,74z"/>
<path display="none" fill="#FFFFFF" d="M60.5,75.7v-0.4c0.2,0,0.4-0.1,0.5-0.2s0.2-0.1,0.2-0.2v-5.1c-0.3,0-0.5,0.1-0.7,0.1
	l-0.1-0.5c0.2,0,0.4-0.1,0.7-0.1c0.2,0,0.5-0.1,0.8-0.1s0.5,0,0.8-0.1c0.3,0,0.5,0,0.8,0c0.4,0,0.8,0,1.2,0.1
	c0.3,0.1,0.6,0.2,0.9,0.3c0.2,0.2,0.4,0.3,0.6,0.6c0.1,0.2,0.2,0.5,0.2,0.8c0,0.4-0.1,0.7-0.2,0.9c-0.1,0.3-0.3,0.5-0.6,0.7
	c-0.2,0.2-0.5,0.3-0.7,0.4C64.5,73,64.2,73,64,73c-0.2,0-0.3,0-0.5,0s-0.6-0.2-0.9-0.4v-0.5c0.1,0.1,0.6,0.3,0.7,0.3
	c0.1,0,0.2,0,0.3,0s0.3,0,0.4-0.1c0.1-0.1,0.3-0.1,0.4-0.2s0.2-0.2,0.2-0.4c0.1-0.2,0.1-0.4,0.1-0.6s0-0.4-0.1-0.6s-0.2-0.3-0.3-0.5
	c-0.1-0.1-0.3-0.2-0.5-0.3c-0.2-0.1-0.4-0.1-0.7-0.1c-0.1,0-0.1,0-0.2,0c-0.1,0-0.1,0-0.2,0v5.3c0,0,0,0,0,0.1c0,0,0.1,0,0.1,0.1
	c0.1,0,0.2,0.1,0.3,0.1s0.3,0.1,0.4,0.1v0.4C63.5,75.7,60.5,75.7,60.5,75.7z"/>
<path display="none" fill="#FFFFFF" d="M69.2,72.8l-0.9-2.3l-0.8,2.3H69.2z M67.4,73.5l-0.5,1.4c0,0.1,0,0.2,0.1,0.2
	s0.3,0.1,0.6,0.1v0.4h-2.4v-0.4c0.2,0,0.4-0.1,0.5-0.1s0.2-0.1,0.2-0.2l1.8-5.3c0.1-0.1,0.2-0.1,0.3-0.2c0.1-0.1,0.2-0.1,0.4-0.2
	c0.1-0.1,0.2-0.1,0.4-0.1c0.1,0,0.2-0.1,0.3-0.1l2.2,5.9c0,0,0,0.1,0.1,0.1l0.1,0.1c0,0,0.1,0.1,0.2,0.1s0.2,0,0.3,0.1v0.4h-2.8
	v-0.4c0.3,0,0.5,0,0.6-0.1C70,75.1,70,75,70,74.9l-0.5-1.4H67.4z"/>
<path display="none" fill="#FFFFFF" d="M72.4,75.7v-0.4c0.2,0,0.4-0.1,0.5-0.2s0.2-0.1,0.2-0.2v-5c0,0-0.1-0.1-0.2-0.2
	s-0.3-0.1-0.5-0.2v-0.4h2.9v0.4c-0.2,0-0.4,0.1-0.5,0.2s-0.2,0.1-0.2,0.2v5c0,0,0.1,0.1,0.2,0.2s0.3,0.1,0.5,0.2v0.4H72.4z"/>
<path display="none" fill="#FFFFFF" d="M78.4,69.7L78.4,69.7h-0.2V72c0.1,0,0.2,0,0.2,0c0.1,0,0.1,0,0.2,0c0.2,0,0.4,0,0.6-0.1
	s0.3-0.1,0.4-0.3c0.1-0.1,0.2-0.2,0.2-0.4c0-0.2,0.1-0.3,0.1-0.5c0-0.1,0-0.3-0.1-0.4c0-0.1-0.1-0.3-0.2-0.4s-0.3-0.2-0.5-0.2
	S78.7,69.7,78.4,69.7z M75.9,75.7v-0.4c0.2,0,0.4-0.1,0.5-0.2s0.2-0.1,0.2-0.2v-5.1l-0.7,0.1l-0.1-0.5c0.4-0.1,0.8-0.1,1.3-0.2
	s1-0.1,1.5-0.1s0.9,0,1.3,0.1c0.3,0.1,0.6,0.2,0.9,0.3c0.2,0.1,0.4,0.3,0.5,0.5s0.1,0.4,0.1,0.6s0,0.4-0.1,0.6s-0.2,0.4-0.3,0.5
	c-0.1,0.2-0.3,0.3-0.5,0.4s-0.4,0.2-0.6,0.3l1.7,2.1c0.1,0.1,0.1,0.1,0.2,0.2c0,0,0.1,0.1,0.2,0.1s0.1,0,0.2,0s0.2,0,0.3,0l0.1,0.4
	c-0.1,0-0.3,0.1-0.4,0.1c-0.2,0-0.3,0.1-0.5,0.1s-0.3,0.1-0.4,0.1s-0.2,0-0.3,0c-0.1,0-0.2,0-0.3-0.1c-0.1-0.1-0.2-0.1-0.2-0.2
	L79,72.4h-0.1h-0.1c-0.1,0-0.2,0-0.3,0c-0.1,0-0.2,0-0.3,0v2.3c0,0,0.1,0.1,0.2,0.2s0.3,0.1,0.6,0.2v0.4h-3.1V75.7z"/>
<g id="velodirt" display="none">
	<g display="inline">
		<path fill="#FFFFFF" d="M20.7,53.1l3.9-6.9h3.1l-6.6,11.3h-2.3l-3-11.3H19L20.7,53.1z"/>
		<path fill="#FFFFFF" d="M31,48.7l-0.3,1.9H34L33.6,53h-3.3L30,55.1h3.4L33,57.6h-6.4l1.7-11.3h6.4l-0.4,2.4
			C34.3,48.7,31,48.7,31,48.7z"/>
		<path fill="#FFFFFF" d="M38.1,55.1h3.6l-0.4,2.4h-6.4l1.7-11.3h3L38.1,55.1z"/>
		<path fill="#FFFFFF" d="M55.1,51.7c-0.6,3.7-3.6,6.3-7.3,6.3s-5.9-2.6-5.3-6.3c0.6-3.4,3.9-5.9,7.1-5.9S55.7,48.3,55.1,51.7z
			 M45.7,51.7c-0.3,2,0.9,3.4,2.7,3.4c1.7,0,3.4-1.4,3.7-3.4c0.3-1.6-1-3-2.7-3C47.6,48.7,45.9,50.1,45.7,51.7z"/>
		<path fill="#FFFFFF" d="M57.3,46.3h4.1c3.1,0,5.3,2.4,4.9,5.7c-0.6,3.1-3.6,5.7-6.6,5.7h-4.1L57.3,46.3z M58.9,55.1h0.7
			c1.7,0,3.4-1,3.7-3.1c0.3-2-0.9-3.1-2.7-3.1h-0.7L58.9,55.1z"/>
		<path fill="#FFFFFF" d="M69.7,57.6h-3l1.7-11.3h3L69.7,57.6z"/>
		<path fill="#FFFFFF" d="M81,57.6h-3.7l-2.1-4.3l0,0l-0.7,4.3h-3l1.7-11.3h4.4c2.3,0,3.7,1,3.4,3.4c-0.3,1.6-1.3,2.9-3,3.1L81,57.6
			z M75.6,51.3h0.3c1,0,2-0.1,2.3-1.4c0.1-1.3-0.9-1.4-1.9-1.4H76L75.6,51.3z"/>
		<path fill="#FFFFFF" d="M86.3,57.6h-3l1.4-8.9h-2.4l0.4-2.4h7.9l-0.4,2.4h-2.4L86.3,57.6z"/>
	</g>
	<polygon display="inline" fill="#FFFFFF" points="19.6,48.9 6.6,48.9 6.6,46.3 19,46.3 	"/>
	<polygon display="inline" fill="#FFFFFF" points="90.1,45.6 93.6,47.4 90.1,49.4 	"/>
	<polygon display="inline" fill="#FFFFFF" points="88.3,44.7 6.4,44.7 6.4,42 84.6,42 	"/>
</g>
<path id="double_darn" display="none" fill="#FFFFFF" d="M49.6,60.3v3.3c0,1.2-0.6,2.1-1.2,2.1s-1.2-0.9-1.2-2.1v-3.3
	c0-1.2,0.6-2.1,1.2-2.1C49,58.2,49.6,59.1,49.6,60.3z M41.7,60.7c-0.7,0-1.2,0.9-1.2,2.1v1.7c0,1.2,0.6,2.1,1.2,2.1s1.2-0.9,1.2-2.1
	v-1.7C42.9,61.6,42.4,60.7,41.7,60.7z M45,60.7c-0.7,0-1.2,0.9-1.2,2.1v1.7c0,1.2,0.6,2.1,1.2,2.1s1.2-0.9,1.2-2.1v-1.7
	C46.3,61.6,45.7,60.7,45,60.7z M38.3,60.7c-0.7,0-1.2,0.9-1.2,2.1v1.7c0,1.2,0.6,2.1,1.2,2.1s1.2-0.9,1.2-2.1v-1.7
	C39.6,61.6,39.1,60.7,38.3,60.7z M45,24.9c-0.7,0-1.2,0.9-1.2,2.1v1.7c0,1.2,0.6,2.1,1.2,2.1s1.2-0.9,1.2-2.1v-1.7
	C46.3,25.8,45.7,24.9,45,24.9z M38.3,24.9c-0.7,0-1.2,0.9-1.2,2.1v1.7c0,1.2,0.6,2.1,1.2,2.1s1.2-0.9,1.2-2.1v-1.7
	C39.6,25.8,39.1,24.9,38.3,24.9z M51.7,27.3c-0.7,0-1.2,0.9-1.2,2.1v3.3c0,0.2,0,0.3,0.1,0.5c0.3-0.2,0.8-0.3,1.2-0.3
	s0.8,0.1,1.2,0.3c0-0.2,0.1-0.3,0.1-0.5v-3.3C52.9,28.3,52.3,27.3,51.7,27.3z M41.7,24.9c-0.7,0-1.2,0.9-1.2,2.1v1.7
	c0,1.2,0.6,2.1,1.2,2.1s1.2-0.9,1.2-2.1v-1.7C42.9,25.8,42.4,24.9,41.7,24.9z M48.3,25.7c-0.7,0-1.2,0.9-1.2,2.1v3.3
	c0,1.2,0.6,2.1,1.2,2.1s1.2-0.9,1.2-2.1v-3.3C49.6,26.6,49,25.7,48.3,25.7z M54.2,40.6c-0.1,0.5-0.3,0.9-0.5,1.3v17.5
	c0,1.2,0.6,2.1,1.2,2.1s1.2-0.9,1.2-2.1V40.3c-0.4,0.2-0.8,0.4-1.3,0.4C54.7,40.7,54.5,40.7,54.2,40.6z M51.7,56.5
	c-0.7,0-1.2,0.9-1.2,2.1v3.3c0,1.2,0.6,2.1,1.2,2.1s1.2-0.9,1.2-2.1v-3.3C52.9,57.4,52.3,56.5,51.7,56.5z M55,29.8
	c-0.7,0-1.2,0.9-1.2,2.1v0.6c0.4-0.2,0.8-0.4,1.2-0.4c0.4,0,0.9,0.2,1.3,0.4v-0.6C56.2,30.8,55.7,29.8,55,29.8z M58.3,40.7
	c-0.4,0-0.9-0.2-1.2-0.4v15.3c0,1.2,0.6,2.1,1.2,2.1s1.2-0.9,1.2-2.1V40.3C59.2,40.6,58.8,40.7,58.3,40.7z M35,60.7
	c-0.7,0-1.2,0.9-1.2,2.1v1.7c0,1.2,0.6,2.1,1.2,2.1s1.2-0.9,1.2-2.1v-1.7C36.3,61.6,35.7,60.7,35,60.7z M35,24.9
	c-0.7,0-1.2,0.9-1.2,2.1v1.7c0,1.2,0.6,2.1,1.2,2.1s1.2-0.9,1.2-2.1v-1.7C36.3,25.8,35.7,24.9,35,24.9z M31.7,24.9
	c-0.7,0-1.2,0.9-1.2,2.1v15.4c0,1.2,0.6,2.1,1.2,2.1c0.7,0,1.2-0.9,1.2-2.1V26.9C32.9,25.8,32.4,24.9,31.7,24.9z M25,24.9
	c-0.7,0-1.2,0.9-1.2,2.1v1.7c0,1.2,0.6,2.1,1.2,2.1s1.2-0.9,1.2-2.1v-1.7C26.3,25.8,25.7,24.9,25,24.9z M25,60.7
	c-0.7,0-1.2,0.9-1.2,2.1v1.7c0,1.2,0.6,2.1,1.2,2.1s1.2-0.9,1.2-2.1v-1.7C26.3,61.6,25.7,60.7,25,60.7z M31.7,46.9
	c-0.7,0-1.2,0.9-1.2,2.1v15.4c0,1.2,0.6,2.1,1.2,2.1c0.7,0,1.2-0.9,1.2-2.1V49C32.9,47.9,32.4,46.9,31.7,46.9z M28.3,46.9
	c-0.7,0-1.2,0.9-1.2,2.1v15.4c0,1.2,0.6,2.1,1.2,2.1s1.2-0.9,1.2-2.1V49C29.6,47.9,29.1,46.9,28.3,46.9z M28.3,24.9
	c-0.7,0-1.2,0.9-1.2,2.1v15.4c0,1.2,0.6,2.1,1.2,2.1s1.2-0.9,1.2-2.1V26.9C29.6,25.8,29.1,24.9,28.3,24.9z M55,69.3
	c-0.7,0-1.2,0.9-1.2,2.1v1.7c0,1.2,0.6,2.1,1.2,2.1s1.2-0.9,1.2-2.1v-1.7C56.2,70.2,55.7,69.3,55,69.3z M43.8,67.5v0.6
	c0,1.2,0.6,2.1,1.2,2.1s1.2-0.9,1.2-2.1v-0.6c-0.4,0.2-0.8,0.4-1.2,0.4C44.6,67.9,44.1,67.8,43.8,67.5z M48.3,67.1
	c-0.4,0-0.8-0.1-1.2-0.3c0,0.2-0.1,0.3-0.1,0.5v3.3c0,1.2,0.6,2.1,1.2,2.1s1.2-0.9,1.2-2.1v-3.3c0-0.2,0-0.3-0.1-0.5
	C49.2,66.9,48.8,67.1,48.3,67.1z M51.7,66.8c-0.7,0-1.2,0.9-1.2,2.1v3.3c0,1.2,0.6,2.1,1.2,2.1s1.2-0.9,1.2-2.1v-3.3
	C52.9,67.7,52.3,66.8,51.7,66.8z M41.7,42.2c-0.7,0-1.2,0.9-1.2,2.1v15.3c0.4-0.2,0.8-0.4,1.3-0.4c0.4,0,0.9,0.2,1.2,0.4V44.3
	C42.9,43.2,42.4,42.2,41.7,42.2z M58.3,69.3c-0.7,0-1.2,0.9-1.2,2.1v1.7c0,1.2,0.6,2.1,1.2,2.1s1.2-0.9,1.2-2.1v-1.7
	C59.6,70.2,59,69.3,58.3,69.3z M45,38.5c-0.7,0-1.2,0.9-1.2,2.1v19.1c0.4-0.2,0.8-0.4,1.3-0.4c0.3,0,0.5,0.1,0.7,0.1
	c0.1-0.5,0.3-0.9,0.5-1.3V40.6C46.3,39.4,45.7,38.5,45,38.5z M48.3,36c-0.7,0-1.2,0.9-1.2,2.1v3.3c0,1.2,0.6,2.1,1.2,2.1
	s1.2-0.9,1.2-2.1v-3.3C49.6,36.9,49,36,48.3,36z M75,69.3c-0.7,0-1.2,0.9-1.2,2.1v1.7c0,1.2,0.6,2.1,1.2,2.1s1.2-0.9,1.2-2.1v-1.7
	C76.2,70.2,75.7,69.3,75,69.3z M68.3,33.5c-0.7,0-1.2,0.9-1.2,2.1v15.4c0,1.2,0.6,2.1,1.2,2.1s1.2-0.9,1.2-2.1V35.6
	C69.6,34.4,69,33.5,68.3,33.5z M71.7,55.6c-0.7,0-1.2,0.9-1.2,2.1V73c0,1.2,0.6,2.1,1.2,2.1c0.7,0,1.2-0.9,1.2-2.1V57.7
	C72.9,56.5,72.3,55.6,71.7,55.6z M71.7,33.5c-0.7,0-1.2,0.9-1.2,2.1v15.4c0,1.2,0.6,2.1,1.2,2.1c0.7,0,1.2-0.9,1.2-2.1V35.6
	C72.9,34.4,72.3,33.5,71.7,33.5z M75,33.5c-0.7,0-1.2,0.9-1.2,2.1v1.7c0,1.2,0.6,2.1,1.2,2.1s1.2-0.9,1.2-2.1v-1.7
	C76.2,34.4,75.7,33.5,75,33.5z M65,33.5c-0.7,0-1.2,0.9-1.2,2.1v1.7c0,1.2,0.6,2.1,1.2,2.1c0.7,0,1.2-0.9,1.2-2.1v-1.7
	C66.2,34.4,65.7,33.5,65,33.5z M68.3,55.6c-0.7,0-1.2,0.9-1.2,2.1V73c0,1.2,0.6,2.1,1.2,2.1s1.2-0.9,1.2-2.1V57.7
	C69.6,56.5,69,55.6,68.3,55.6z M65,69.3c-0.7,0-1.2,0.9-1.2,2.1v1.7c0,1.2,0.6,2.1,1.2,2.1c0.7,0,1.2-0.9,1.2-2.1v-1.7
	C66.2,70.2,65.7,69.3,65,69.3z M61.7,69.3c-0.7,0-1.2,0.9-1.2,2.1v1.7c0,1.2,0.6,2.1,1.2,2.1c0.7,0,1.2-0.9,1.2-2.1v-1.7
	C62.9,70.2,62.3,69.3,61.7,69.3z M58.3,33.5c-0.7,0-1.2,0.9-1.2,2.1v1.7c0,1.2,0.6,2.1,1.2,2.1s1.2-0.9,1.2-2.1v-1.7
	C59.6,34.4,59,33.5,58.3,33.5z M55,33.5c-0.7,0-1.2,0.9-1.2,2.1v1.7c0,1.2,0.6,2.1,1.2,2.1s1.2-0.9,1.2-2.1v-1.7
	C56.2,34.4,55.7,33.5,55,33.5z M51.7,34.3c-0.7,0-1.2,0.9-1.2,2.1v3.3c0,1.2,0.6,2.1,1.2,2.1s1.2-0.9,1.2-2.1v-3.3
	C52.9,35.3,52.3,34.3,51.7,34.3z M61.7,33.5c-0.7,0-1.2,0.9-1.2,2.1v1.7c0,1.2,0.6,2.1,1.2,2.1c0.7,0,1.2-0.9,1.2-2.1v-1.7
	C62.9,34.4,62.3,33.5,61.7,33.5z"/>
<g>
	<path id="Wordmark" fill="#FFFFFF" d="M41.6,54.4c-0.2,0-0.4,0-0.4,0l-1.7,3h-2.6l4.3-7.5l-0.4-0.7c0,0,5.1,0,6.1,0
		c1.2,0,1.2,1.1,0.7,1.9c-0.3,0.6-0.6,1-0.9,1.6c-0.7,1.1-2.1,1.5-2.1,1.5s1,0.6,0.3,1.8c-0.6,1-0.8,1.3-0.8,1.3h-2.6
		c0,0,0.2-0.3,0.8-1.4C43,54.8,42.2,54.4,41.6,54.4z M44.7,49.9c-0.4,0-0.9,0-0.9,0l-2.2,3.8c0,0,0.4,0,0.8,0c0.5,0,1.1-0.2,1.6-1
		c0.2-0.4,0.9-1.5,1.1-1.9C45.3,50.4,45.3,49.9,44.7,49.9z M49.1,56.6c-0.3,0-0.7-0.2-0.3-0.9c0.4-0.7,3.8-6.6,3.8-6.6H50
		c0,0-3.1,5.4-3.6,6.2c-0.9,1.5-0.6,2,0.2,2c0.8,0,5.4,0,5.4,0l4.7-8.2h-3.5l0.4,0.8l-3.9,6.7C49.8,56.6,49.2,56.6,49.1,56.6z
		 M73.9,56.6c-0.3,0-0.7-0.2-0.3-0.9c0.4-0.7,3.8-6.6,3.8-6.6h-2.6c0,0-3.1,5.4-3.6,6.2c-0.9,1.5-0.6,2,0.2,2c0.8,0,5.4,0,5.4,0
		l4.7-8.2h-3.5l0.4,0.8l-3.9,6.7C74.6,56.6,74,56.6,73.9,56.6z M63.6,52c0,0,0.5-0.8,0.6-1c0.5-0.9,0.3-1.8-0.7-1.8s-2.1,0-3.4,0
		c-1.3,0-2.4,0.8-3.4,2.6c-0.8,1.3-1.5,2.6-2,3.5c-0.7,1.3-0.6,2.1,0.5,2.1c1.3,0,5.3,0,5.3,0l0,0l1.6-2.8l-2.6,0c0,0-0.6,1-0.8,1.5
		c-0.3,0.5-0.8,0.6-1,0.6c-0.1,0-0.3,0-0.4,0c-0.4,0-0.5-0.3-0.2-0.9c0.3-0.6,2.3-3.9,2.7-4.7c0.4-0.8,0.8-1.2,1.3-1.2
		c0.1,0,0.4,0,0.5,0c0.4,0,0.6,0.2,0.2,0.9c-0.3,0.6-0.7,1.2-0.7,1.2H63.6z M69.2,53.3l4.4-4.1H71l-3.9,3.6l2.1-3.6h-3.5l0.4,0.8
		l-4.3,7.5h2.6l2.2-3.8c0,0,0.3,0,0.4,0c1.1,0,1.1,0.9,0.6,1.7c-0.3,0.6-1.2,2.1-1.2,2.1H69c0,0,0.8-1.3,0.9-1.5
		C71.2,53.6,69.2,53.3,69.2,53.3z M88.2,51.6c0,0,0.3-0.5,0.5-0.9c0.4-0.8,0.2-1.5-0.4-1.5c-0.4,0-1.3,0-1.3,0h-1.3c0,0-0.6,0-0.9,0
		c-0.8,0-2,0.3-2.6,1.3c-0.1,0.2-0.5,0.9-0.7,1.1c-0.4,0.7,0,1.1,0.4,1.4c0.3,0.2,1,0.8,1.3,1.1c0.3,0.3,0.5,0.7,0.1,1.2
		c-0.2,0.3-0.1,0.2-0.2,0.4c-0.3,0.5-0.6,0.9-1,0.9c-0.1,0-0.2,0-0.3,0c-0.3,0-0.5-0.2,0-1c0.1-0.2,0.7-1.2,0.7-1.2h-2.6l-0.4,0.8
		c0,0-0.1,0.2-0.2,0.4c-0.9,1.6,0.2,1.7,0.8,1.7c0.7,0,0.9,0,0.9,0h1.3h1.3H85l0.9-1.5c0,0,0.3-0.6,0.4-0.8c0.7-1.1,0.2-1.6-0.3-2.1
		c-0.3-0.3-0.9-0.9-1.3-1.2c-0.3-0.2-0.4-0.5-0.2-0.9c0.1-0.2,0.1-0.2,0.2-0.4c0.3-0.5,0.7-0.6,0.9-0.6c0.2,0,0.1,0,0.3,0
		c0.2,0,0.5,0.1,0.1,0.9c-0.1,0.2-0.4,0.8-0.4,0.8H88.2z M56.6,62.5l-1.2,2.1h-1.9l3.1-5.3l-0.3-0.5c0,0,3.6,0,4.3,0
		c0.9,0,0.8,0.8,0.5,1.4c-0.2,0.4-0.5,0.8-0.8,1.3c-0.5,0.8-1.3,1.1-2.4,1.1H56.6z M59.1,59.3c-0.3,0-0.6,0-0.6,0L56.9,62
		c0,0,0.3,0,0.6,0c0.3,0,0.8-0.2,1.1-0.7c0.2-0.3,0.6-1.1,0.8-1.4C59.5,59.7,59.5,59.3,59.1,59.3z M40.1,60.8c0,0,0.3-0.6,0.4-0.7
		c0.4-0.6,0.2-1.3-0.5-1.3c-0.7,0-1.5,0-2.5,0c-1,0-1.7,0.6-2.4,1.8c-0.6,1-1.1,1.8-1.5,2.5c-0.5,0.9-0.5,1.5,0.4,1.5
		c1,0,3.8,0,3.8,0l0,0l1.2-2h-1.9c0,0-0.4,0.7-0.6,1c-0.2,0.3-0.6,0.4-0.7,0.4c-0.1,0-0.2,0-0.3,0c-0.3,0-0.4-0.2-0.2-0.6
		c0.2-0.4,1.6-2.8,1.9-3.3c0.3-0.5,0.6-0.8,0.9-0.8c0.1,0,0.3,0,0.4,0c0.3,0,0.4,0.2,0.1,0.6c-0.2,0.4-0.5,0.8-0.5,0.8H40.1z
		 M44.3,63.7l-0.5,0.9H40c-0.8,0-0.9-0.6-0.4-1.5c0.4-0.7,0.9-1.6,1.5-2.5c0.7-1.3,1.5-1.8,2.4-1.8c1,0,1.8,0,2.5,0
		c0.7,0,0.8,0.7,0.5,1.3C46.4,60.2,44.3,63.7,44.3,63.7z M41.8,64.1c0.4,0,0.7-0.3,1-0.8c0.3-0.5,1.6-2.8,1.8-3.2
		c0.3-0.5,0.2-0.8-0.1-0.8h-0.4c-0.4,0-0.7,0.3-1,0.8c-0.3,0.5-1.6,2.8-1.8,3.2c-0.3,0.5-0.2,0.8,0.1,0.8H41.8z M64.7,63.7l-0.5,0.9
		h-3.8c-0.8,0-0.9-0.6-0.4-1.5c0.4-0.7,0.9-1.6,1.5-2.5c0.7-1.3,1.5-1.8,2.4-1.8c1,0,1.8,0,2.5,0c0.7,0,0.8,0.7,0.5,1.3
		C66.8,60.2,64.7,63.7,64.7,63.7z M62.2,64.1c0.4,0,0.7-0.3,1-0.8c0.3-0.5,1.6-2.8,1.8-3.2c0.3-0.5,0.2-0.8-0.1-0.8h-0.4
		c-0.4,0-0.7,0.3-1,0.8c-0.3,0.5-1.6,2.8-1.8,3.2c-0.3,0.5-0.2,0.8,0.1,0.8H62.2z M72.4,60.5c0,0,0.2-0.3,0.4-0.6
		c0.3-0.5,0.2-1.1-0.3-1.1c-0.3,0-1,0-1,0h-1c0,0-0.4,0-0.6,0c-0.5,0-1.4,0.2-1.8,1c-0.1,0.1-0.4,0.6-0.5,0.8c-0.3,0.5,0,0.8,0.3,1
		c0.2,0.1,0.7,0.5,0.9,0.8c0.2,0.2,0.3,0.5,0.1,0.9c-0.1,0.2-0.1,0.1-0.2,0.3c-0.2,0.3-0.4,0.6-0.7,0.6c-0.1,0-0.2,0-0.2,0
		c-0.2,0-0.3-0.2,0-0.7c0.1-0.1,0.5-0.8,0.5-0.8h-1.9l-0.3,0.6c0,0-0.1,0.2-0.2,0.3c-0.7,1.2,0.1,1.2,0.6,1.2c0.5,0,0.6,0,0.6,0h1
		H69h1.1l0.6-1.1c0,0,0.2-0.4,0.3-0.6c0.5-0.8,0.2-1.2-0.2-1.5c-0.2-0.2-0.6-0.6-0.9-0.9c-0.2-0.2-0.3-0.3-0.2-0.6
		c0.1-0.1,0.1-0.1,0.2-0.3c0.2-0.3,0.5-0.4,0.6-0.4c0.1,0,0.1,0,0.2,0c0.1,0,0.4,0.1,0,0.6c-0.1,0.1-0.3,0.5-0.3,0.5H72.4z
		 M92.1,60.5c0,0,0.2-0.3,0.4-0.6c0.3-0.5,0.2-1.1-0.3-1.1c-0.3,0-1,0-1,0h-1c0,0-0.4,0-0.6,0c-0.5,0-1.4,0.2-1.8,1
		c-0.1,0.1-0.4,0.6-0.5,0.8c-0.3,0.5,0,0.8,0.3,1c0.2,0.1,0.7,0.5,0.9,0.8c0.2,0.2,0.3,0.5,0.1,0.9c-0.1,0.2-0.1,0.1-0.2,0.3
		c-0.2,0.3-0.4,0.6-0.7,0.6c-0.1,0-0.2,0-0.2,0c-0.2,0-0.3-0.2,0-0.7c0.1-0.1,0.5-0.8,0.5-0.8h-1.9l-0.3,0.6c0,0-0.1,0.2-0.2,0.3
		c-0.7,1.2,0.1,1.2,0.6,1.2c0.5,0,0.6,0,0.6,0h1h0.9h1.1l0.6-1.1c0,0,0.2-0.4,0.3-0.6c0.5-0.8,0.2-1.2-0.2-1.5
		c-0.2-0.2-0.6-0.6-0.9-0.9c-0.2-0.2-0.3-0.3-0.2-0.6c0.1-0.1,0.1-0.1,0.2-0.3c0.2-0.3,0.5-0.4,0.6-0.4c0.1,0,0.1,0,0.2,0
		c0.1,0,0.4,0.1,0,0.6c-0.1,0.1-0.3,0.5-0.3,0.5H92.1z M76.4,58.8h-2.5l0.3,0.5l-3.1,5.3H73L76.4,58.8z M80.4,58.8h-1.9H77l-0.3,0.5
		l-0.2,0.4h0.3c0.3-0.2,0.6-0.4,1-0.4h0.5l-0.3,0.5l-2.8,4.8H77l2.8-4.8l0.3-0.5c0.4,0,1.1,0.2,1.1,0.4h0.3l0.2-0.4l0.3-0.5H80.4z
		 M86.7,60l0.1-0.1c0.3-0.5,0.2-1.1-0.3-1.1l-0.7,0l0,0l-1.2,0l0,0h-1.9l0,0l-0.3,0.5l-0.9,1.6l-0.3,0.5l-1.8,3.2h1.9l0,0h1.2l0,0
		l0,0H84l0.2-0.4l0.1-0.1L85,63h-1.9l-0.4,0.7c-0.2,0.3-0.6,0.4-0.9,0.4h-0.2l1.5-2.6h0.6c0.4,0,0.5,0.2,0.5,0.4h0.3l0.2-0.4
		l0.3-0.5h-1.7l0.9-1.6h0.3c0.4,0,0.6,0.1,0.5,0.4L84.8,60H86.7z M54.9,58.8h-0.9H53h-1.9h-0.9h-2.5l0.3,0.5l-3.1,5.3h1.9l3.1-5.3
		H50c0.4,0,0.7,0.2,0.5,0.5l-2.8,4.8h1.9l3.1-5.3h0.2c0.4,0,0.7,0.2,0.5,0.5l-2.5,4.3c-0.2,0.3,0,0.5,0.3,0.5h1.2l2.8-4.8
		C55.5,59.3,55.3,58.8,54.9,58.8z"/>
	<polygon id="Wing" fill="#FFFFFF" points="15.2,45.2 16.8,44.1 13.6,44.1 7.3,38 8.9,35.4 17.6,35.4 24.5,47.3 22.4,47.4 
		21.9,48.9 16.4,48.3 16.4,48.3 16.4,48.3 11.8,45.6 11.6,45.2 	"/>
	<path id="Body" fill="#FFFFFF" d="M17.6,54.5L17,56.3l3,0l1.7,1l0.7-1.2l-2.1-1.2L17.6,54.5z M22.8,51.8l-3.2,0.7l-1,0.7l2.4,0.3v0
		l0,0l2.2,1.3l1.2-2.1L22.8,51.8z M16.9,57.7l0.5,5.1l-0.3,0.5l-3.2,1l0.2,0.4h3.4l3.5-6.1l-1.5-0.8L16.9,57.7z M25,48.3l-1.8,0.1
		l-0.5,1.5l0.5,0.9l1.6,0.9l1-1.8L25,48.3z M21.5,49.9l-5.6-0.5l-1.8,1.8l-2.3-0.3l0.2,0.5l2.2,1.1l2.1-2.1l2.6,0.2l-2.2,0.5
		l-1.9,3.3l-2.7,0l0.2,0.5l2.9,0.8l2.2-3.7l4.8-1.1L21.5,49.9z"/>
	<polygon id="Chevron" fill="#FFFFFF" points="25.7,35.4 18.8,35.4 27.3,50 18.8,64.6 25.7,64.6 34.2,50 	"/>
</g>
</svg>
