<?xml version="1.0" encoding="utf-8"?>
<!-- Generator: Adobe Illustrator 17.1.0, SVG Export Plug-In . SVG Version: 6.00 Build 0)  -->
<!DOCTYPE svg PUBLIC "-//W3C//DTD SVG 1.1//EN" "http://www.w3.org/Graphics/SVG/1.1/DTD/svg11.dtd">
<svg version="1.1" id="Layer_1" xmlns="http://www.w3.org/2000/svg" xmlns:xlink="http://www.w3.org/1999/xlink" x="0px" y="0px"
	 viewBox="0 0 60 60" enable-background="new 0 0 60 60" xml:space="preserve">
<rect display="none" fill="#D63694" width="60" height="60"/>
<path id="instagram" display="none" fill="#FFFFFF" d="M45.4,30c0,8.5-6.9,15.4-15.4,15.4c-8.5,0-15.4-6.9-15.4-15.4
	c0-1,0.1-2,0.3-3H4.5v20.5c0,4.4,3.6,8,8,8h35.1c4.4,0,8-3.6,8-8V27H45.1C45.3,28,45.4,29,45.4,30z M47.5,4.5H12.5c-4.4,0-8,3.6-8,8
	v8.6h12.9c2.8-3.9,7.4-6.5,12.6-6.5c5.2,0,9.8,2.6,12.6,6.5h12.9v-8.6C55.5,8.1,51.9,4.5,47.5,4.5z M51.4,14.3
	c0,0.8-0.6,1.4-1.4,1.4h-4.3c-0.8,0-1.4-0.6-1.4-1.4v-4.3c0-0.8,0.6-1.4,1.4-1.4H50c0.8,0,1.4,0.6,1.4,1.4V14.3z M39.5,30
	c0-5.2-4.2-9.5-9.5-9.5c-5.2,0-9.5,4.2-9.5,9.5s4.2,9.5,9.5,9.5C35.2,39.5,39.5,35.2,39.5,30z"/>
<path id="facebook" display="none" fill="#FFFFFF" d="M49.1,4.5H10.9c-3.5,0-6.4,2.9-6.4,6.4v38.2c0,3.5,2.9,6.4,6.4,6.4h19.3V37.2
	h-6.1v-8h6.1v-4c0-6.1,4.5-11,10.3-11h5.6v9h-5c-1.3,0-1.7,0.8-1.7,1.8v4.2h6.7v8h-6.7v18.3h9.7c3.5,0,6.4-2.9,6.4-6.4V10.9
	C55.5,7.4,52.6,4.5,49.1,4.5z"/>
<path id="twitter" fill="#FFFFFF" d="M55.5,14.2c-1.9,0.8-3.9,1.4-6,1.6c2.2-1.3,3.8-3.3,4.6-5.8c-2,1.2-4.3,2.1-6.6,2.5
	c-1.9-2-4.6-3.3-7.6-3.3C34,9.3,29.3,14,29.3,19.7c0,0.8,0.1,1.6,0.3,2.4c-8.7-0.4-16.4-4.6-21.5-10.9c-0.9,1.5-1.4,3.3-1.4,5.3
	c0,3.6,1.8,6.8,4.7,8.7c-1.7-0.1-3.3-0.5-4.7-1.3c0,0,0,0.1,0,0.1c0,5.1,3.6,9.3,8.4,10.3c-0.9,0.2-1.8,0.4-2.8,0.4
	c-0.7,0-1.3-0.1-2-0.2c1.3,4.2,5.2,7.2,9.8,7.3c-3.6,2.8-8.1,4.5-13,4.5c-0.8,0-1.7,0-2.5-0.1c4.6,3,10.1,4.7,16,4.7
	c19.2,0,29.7-15.9,29.7-29.7c0-0.5,0-0.9,0-1.4C52.3,18.1,54.1,16.3,55.5,14.2z"/>
</svg>
